<svg id="Layer_1" data-name="Layer 1" xmlns="http://www.w3.org/2000/svg" viewBox="0 0 411.6 337.88"><defs><style>.cls-1{fill:none;stroke:#000;stroke-miterlimit:10;stroke-width:2px;}</style></defs><title>001-gift-1</title><path class="cls-1" d="M252.44-6.54A115.6,115.6,0,0,0,138.13-105,114.84,114.84,0,0,0,51.8-66.27,114.84,114.84,0,0,0-34.53-105a115.53,115.53,0,0,0-75.63,28.18A115.58,115.58,0,0,0-148.77-7a6,6,0,0,0,5,6.84,6,6,0,0,0,6.84-5,103.55,103.55,0,0,1,34.6-62.53A103.53,103.53,0,0,1-34.54-93,103,103,0,0,1,47.07-53.2a6,6,0,0,0,4.73,2.3,6,6,0,0,0,4.73-2.3A103,103,0,0,1,138.13-93,103.59,103.59,0,0,1,240.57-4.78,6,6,0,0,0,246.5.34a6.2,6.2,0,0,0,.89-.06,6,6,0,0,0,5.06-6.82Zm0,0" transform="translate(154 106)"/><path class="cls-1" d="M224.31,91.11A6,6,0,0,0,216,92.92c-14.91,23.23-44.81,58.33-102.6,93.65A473.84,473.84,0,0,1,51.8,218.4,473.23,473.23,0,0,1-9.82,186.57c-57.79-35.32-87.69-70.42-102.6-93.65a6,6,0,0,0-8.3-1.81,6,6,0,0,0-1.81,8.3c28.29,44.06,73.61,77.36,106.65,97.53C19.78,218.71,48.41,230,49.61,230.47a6,6,0,0,0,4.38,0c1.2-.47,29.82-11.76,65.48-33.53,33-20.17,78.36-53.47,106.64-97.53a6,6,0,0,0-1.81-8.3Zm0,0" transform="translate(154 106)"/><path class="cls-1" d="M255.7,28.33c-.3-1.41-2-8.52-5.28-10.66a6,6,0,0,0-4.32-.87h0c-31.94,5.64-64.56,9.95-97,12.84a52.41,52.41,0,0,0-8.61-13.42,27.33,27.33,0,0,0-20.39-9.45h-.63c-18.34,0-38,16.11-48.24,26A15.87,15.87,0,0,0,65,31.47H38.6a15.86,15.86,0,0,0-6.19,1.25C22,22.75,2.07,6.38-16.46,6.77a27.32,27.32,0,0,0-20.39,9.45,52.31,52.31,0,0,0-8.61,13.42c-32.48-2.89-65.11-7.2-97-12.84h0a6,6,0,0,0-4.32.88c-3.29,2.14-5,9.25-5.28,10.66a50.16,50.16,0,0,0,.87,22.44c4,16,15.44,24.45,17.53,25.44a6,6,0,0,0,1.64.51c27.42,4.35,55.38,7.78,83.18,10.22,2.55,8.74,6.55,16.64,12,22.72a27.32,27.32,0,0,0,20.39,9.44h.63c18.33,0,38-16.11,48.24-26a15.9,15.9,0,0,0,6.19,1.25H65a15.94,15.94,0,0,0,6.19-1.25c10.28,9.85,29.9,26,48.24,26h.63a27.32,27.32,0,0,0,20.39-9.44c5.48-6.08,9.49-14,12-22.72,27.8-2.44,55.77-5.86,83.18-10.22a6,6,0,0,0,1.64-.51c2.09-1,13.52-9.42,17.53-25.45a50.08,50.08,0,0,0,.86-22.44ZM-50.7,46.45c0,.07,0,.13,0,.19q-.28,1.52-.51,3.06l0,.25q-.2,1.37-.36,2.74l-.06.51c-.1,1-.19,1.91-.26,2.87,0,.2,0,.41,0,.61-.06.91-.11,1.84-.15,2.75,0,.08,0,.16,0,.23,0,1-.05,2.07-.06,3.11v.32a90.67,90.67,0,0,0,.74,11.57c-25.85-2.35-51.83-5.57-77.33-9.59a32.73,32.73,0,0,1-10.79-17.23c-2.24-9-1.4-15.08-.43-18.45,29.81,5.14,60.18,9.14,90.45,11.91-.43,1.68-.8,3.39-1.12,5.12ZM23.9,84.7C11.79,96.24-4.19,107.33-16.21,107.11a15.53,15.53,0,0,1-11.72-5.48c-16.32-18.08-16.32-59.3,0-77.38a15.54,15.54,0,0,1,11.72-5.48h.4c12,0,27.74,11,39.72,22.42a15.87,15.87,0,0,0-1.26,6.25v31A15.89,15.89,0,0,0,23.9,84.7ZM69,78.45a4,4,0,0,1-.08.79c0,.08-.05.16-.07.23a3.12,3.12,0,0,1-.16.51,4.47,4.47,0,0,1-.26.49c0,.06-.06.13-.1.18A4,4,0,0,1,65,82.41H38.6a3.94,3.94,0,0,1-2.79-1.15,3,3,0,0,1-.69-.95A3.1,3.1,0,0,1,35,80a3.76,3.76,0,0,1-.17-.55c0-.07,0-.13-.06-.2a4,4,0,0,1-.08-.79v-31a4.06,4.06,0,0,1,.08-.79c0-.06,0-.12.05-.18A4.53,4.53,0,0,1,35,45.9c0-.1.11-.19.15-.29a4.31,4.31,0,0,1,.22-.39,4.07,4.07,0,0,1,.5-.6,3.94,3.94,0,0,1,2.79-1.15H65a4,4,0,0,1,3.28,1.75c.07.1.12.22.18.32a3.13,3.13,0,0,1,.19.36,3.4,3.4,0,0,1,.17.54c0,.07,0,.13.06.2a4.09,4.09,0,0,1,.08.79Zm62.58,23.18a15.53,15.53,0,0,1-11.72,5.48c-12.07.23-28-10.87-40.11-22.41A16,16,0,0,0,81,78.45v-31a15.92,15.92,0,0,0-1.27-6.25C91.8,29.64,107.76,18.5,119.81,18.77a15.53,15.53,0,0,1,11.72,5.48c16.31,18.08,16.31,59.3,0,77.38ZM243.19,47.86a32.73,32.73,0,0,1-10.78,17.23c-25.5,4-51.48,7.24-77.34,9.59a89.83,89.83,0,0,0,.74-11.58v-.32c0-1,0-2.07-.05-3.11,0-.07,0-.15,0-.22,0-.93-.09-1.85-.15-2.77,0-.2,0-.4,0-.6q-.11-1.45-.26-2.88l-.06-.5c-.11-.92-.22-1.84-.36-2.76l0-.25q-.23-1.54-.51-3.07l0-.19c-.32-1.74-.7-3.45-1.12-5.12,30.27-2.78,60.64-6.78,90.45-11.91,1,3.37,1.81,9.49-.43,18.45Zm0,0" transform="translate(154 106)"/></svg>