<svg id="Layer_1" data-name="Layer 1" xmlns="http://www.w3.org/2000/svg" viewBox="0 0 404.27 411.6"><defs><style>.cls-1{fill:none;stroke:#231f20;stroke-miterlimit:10;stroke-width:2px;}</style></defs><title>002-dove</title><path class="cls-1" d="M249.45-11.9c-27.73-12.9-32.41-18.6-38.21-28-7.37-18-28.33-29.76-52.3-29.33-32.07.59-52.22,19.39-67.3,40.26-9-19.3-28.19-33.22-58.15-42.33C-5.05-83.07-28.29-100.84-41-113.67c-13.74-13.87-18.48-25.14-18.52-25.23A6,6,0,0,0-65-142.68h-.05A6,6,0,0,0-70.65-139,259.44,259.44,0,0,0-83.87-94.52a6,6,0,0,0,4.68,7.12,6,6,0,0,0,7.13-4.68,270,270,0,0,1,8.16-30.3C-52.81-106-26.19-76.91,30-59.82c12,3.66,26.71,9.21,38,19.16l-.28-.14c-.91-.45-1.82-.9-2.75-1.33l-.21-.09q-1.29-.6-2.62-1.16l-.88-.37q-1.06-.45-2.14-.87L58.19-45c-1-.37-2-.74-3-1.09l-.2-.07c-.94-.33-1.91-.64-2.87-.95l-.95-.29c-.77-.24-1.54-.46-2.33-.69l-.94-.27c-1.06-.29-2.14-.58-3.23-.85l-.17,0q-1.56-.39-3.15-.73l-1-.22-2.5-.51-1-.19c-1.15-.21-2.3-.42-3.47-.61l-.11,0c-1.13-.18-2.28-.35-3.44-.51l-1.08-.14L26-52.44,25-52.56c-1.23-.13-2.46-.25-3.71-.36h-.06c-1.23-.11-2.48-.2-3.74-.28l-1.13-.07-2.87-.14-1.15-.05c-1.3-.05-2.62-.09-3.95-.12-50.82-1-85.15-14.57-105-25.82-21.47-12.16-31.11-24.25-31.2-24.36a6,6,0,0,0-6.51-2.08,6,6,0,0,0-4.27,5.34c-.08,1.06-1.81,26.19,2.95,59.1,8,55.41,28.09,88.1,43.52,105.76a6,6,0,0,0,8.5.57,6,6,0,0,0,.57-8.5C-97.41,40-116.1,9.48-123.71-42.86a314.11,314.11,0,0,1-3.21-43,149.92,149.92,0,0,0,23.63,16.57C-82.14-57.21-45.65-42.56,8.12-41.54l3.3.09.7,0,2.55.11.69,0,2.5.16.78.06,2.35.19.68.07,2.4.24.58.07,2.43.29.84.12,2.12.3,1,.16,1.88.3,1.19.22,1.65.3,1.34.27,1.45.3,1.3.3,1.43.33,1.3.33,1.37.35,1.38.39,1.23.35,1.46.45,1.1.34,1.45.49,1,.36,1.42.52,1,.38,1.42.57,1,.38,1.4.61.93.4c.47.21.93.43,1.38.64l.89.41,1.36.68.86.43,1.31.71.84.45,1.29.75.8.47,1.26.79.77.49,1.21.81.76.51c.39.27.78.56,1.17.84l.75.54,1.15.88.71.55,1.11.91.69.57,1,.93.69.61c.34.31.67.63,1,.94l.68.65c.33.32.65.65,1,1l.65.66c.32.33.62.68.93,1s.42.45.62.68.6.7.9,1,.44.5.65.76l.13.14.32.34.22.2.23.2.08.06.17.12.36.24.19.12.42.21.15.07c.17.07.35.14.52.2h0a6.48,6.48,0,0,0,.82.19l.22,0a5.48,5.48,0,0,0,.63,0h.5l.3,0,.2,0,.1,0,.48-.1L91.6-10a6.24,6.24,0,0,0,.71-.25h0a5.48,5.48,0,0,0,.57-.29l.13-.07.42-.28.15-.11.38-.32.12-.11.08-.07.09-.11a5.46,5.46,0,0,0,.52-.63l.12-.16L95-12.5c14.79-22.89,32.8-44.14,64.19-44.72h1c18.49,0,34.86,9,40,22.2a5.73,5.73,0,0,0,.47.95c5.59,9.16,10.55,15.31,24.64,23.43a91,91,0,0,0-12.27,3.34c-16.76,5.87-38.52,19.47-47,50.94a216.45,216.45,0,0,0-4.27,22.29c-4.49,28.67-9.58,61.16-50.2,92.78-36.47,28.38-96.33,24.09-121.58,1.6a6,6,0,0,0-6.91-.78c-22.53,12.38-28.88,55.37-30.25,89.26a6.42,6.42,0,0,1-4.26,5.92,2.85,2.85,0,0,1-.81.18h0c-1.21,0-3.14-1-5-2-2.65-1.39-5.66-3-9.16-3.15-3.86-.2-7.37,1.14-10.18,2.23-1.54.59-3.63,1.4-4.43,1.3-1.26-.16-3.07-1.47-4.83-2.73-2.36-1.7-5-3.63-8.35-4.33-3.78-.79-7.45-.06-10.39.54-1.41.28-3.75.76-4.43.54-1.35-.43-2.91-2.16-4.43-3.83-1.84-2-3.92-4.34-6.77-5.67-3.63-1.7-7.39-1.94-10.41-2.14a19.26,19.26,0,0,1-3.89-.48c-2.43-1.7-2.52-2.23-2.62-2.8a14,14,0,0,1,2-9.74,477.72,477.72,0,0,1,77.21-94.78,154.18,154.18,0,0,1,34-24,6,6,0,0,0,3.39-6,6,6,0,0,0-4.43-5.27,117.72,117.72,0,0,1-38.32-18,6,6,0,0,0-8.41,1.37,6,6,0,0,0,1.37,8.41,127.18,127.18,0,0,0,29,15.59A166.61,166.61,0,0,0-66.16,119a490.08,490.08,0,0,0-79.2,97.21,26,26,0,0,0-3.6,18.16c.63,3.65,2.18,6.86,7.69,10.68,3,2.1,6.68,2.35,9.9,2.56a18.53,18.53,0,0,1,6.1,1,16.73,16.73,0,0,1,2.93,2.84c2.34,2.58,5.25,5.81,9.69,7.23,3.66,1.17,7.28.44,10.48-.2,2.06-.41,4.18-.84,5.53-.56a16.07,16.07,0,0,1,3.78,2.31c2.7,1.95,6.07,4.38,10.39,4.91,3.81.47,7.24-.85,10.27-2,1.93-.74,3.92-1.51,5.19-1.44a15.77,15.77,0,0,1,4.21,1.79c2.87,1.5,6.44,3.37,10.62,3.37h.07a14.52,14.52,0,0,0,4.5-.78,18.52,18.52,0,0,0,12.55-16.89c1.58-39.37,9.09-66.92,20.78-76.92,15.11,11.55,37.22,18.18,61.54,18.32,27.1.16,53.24-8,71.77-22.45,44.39-34.55,50.11-71.08,54.71-100.43a207.59,207.59,0,0,1,4-21c5.64-21.05,18.74-35.37,38.91-42.55A82.52,82.52,0,0,1,246.47-.42a6.06,6.06,0,0,0,6.27-4.5,6,6,0,0,0-3.29-7Zm0,0" transform="translate(150.34 143.68)"/><path class="cls-1" d="M165.84-41.68a19.58,19.58,0,0,0-19.55,19.56,6,6,0,0,0,6,6,6,6,0,0,0,6-6,7.51,7.51,0,0,1,7.5-7.5,7.51,7.51,0,0,1,7.5,7.5,6,6,0,0,0,6,6,6,6,0,0,0,6-6,19.58,19.58,0,0,0-19.56-19.56Zm0,0" transform="translate(150.34 143.68)"/></svg>