<svg id="Layer_1" data-name="Layer 1" xmlns="http://www.w3.org/2000/svg" viewBox="0 0 407.38 411.6"><defs><style>.cls-1{fill:none;stroke:#231f20;stroke-miterlimit:10;stroke-width:2px;}</style></defs><title>003-cupcake</title><path class="cls-1" d="M74.39,122.27a34.52,34.52,0,0,0-22.7,8.43A34.76,34.76,0,0,0-5.76,157c0,39.79,53,61,55.29,61.88a5.9,5.9,0,0,0,4.33,0c2.26-.88,55.28-22.09,55.28-61.88a34.78,34.78,0,0,0-34.75-34.75ZM51.68,206.91A121.75,121.75,0,0,1,29.48,194C14,182.48,6.13,170,6.13,157A22.87,22.87,0,0,1,47,142.94a5.94,5.94,0,0,0,9.36,0A22.87,22.87,0,0,1,97.25,157c0,27.74-36.25,45.72-45.57,49.89Zm0,0" transform="translate(152 144)"/><path class="cls-1" d="M232.41-21.41a112.13,112.13,0,0,0-53.14-38.8A139.43,139.43,0,0,0,51.69-143,139.43,139.43,0,0,0-75.89-60.21,112.14,112.14,0,0,0-129-21.41a110.16,110.16,0,0,0-22,66.32,110.79,110.79,0,0,0,5.9,35.78A24.48,24.48,0,0,0-122,97.23h.33c16.55,0,25.09-6.88,32.63-13C-82.21,78.73-76.27,74-63.91,74s18.3,4.79,25.18,10.32c7.54,6.07,16.08,13,32.63,13s25.09-6.88,32.63-13C33.4,78.73,39.34,74,51.7,74S70,78.74,76.87,84.28c7.54,6.07,16.08,13,32.63,13s25.09-6.88,32.63-13C149,78.73,155,74,167.3,74s18.29,4.79,25.17,10.32c7.54,6.07,16.09,13,32.63,13h.18a24.82,24.82,0,0,0,23.38-17.09A111.23,111.23,0,0,0,232.41-21.41Zm5,97.78a12.94,12.94,0,0,1-12.13,9h-.16c-12.36,0-18.29-4.79-25.17-10.32-7.54-6.07-16.09-13-32.63-13s-25.09,6.88-32.63,13c-6.88,5.54-12.82,10.32-25.18,10.32S91.2,80.56,84.33,75c-7.54-6.07-16.09-13-32.63-13S26.61,68.95,19.07,75C12.19,80.56,6.25,85.34-6.1,85.34S-24.4,80.56-31.28,75c-7.54-6.07-16.09-13-32.63-13S-89,68.95-96.54,75c-6.88,5.54-12.82,10.32-25.17,10.32H-122a12.57,12.57,0,0,1-11.84-8.49,98.93,98.93,0,0,1-5.26-31.95A98.38,98.38,0,0,1-119.5-14.31,100.09,100.09,0,0,1-69.71-49.73,5.94,5.94,0,0,0-66-53.08a127.57,127.57,0,0,1,117.72-78,127.58,127.58,0,0,1,117.72,78,5.93,5.93,0,0,0,3.69,3.36,100.09,100.09,0,0,1,49.79,35.42A99.34,99.34,0,0,1,237.4,76.37Zm0,0" transform="translate(152 144)"/><path class="cls-1" d="M205,109.45a6,6,0,0,0-7,4.59L175.09,222.68a40.56,40.56,0,0,1-39.5,32H-32.2a40.56,40.56,0,0,1-39.5-32L-94.6,114.13a6,6,0,0,0-7-4.59,6,6,0,0,0-4.59,7l22.9,108.55A52.49,52.49,0,0,0-32.2,266.6H135.58a52.5,52.5,0,0,0,51.14-41.47l22.92-108.64a5.94,5.94,0,0,0-4.59-7Zm0,0" transform="translate(152 144)"/><path class="cls-1" d="M99.77-78.93A24.26,24.26,0,0,0,75.54-54.71,24.26,24.26,0,0,0,99.77-30.48,24.26,24.26,0,0,0,124-54.71,24.25,24.25,0,0,0,99.77-78.93Zm0,36.57A12.36,12.36,0,0,1,87.42-54.71,12.36,12.36,0,0,1,99.77-67.05a12.36,12.36,0,0,1,12.34,12.34A12.36,12.36,0,0,1,99.77-42.36Zm0,0" transform="translate(152 144)"/><path class="cls-1" d="M-10.11-97.22A24.26,24.26,0,0,0-34.34-73,24.26,24.26,0,0,0-10.11-48.77,24.26,24.26,0,0,0,14.12-73,24.26,24.26,0,0,0-10.11-97.22Zm0,36.58A12.36,12.36,0,0,1-22.46-73,12.36,12.36,0,0,1-10.11-85.34,12.36,12.36,0,0,1,2.23-73,12.36,12.36,0,0,1-10.11-60.65Zm0,0" transform="translate(152 144)"/><path class="cls-1" d="M-82.13,3.53a24.26,24.26,0,0,0-24.23,24.23A24.26,24.26,0,0,0-82.13,52,24.25,24.25,0,0,0-57.9,27.76,24.26,24.26,0,0,0-82.13,3.53Zm0,36.57A12.36,12.36,0,0,1-94.47,27.76,12.36,12.36,0,0,1-82.13,15.42,12.36,12.36,0,0,1-69.78,27.76,12.36,12.36,0,0,1-82.13,40.11Zm0,0" transform="translate(152 144)"/><path class="cls-1" d="M40.6-14.75A24.23,24.23,0,1,0,64.83,9.47,24.26,24.26,0,0,0,40.6-14.75Zm0,36.57A12.34,12.34,0,1,1,52.94,9.48,12.36,12.36,0,0,1,40.6,21.82Zm0,0" transform="translate(152 144)"/><path class="cls-1" d="M176.89,7.44a24.23,24.23,0,1,0,24.23,24.23A24.25,24.25,0,0,0,176.89,7.44Zm0,36.57a12.34,12.34,0,1,1,12.34-12.34A12.35,12.35,0,0,1,176.89,44Zm0,0" transform="translate(152 144)"/></svg>