<svg id="Layer_1" data-name="Layer 1" xmlns="http://www.w3.org/2000/svg" viewBox="0 0 364.67 411.6"><defs><style>.cls-1{fill:none;stroke:#000;stroke-miterlimit:10;stroke-width:2px;}</style></defs><title>005-gramophone</title><path class="cls-1" d="M219.43,233.8h-8.53V160.32a18.52,18.52,0,0,0-18.5-18.5H179.28a23.55,23.55,0,0,0-23.51-22.92H72.58v-9.64a6,6,0,0,0-11.94,0v9.64H25.93a6,6,0,1,0,0,11.94H155.77a11.6,11.6,0,0,1,11.57,11H-30.53a11.6,11.6,0,0,1,11.57-11H-1.33a6,6,0,0,0,6-6,6,6,0,0,0-6-6H-19a23.55,23.55,0,0,0-23.51,22.92h-13.1a18.52,18.52,0,0,0-18.5,18.5v27.19c-5.66-1-9-3.15-11-8.18-2.15-5.45-8.64-49.83-5.71-64C-87.66,100.2-75.49,86-57.39,76.5c19.2-10.12,42.62-17.93,61.12-20.37a213.38,213.38,0,0,1,164.14,47.57l1.19,4.78a20.4,20.4,0,0,0,19.71,15.39,19.92,19.92,0,0,0,4.52-.52l.31-.07a20.28,20.28,0,0,0,15.12-24.64L152.65-127.29a20.37,20.37,0,0,0-24.23-14.88l-.32.08a20.13,20.13,0,0,0-12.71,9.15A20.13,20.13,0,0,0,113-117.45l1.41,5.7A211.89,211.89,0,0,1,70.85-44.91,212,212,0,0,1,4.44,1.79a227.35,227.35,0,0,1-23.21,8.4c-6.67,2.15-13.57,4.37-20.18,7.05C-52,22.53-68.86,29.94-84,40.47c-22.58,15.67-37.91,36.32-43.17,58.15-3.28,13.62-3.11,29.22.52,47.69.08.41,8.58,41.59,14.39,50.55a44.27,44.27,0,0,0,24.75,18.4,43.17,43.17,0,0,0,7.61,1.47c1.3.14,2.61.21,3.91.21h1l.94,0V233.8h-8.54a13.72,13.72,0,0,0-13.71,13.71v5.7a13.72,13.72,0,0,0,13.71,13.71h302a13.73,13.73,0,0,0,13.71-13.71v-5.7a13.73,13.73,0,0,0-13.71-13.71ZM125.56-126.7a8.29,8.29,0,0,1,5.24-3.76l.28-.07a8.24,8.24,0,0,1,1.86-.22,8.39,8.39,0,0,1,8.12,6.33l56.07,225.94a8.34,8.34,0,0,1-6.24,10.14l-.28.06a8.37,8.37,0,0,1-10-6.11L179,98.92h0L126.47-112.72h0l-1.89-7.61a8.29,8.29,0,0,1,1-6.37ZM-74.07,205l-1.12,0h-.75a27.48,27.48,0,0,1-2.77-.15,31.12,31.12,0,0,1-5.54-1.07,32.21,32.21,0,0,1-18-13.41c-3.14-4.84-10.11-33.17-12.7-46.36-3.29-16.75-3.5-30.69-.63-42.59,4.57-19,18.2-37.14,38.37-51.14,14.2-9.86,30.32-16.92,42.76-22,6.2-2.51,12.89-4.67,19.36-6.75A239.84,239.84,0,0,0,9.32,12.69,224,224,0,0,0,79.45-36.63,223.9,223.9,0,0,0,119.06-93L163.23,85A225.38,225.38,0,0,0,2.18,44.3C-17.94,46.95-42.29,55-63,65.94c-21.26,11.22-35.66,28.34-39.52,47-3.47,16.77,3.55,63.81,6.3,70.79,4.62,11.73,14.43,14.85,22.1,15.92Zm293.5,50h-302a1.77,1.77,0,0,1-1.77-1.77v-5.7a1.77,1.77,0,0,1,1.77-1.77H123.55a6,6,0,0,0,0-11.94H-62.14V160.32a6.57,6.57,0,0,1,6.56-6.56h248a6.57,6.57,0,0,1,6.56,6.56V233.8H151.36a6,6,0,0,0,0,11.94h68.06a1.77,1.77,0,0,1,1.77,1.77v5.7a1.77,1.77,0,0,1-1.77,1.77Zm0,0" transform="translate(130.54 143.68)"/><path class="cls-1" d="M79.79,165.32a22.57,22.57,0,0,0-13.18,4.2A22.71,22.71,0,0,0,30.73,188c0,24.8,32.33,37.73,33.7,38.27a6,6,0,0,0,4.35,0c1.38-.54,33.7-13.47,33.7-38.27a22.72,22.72,0,0,0-22.69-22.7ZM66.65,214.22c-6.23-2.95-24-12.55-24-26.2a10.75,10.75,0,0,1,19.23-6.62,6,6,0,0,0,9.4,0A10.75,10.75,0,0,1,90.54,188c0,12.58-15.61,22.38-23.89,26.2Zm0,0" transform="translate(130.54 143.68)"/></svg>