<svg id="Layer_1" data-name="Layer 1" xmlns="http://www.w3.org/2000/svg" viewBox="0 0 410.34 411.6"><defs><style>.cls-1{fill:none;stroke:#231f20;stroke-miterlimit:10;stroke-width:2px;}</style></defs><title>006-video-camera</title><path class="cls-1" d="M-12-74.49H-32.76a6,6,0,0,0-6,6,6,6,0,0,0,6,6H-12a6,6,0,0,0,6-6,6,6,0,0,0-6-6Zm0,0" transform="translate(153.37 143.68)"/><path class="cls-1" d="M-12-48.92H-32.76a6,6,0,0,0-6,6,6,6,0,0,0,6,6H-12a6,6,0,0,0,6-6,6,6,0,0,0-6-6Zm0,0" transform="translate(153.37 143.68)"/><path class="cls-1" d="M66.83-33.61A35.08,35.08,0,0,0,43.72-25a35.09,35.09,0,0,0-23.11-8.6A35.36,35.36,0,0,0-14.7,1.71c0,40.47,53.94,62,56.24,62.94a6,6,0,0,0,4.37,0c2.3-.9,56.24-22.47,56.24-62.94A35.36,35.36,0,0,0,66.83-33.61ZM43.71,52.56A124,124,0,0,1,21.08,39.39C5.29,27.67-2.72,15-2.72,1.71A23.36,23.36,0,0,1,20.61-21.62a23.21,23.21,0,0,1,18.39,9,6,6,0,0,0,4.72,2.3,6,6,0,0,0,4.72-2.3,23.21,23.21,0,0,1,18.39-9A23.36,23.36,0,0,1,90.16,1.71c0,28.3-37,46.62-46.44,50.85Zm0,0" transform="translate(153.37 143.68)"/><path class="cls-1" d="M250.68-96.39A12.53,12.53,0,0,0,239.29-98L204.76-85.68a12.52,12.52,0,0,0-8.31,11.77v3.82H174.84v-8.55a18.3,18.3,0,0,0-18.28-18.28H108.81a6,6,0,0,0-6,6,6,6,0,0,0,6,6h47.75a6.3,6.3,0,0,1,6.29,6.29V44.65H115A15.44,15.44,0,0,0,99.53,60.08v44.58H-67.25a6.3,6.3,0,0,1-6.29-6.29V73a6,6,0,0,0-6-6,6,6,0,0,0-6,6V98.36a18.3,18.3,0,0,0,18.28,18.28h43.71v5.43A18.56,18.56,0,0,0-5,140.61H3.65L-39.13,241.95a17.87,17.87,0,0,0-.09,13.76,17.87,17.87,0,0,0,9.66,9.79,17.87,17.87,0,0,0,7,1.42A18,18,0,0,0-6,255.93L42.68,140.61h2.09L93.45,255.93a18,18,0,1,0,33.12-14L83.8,140.61h8.64A18.57,18.57,0,0,0,111,122.07v-5.43h45.58a18.28,18.28,0,0,0,18.28-18.28V-2.31h21.71A12.52,12.52,0,0,0,204.76,8l34.53,12.27A12.5,12.5,0,0,0,256,8.45V-86.18a12.52,12.52,0,0,0-5.29-10.21ZM-17,251.27a6,6,0,0,1-5.53,3.66,6,6,0,0,1-2.33-.48,6,6,0,0,1-3.22-3.26,5.94,5.94,0,0,1,0-4.59l44.75-106h13Zm132.57-4.66a6,6,0,1,1-11,4.66L57.78,140.61h13Zm-23.09-118H-5a6.56,6.56,0,0,1-6.55-6.55v-5.43H99v5.43a6.56,6.56,0,0,1-6.56,6.55Zm70.41-30.26a6.44,6.44,0,0,1-.13,1.26,6.31,6.31,0,0,1-6.16,5H111.51V60.08A3.44,3.44,0,0,1,115,56.63h47.91ZM196.44-14.29h-21.6V-58.1h21.6ZM243.77,8.87a.47.47,0,0,1-.46.06L208.77-3.34a.51.51,0,0,1-.34-.48V-73.91a.51.51,0,0,1,.34-.48L243.3-86.66a.46.46,0,0,1,.46.06.46.46,0,0,1,.21.41V8.45a.47.47,0,0,1-.21.42Zm0,0" transform="translate(153.37 143.68)"/><path class="cls-1" d="M80.93-96.91H41.81A59.5,59.5,0,0,0-7.54-123.41h-97.32v-3.7a15.59,15.59,0,0,0-15.57-15.57H-136.8a15.59,15.59,0,0,0-15.57,15.57v72.66A15.59,15.59,0,0,0-136.8-38.88h16.37a15.59,15.59,0,0,0,15.57-15.57v-3.7h19.34V45.13a6,6,0,0,0,6,6,6,6,0,0,0,6-6V-78.64a6.3,6.3,0,0,1,6.29-6.29H80.93a6,6,0,0,0,6-6,6,6,0,0,0-6-6ZM-116.85-54.45a3.59,3.59,0,0,1-3.58,3.59H-136.8a3.59,3.59,0,0,1-3.59-3.59v-72.66a3.59,3.59,0,0,1,3.59-3.59h16.37a3.59,3.59,0,0,1,3.58,3.59Zm49.6-42.46A18.3,18.3,0,0,0-85.53-78.64v8.49h-19.33v-41.27H-7.54a47.46,47.46,0,0,1,34,14.5Zm0,0" transform="translate(153.37 143.68)"/></svg>