<svg id="Layer_1" data-name="Layer 1" xmlns="http://www.w3.org/2000/svg" viewBox="0 0 298.27 411.6"><defs><style>.cls-1{fill:none;stroke:#000;stroke-miterlimit:10;stroke-width:2px;}</style></defs><title>008-wedding-dress</title><path class="cls-1" d="M199.93,260.77a448.52,448.52,0,0,0-9.48-79C178.29,123.83,157.19,81.35,127.75,55.5A83.55,83.55,0,0,0,72.52,35H31.09A83.55,83.55,0,0,0-24.15,55.5C-53.59,81.34-74.7,123.83-86.86,181.78a452.15,452.15,0,0,0-9.46,78.3c0,.39,0,.63,0,.7a6.13,6.13,0,0,0,.44,2.35,6.17,6.17,0,0,0,1.31,2,6.07,6.07,0,0,0,4.32,1.8H193.86a6.07,6.07,0,0,0,6.07-6.14ZM-74.93,184.05c14.47-68.77,40-102.9,58.79-119.42A71.43,71.43,0,0,1,31.09,47.15H72.52a71.43,71.43,0,0,1,47.22,17.48c34.12,29.94,50.8,81.47,58.79,119.42,1.95,9.24,3.48,18.15,4.7,26.42a28.89,28.89,0,0,1-7-3.54c-4.51-2.82-10.14-6.34-20.54-6.34s-16,3.52-20.54,6.34c-4,2.51-7.18,4.5-14.1,4.5s-10.09-2-14.1-4.5c-4.52-2.82-10.14-6.34-20.54-6.34s-16,3.52-20.54,6.34c-4,2.51-7.18,4.5-14.09,4.5s-10.08-2-14.09-4.5c-4.52-2.82-10.14-6.34-20.54-6.34s-16,3.52-20.53,6.34c-4,2.51-7.18,4.5-14.09,4.5s-10.08-2-14.09-4.5c-4.52-2.82-10.14-6.34-20.54-6.34s-16,3.52-20.54,6.34a28.84,28.84,0,0,1-7,3.54c1.22-8.27,2.75-17.18,4.7-26.42ZM-84,254.78c.3-6.46,1-17.64,2.66-31.56,7.07-1,11.47-3.7,15.13-6,4-2.51,7.18-4.5,14.1-4.5s10.08,2,14.09,4.5c4.52,2.83,10.14,6.34,20.54,6.34s16-3.52,20.53-6.34c4-2.51,7.18-4.5,14.09-4.5s10.08,2,14.09,4.5c4.51,2.83,10.14,6.34,20.54,6.34s16-3.52,20.54-6.34c4-2.51,7.18-4.5,14.09-4.5s10.09,2,14.1,4.5c4.52,2.83,10.13,6.34,20.54,6.34s16-3.52,20.54-6.34c4-2.51,7.18-4.5,14.1-4.5s10.09,2,14.1,4.5c3.66,2.29,8.05,5,15.13,6,1.66,13.93,2.37,25.1,2.66,31.56Zm0,0" transform="translate(97.33 143.68)"/><path class="cls-1" d="M129.41-34.08c-.06-.82-.15-1.64-.27-2.45V-77.46a26.28,26.28,0,0,0-26.25-26.25H88.81a12.65,12.65,0,0,1-12.63-12.63v-10.48a15.87,15.87,0,0,0-15.85-15.85H41.19a15.87,15.87,0,0,0-15.85,15.85v10.48a12.65,12.65,0,0,1-12.63,12.63H.7A26.28,26.28,0,0,0-25.55-77.46v40.94c-.11.81-.21,1.62-.26,2.45-.15,2.1-.49,7,11.14,55.44a6.08,6.08,0,0,0,7.32,4.49,6.08,6.08,0,0,0,4.49-7.33C-13.16-24.31-13.76-31.94-13.7-33.24c0-.65.12-1.29.22-1.93a0,0,0,0,0,0,0A23.88,23.88,0,0,1,6.08-54.93h.08c.65-.1,1.29-.18,2-.23a24,24,0,0,1,8.31.82,23.6,23.6,0,0,1,14,10.89A24.24,24.24,0,0,0,42-33.34a23.75,23.75,0,0,0,9.15,1.84h1.25a24.12,24.12,0,0,0,20.73-12A23.63,23.63,0,0,1,95.48-55.18q1,.08,2,.23h.08a23.88,23.88,0,0,1,19.56,19.75v0c.09.62.17,1.25.21,1.89.06,1.32-.55,9-10.89,52a6.07,6.07,0,0,0,4.48,7.32,6.17,6.17,0,0,0,1.42.17,6.07,6.07,0,0,0,5.89-4.65C129.9-27,129.56-32,129.41-34.08ZM117-58.68a35.82,35.82,0,0,0-14.8-7.67l-.28-.07-1.08-.24-.53-.1-.9-.16L98.59-67l-.67-.09q-.76-.09-1.54-.15A35.7,35.7,0,0,0,62.67-49.59a11.93,11.93,0,0,1-10.24,5.94H51.17a11.93,11.93,0,0,1-10.24-5.94c-.42-.72-.87-1.43-1.33-2.11-.16-.23-.33-.45-.49-.67-.32-.45-.63-.9-1-1.32-.2-.26-.41-.5-.62-.75s-.62-.76-1-1.12-.47-.5-.71-.75-.64-.67-1-1L34.11-58c-.34-.31-.67-.61-1-.91l-.82-.67c-.35-.28-.7-.56-1.07-.82L30.34-61l-1.12-.75-.89-.55L27.15-63l-.92-.49c-.41-.21-.82-.4-1.24-.59l-.93-.42c-.43-.18-.87-.35-1.3-.52l-.93-.35c-.46-.16-.93-.3-1.39-.45l-.91-.27c-.5-.14-1-.25-1.51-.37-.28-.06-.56-.14-.84-.19-.58-.12-1.16-.21-1.75-.3l-.64-.11A36,36,0,0,0,10-67.38h-.3c-.82,0-1.64,0-2.46.1-.52,0-1,.09-1.54.15L5-67l-.83.12-.9.16-.54.11-1.08.24-.28.07a35.79,35.79,0,0,0-14.81,7.67V-77.46h0A14.13,14.13,0,0,1,.7-91.57h12a24.8,24.8,0,0,0,24.77-24.77v-10.48a3.71,3.71,0,0,1,3.71-3.71H60.32A3.71,3.71,0,0,1,64-126.83v10.48A24.8,24.8,0,0,0,88.81-91.57H102.9A14.13,14.13,0,0,1,117-77.46Zm0,0" transform="translate(97.33 143.68)"/></svg>