<svg id="Layer_1" data-name="Layer 1" xmlns="http://www.w3.org/2000/svg" viewBox="0 0 409.74 411.6"><defs><style>.cls-1{fill:none;stroke:#231f20;stroke-miterlimit:10;stroke-width:2px;}</style></defs><title>009-calendar-1</title><path class="cls-1" d="M229.66-103.91H207.3V-119a24,24,0,0,0-24-24,24,24,0,0,0-24,24v15.1H119.67V-119a24,24,0,0,0-24-24,24,24,0,0,0-24,24v15.1H32V-119a24,24,0,0,0-24-24,24,24,0,0,0-24,24v15.1H-55.59V-119a24,24,0,0,0-24-24,24,24,0,0,0-24,24v15.1h-22.35A26.11,26.11,0,0,0-152-77.83v53.59a6,6,0,0,0,6,6H249.75a6,6,0,0,0,6-6V-77.83a26.11,26.11,0,0,0-26.08-26.08ZM171.29-119a12,12,0,0,1,12-12,12,12,0,0,1,12,12V-75.8a12,12,0,0,1-12,12,12,12,0,0,1-12-12Zm-87.63,0a12,12,0,0,1,12-12,12,12,0,0,1,12,12V-75.8a12,12,0,0,1-12,12,12,12,0,0,1-12-12ZM-4-119a12,12,0,0,1,12-12,12,12,0,0,1,12,12V-75.8a12,12,0,0,1-12,12,12,12,0,0,1-12-12Zm-87.63,0a12,12,0,0,1,12-12,12,12,0,0,1,12,12V-75.8a12,12,0,0,1-12,12,12,12,0,0,1-12-12ZM243.77-30.23H-140V-77.83a14.13,14.13,0,0,1,14.11-14.11h22.35V-75.8a24,24,0,0,0,24,24,24,24,0,0,0,24-24V-91.95h39.65V-75.8a24,24,0,0,0,24,24,24,24,0,0,0,24-24V-91.95H71.69V-75.8a24,24,0,0,0,24,24,24,24,0,0,0,24-24V-91.95h39.65V-75.8a24,24,0,0,0,24,24,24,24,0,0,0,24-24V-91.95h22.35a14.13,14.13,0,0,1,14.11,14.11Zm0,0" transform="translate(153 144)"/><path class="cls-1" d="M249.75-2.38a6,6,0,0,0-6,6V240.52a14.13,14.13,0,0,1-14.11,14.11H-125.92A14.13,14.13,0,0,1-140,240.52V3.6a6,6,0,0,0-6-6,6,6,0,0,0-6,6V240.52a26.11,26.11,0,0,0,26.08,26.08H229.66a26.11,26.11,0,0,0,26.08-26.08V3.6a6,6,0,0,0-6-6Zm0,0" transform="translate(153 144)"/><path class="cls-1" d="M-59.2,28.5h-42.14a13,13,0,0,0-13,13V83.63a13,13,0,0,0,13,13H-59.2a13,13,0,0,0,13-13V41.49a13,13,0,0,0-13-13Zm1,55.12a1,1,0,0,1-1,1h-42.14a1,1,0,0,1-1-1V41.49a1,1,0,0,1,1-1H-59.2a1,1,0,0,1,1,1Zm0,0" transform="translate(153 144)"/><path class="cls-1" d="M117,28.5H74.85a13,13,0,0,0-13,13V83.63a13,13,0,0,0,13,13H117a13,13,0,0,0,13-13V41.49a13,13,0,0,0-13-13Zm1,55.12a1,1,0,0,1-1,1H74.85a1,1,0,0,1-1-1V41.49a1,1,0,0,1,1-1H117a1,1,0,0,1,1,1Zm0,0" transform="translate(153 144)"/><path class="cls-1" d="M205.07,28.5H162.94a13,13,0,0,0-13,13V83.63a13,13,0,0,0,13,13h42.14a13,13,0,0,0,13-13V41.49a13,13,0,0,0-13-13Zm1,55.12a1,1,0,0,1-1,1H162.94a1,1,0,0,1-1-1V41.49a1,1,0,0,1,1-1h42.14a1,1,0,0,1,1,1Zm0,0" transform="translate(153 144)"/><path class="cls-1" d="M-59.2,128.49h-42.14a13,13,0,0,0-13,13v42.14a13,13,0,0,0,13,13H-59.2a13,13,0,0,0,13-13V141.48a13,13,0,0,0-13-13Zm1,55.12a1,1,0,0,1-1,1h-42.14a1,1,0,0,1-1-1V141.48a1,1,0,0,1,1-1H-59.2a1,1,0,0,1,1,1Zm0,0" transform="translate(153 144)"/><path class="cls-1" d="M28.89,128.49H-13.24a13,13,0,0,0-13,13v42.14a13,13,0,0,0,13,13H28.89a13,13,0,0,0,13-13V141.48a13,13,0,0,0-13-13Zm1,55.12a1,1,0,0,1-1,1H-13.24a1,1,0,0,1-1-1V141.48a1,1,0,0,1,1-1H28.89a1,1,0,0,1,1,1Zm0,0" transform="translate(153 144)"/><path class="cls-1" d="M117,128.49H74.85a13,13,0,0,0-13,13v42.14a13,13,0,0,0,13,13H117a13,13,0,0,0,13-13V141.48a13,13,0,0,0-13-13Zm1,55.12a1,1,0,0,1-1,1H74.85a1,1,0,0,1-1-1V141.48a1,1,0,0,1,1-1H117a1,1,0,0,1,1,1Zm0,0" transform="translate(153 144)"/><path class="cls-1" d="M197,134.73a22.4,22.4,0,0,0-13,4.14,22.54,22.54,0,0,0-35.56,18.38c0,24.58,32,37.39,33.38,37.93a6,6,0,0,0,2.18.41,5.92,5.92,0,0,0,2.18-.41c1.36-.53,33.38-13.34,33.38-37.93A22.55,22.55,0,0,0,197,134.73ZM184,183.1c-8.18-3.77-23.59-13.45-23.59-25.84a10.56,10.56,0,0,1,18.88-6.5,6,6,0,0,0,9.43,0,10.56,10.56,0,0,1,18.88,6.5c0,12.4-15.42,22.07-23.59,25.84Zm0,0" transform="translate(153 144)"/><path class="cls-1" d="M20.86,34.52a22.39,22.39,0,0,0-13,4.14,22.39,22.39,0,0,0-13-4.14A22.55,22.55,0,0,0-27.74,57c0,24.59,32,37.39,33.38,37.93a6,6,0,0,0,2.18.41A5.93,5.93,0,0,0,10,95C11.37,94.44,43.38,81.63,43.38,57A22.55,22.55,0,0,0,20.86,34.52Zm-13,48.35C1.68,79.94-15.77,70.48-15.77,57A10.57,10.57,0,0,1-5.21,46.49a10.5,10.5,0,0,1,8.32,4.06,6,6,0,0,0,9.43,0A10.56,10.56,0,0,1,31.41,57c0,12.38-15.37,22-23.55,25.82Zm0,0" transform="translate(153 144)"/></svg>