<svg id="Layer_1" data-name="Layer 1" xmlns="http://www.w3.org/2000/svg" viewBox="0 0 411.6 411.59"><defs><style>.cls-1{fill:none;stroke:#231f20;stroke-miterlimit:10;stroke-width:2px;}</style></defs><title>010-gender-symbol</title><path class="cls-1" d="M249.44,230.7l-18-18,10.18-10.18A21,21,0,1,0,211.9,172.8L201.72,183l-23.21-23.21a115.79,115.79,0,0,0,19.42-50.87,6,6,0,0,0-11.9-1.53,103.63,103.63,0,0,1-20.16,49.4,6,6,0,0,0,.54,7.87l31.06,31.06a6,6,0,0,0,8.48,0l14.42-14.42a9,9,0,0,1,12.77,12.77l-14.42,14.42a6,6,0,0,0,0,8.49L241,239.19A9,9,0,0,1,228.19,252L206,229.73a6,6,0,0,0-8.48,0l-14.42,14.42a9,9,0,0,1-12.77-12.76L184.71,217a6,6,0,0,0,0-8.49l-31.06-31.06a6,6,0,0,0-7.87-.54C104.68,208,46.16,204,9.66,167.52A103.29,103.29,0,0,1-7.46,145l1,.24,1.27.32,1.66.38,1.13.25,1.76.36,1.06.2,1.8.32,1.07.18,1.78.28,1.19.16,1.66.22,1.7.19,1.16.12c1,.09,2,.18,2.94.24l.38,0q1.31.09,2.62.15h.13c1.76,2.13,3.63,4.19,5.57,6.14A85.79,85.79,0,1,0,135.36,26.06l0,0a84.66,84.66,0,0,0-34-15.73l-.19-.05A85.72,85.72,0,0,0-2.24,102.64Q-4,102-5.71,101.34l-.28-.11c-2.16-.88-4.3-1.87-6.39-3l-.06,0c-1-.51-2-1.06-2.91-1.62l-.37-.22c-1-.59-2-1.19-2.93-1.83l-.17-.12c-.63-.42-1.25-.86-1.87-1.3A103.66,103.66,0,0,1,85.1-9.68,103.63,103.63,0,0,1,186,80.83,6,6,0,0,0,192,86.07a6.27,6.27,0,0,0,.77-.05,6,6,0,0,0,5.19-6.71A115.66,115.66,0,0,0,128.5-12.48,114.76,114.76,0,0,0,103.85-49,116,116,0,0,0-43.76-62.5l-38.63-38.63a20.87,20.87,0,0,0,13.24-7.21,20.89,20.89,0,0,0,5-15.31A20.89,20.89,0,0,0-71.51-138a20.91,20.91,0,0,0-15.31-5l-42.3,3.37a21.25,21.25,0,0,0-15.3,6.14,21.1,21.1,0,0,0-6.14,15.3l-3.37,42.3a20.9,20.9,0,0,0,5,15.31,20.89,20.89,0,0,0,14.33,7.32,21.06,21.06,0,0,0,22.52-18.2l38.63,38.63A116,116,0,0,0-92.2,13.32a6,6,0,0,0,4.9,6.92,6,6,0,0,0,6.93-4.91,103.78,103.78,0,0,1,19.51-45.1,6,6,0,0,0-.54-7.87L-112.8-89a6,6,0,0,0-6.32-1.39A6,6,0,0,0-123-85.27L-124-73.44a9,9,0,0,1-9.72,8.28,9,9,0,0,1-6.15-3.14A9,9,0,0,1-142-74.87l3.4-42.62a6.26,6.26,0,0,0,0-.71,8.94,8.94,0,0,1,2.62-6.73,8.92,8.92,0,0,1,6.73-2.62,6.16,6.16,0,0,0,.71,0l42.63-3.4a9,9,0,0,1,6.57,2.13,9,9,0,0,1,3.14,6.16,9,9,0,0,1-2.13,6.57A9,9,0,0,1-84.43-113l-11.84.94a6,6,0,0,0-5.15,3.91A6,6,0,0,0-100-101.8L-48.63-50.4a6,6,0,0,0,7.87.54C.34-81,58.86-77,95.36-40.5a103.26,103.26,0,0,1,17.12,22.55,116,116,0,0,0-24.31-3.65c-1.76-2.14-3.62-4.19-5.57-6.14a85.89,85.89,0,0,0-121.33,0A85.21,85.21,0,0,0-63.82,32.93,85.23,85.23,0,0,0-38.73,93.59a85.62,85.62,0,0,0,10.23,8.74l.37.27,1.43,1,.75.51,1,.69,1.07.68.68.43,1.37.83.31.18a84.1,84.1,0,0,0,15,6.94l.09,0,1.8.61.39.12,1.59.49.75.21,1.29.36c.7.19,1.4.37,2.1.54l.16,0q1,.25,2.05.47l.14,0h.07A85.79,85.79,0,0,0,82.6,93.59a85.48,85.48,0,0,0,24.67-69.21,72.49,72.49,0,0,1,18.45,9.47,102.92,102.92,0,0,1-30.36,72.51A103.55,103.55,0,0,1,20,136.71h-.07q-3.5-.07-7-.36l-.17,0-2-.2-.49-.05-1.74-.21-.75-.1-1.52-.22-1-.15L4,135.18,2.9,135l-1.26-.24L.5,134.5l-1.23-.26-1.1-.25-1.28-.3-.93-.24-1.45-.38-.49-.14a102.76,102.76,0,0,1-10.68-3.6h0a103.26,103.26,0,0,1-34.82-23,103.84,103.84,0,0,1-30-64.61A6,6,0,0,0-88,36.27a6,6,0,0,0-5.48,6.49A115.85,115.85,0,0,0-60,114.85a115.23,115.23,0,0,0,36.5,24.66A115.69,115.69,0,0,0,75.6,209.64a115.88,115.88,0,0,0,73.17-20.12L172,212.72,161.8,222.9a21,21,0,0,0,29.74,29.74l10.18-10.18,18,18a21,21,0,1,0,29.74-29.74ZM-32.19,83.07A73.26,73.26,0,0,1-51.82,32.93,73.29,73.29,0,0,1-30.24-19.25,73.87,73.87,0,0,1,72.08-21.18,115.64,115.64,0,0,0-32.19,83.07Zm106.3,2a73.72,73.72,0,0,1-63.85,20.64A73.7,73.7,0,0,1,94.76,21.26,73.55,73.55,0,0,1,74.11,85.11Zm29.74,29.74a114.61,114.61,0,0,0,33.36-70.9A73.77,73.77,0,0,1,32.95,148.2a115.3,115.3,0,0,0,70.9-33.36Zm0,0" transform="translate(155 144)"/></svg>