<svg id="Layer_1" data-name="Layer 1" xmlns="http://www.w3.org/2000/svg" viewBox="0 0 411.6 322.44"><defs><style>.cls-1{fill:none;stroke:#231f20;stroke-miterlimit:10;stroke-width:2px;}</style></defs><title>011-wedding-car</title><path class="cls-1" d="M-6.53,123.87H-18.82a6,6,0,0,0-6,6,6,6,0,0,0,6,6H-6.53a6,6,0,0,0,6-6,6,6,0,0,0-6-6Zm0,0" transform="translate(154 99)"/><path class="cls-1" d="M243.74,151.89H240.3V134.74a25.32,25.32,0,0,0-22.07-25.07l-69.35-8.84L121.67,53.89a14,14,0,0,0-25.3,11.52l12,35h-110L-9.56,49.09a19.14,19.14,0,0,0-19-16.32A19.27,19.27,0,0,0-47.82,52V77.78l-70.6,7.72a21.38,21.38,0,0,0-19.08,21.28v44h-1.74c-.44,0-.88,0-1.32.07l-.61.08-.66.1c-.27.05-.52.12-.78.18l-.45.12c-.29.08-.57.18-.84.28l-.23.08-.13.06-.73.32-.2.08-.17.09c-.29.14-.57.3-.85.46l-.37.23c-.26.16-.5.33-.75.51l-.22.15-.28.22-.24.2c-.24.19-.47.4-.7.62l-.2.19a14,14,0,0,0-1.68,2c-.24.36-.48.74-.69,1.14a13.75,13.75,0,0,0-1,2.47c-.13.39-.22.79-.31,1.19,0,.12,0,.24-.07.36-.06.3-.11.6-.14.91,0,.13,0,.25,0,.38,0,.42-.06.84-.06,1.26v8.76a14.3,14.3,0,0,0,14.28,14.28h26.25a44.41,44.41,0,0,0,12,21.76,44.54,44.54,0,0,0,31.59,13.06,44.51,44.51,0,0,0,31.59-13.06,44.37,44.37,0,0,0,12-21.76H124.78a44.64,44.64,0,0,0,87.1,0h31.26a13.47,13.47,0,0,0,13.46-13.46v-9.42a12.88,12.88,0,0,0-12.86-12.86Zm-136-90.35a1.95,1.95,0,0,1,1.84-2.58,2,2,0,0,1,1.69,1l23.47,40.48H121ZM-35.8,52h0a7.23,7.23,0,0,1,7.22-7.22,7.18,7.18,0,0,1,7.14,6.13l7.61,49.48h-7a5.47,5.47,0,0,1-5.47-5.47c0-.37,0-.74,0-1.11,0-.13,0-.26,0-.39s0-.45-.07-.68,0-.32-.07-.49-.06-.35-.09-.52c-.07-.41-.16-.81-.27-1.21l0-.17c-.07-.26-.15-.52-.23-.77l-.05-.16a17.7,17.7,0,0,0-1.45-3.24l0,0a17.58,17.58,0,0,0-2-2.83l-.16-.17-.49-.52-.25-.25-.49-.46,0,0-.27-.23c-.25-.22-.52-.43-.78-.64l-.46-.35-.41-.28-.51-.34-.38-.23-.72-.4-.16-.09ZM-113.53,175.6h-25.19a2.26,2.26,0,0,1-2.26-2.26v-8.76a1.72,1.72,0,0,1,.07-.45c0-.06,0-.11.05-.17l0-.11a1.64,1.64,0,0,1,.33-.48l0,0,0,0,.06-.05.09-.07A1.69,1.69,0,0,1-140,163l.14-.06a1.89,1.89,0,0,1,.31-.09l.29,0H-111a44.56,44.56,0,0,0-2.52,12.77Zm67.7,25.28a32.68,32.68,0,0,1-46.17,0A32.67,32.67,0,0,1-100.62,170l0-.11c.11-.43.23-.87.35-1.3.05-.17.1-.34.16-.52s.18-.59.28-.88l.21-.61c.09-.26.19-.52.29-.78l.25-.63c.1-.25.22-.5.33-.76s.18-.41.28-.61.26-.53.39-.79l.14-.27.21-.4c.16-.3.33-.6.5-.9l.35-.59.11-.18c.13-.22.26-.43.4-.64l.48-.72c.16-.23.31-.45.47-.68s.39-.53.59-.79l.45-.58c.24-.3.49-.59.74-.87l.39-.46q.59-.65,1.21-1.27a32.44,32.44,0,0,1,23.09-9.57q1.64,0,3.24.16a32.41,32.41,0,0,1,19.84,9.4l.17.18c.35.36.69.72,1,1.09l.45.53c.23.26.46.53.68.8l.49.63.55.74.5.72.45.67c.18.27.34.54.51.82l.35.59c.18.31.35.62.52.94l.24.47c.19.36.37.73.54,1.09l.12.26a32.7,32.7,0,0,1-6.6,36.66Zm237.25,0a32.65,32.65,0,0,1-52.78-36.65l.13-.28c.17-.36.34-.72.53-1.07l.26-.49c.16-.3.33-.61.51-.91s.24-.41.37-.62l.49-.79.48-.71.48-.68c.19-.27.39-.52.59-.78l.45-.58c.24-.3.49-.58.74-.87L144,156q.59-.65,1.21-1.27t1.21-1.15l.17-.15c.36-.32.72-.64,1.09-.94l0,0a32.69,32.69,0,0,1,41.15,0l0,0c.37.3.73.61,1.08.93l.19.16c.4.36.8.74,1.19,1.13l0,0h0c.44.44.86.89,1.28,1.36l.29.34c.32.38.65.76,1,1.16l.23.29c.34.44.67.89,1,1.35l.11.16c.36.53.72,1.07,1,1.63l0,0,0,.07c.09.14.16.28.24.43s.34.59.5.89l.25.47c.14.29.29.58.43.86l.23.5c.13.29.26.59.38.89l.2.48c.17.43.33.85.48,1.29.07.2.13.4.2.6s.17.51.25.77l.19.66c.07.25.14.5.2.75s.11.42.16.64l.19.88.1.51a32.62,32.62,0,0,1-9,29.17Zm13.24-49.07c-.27-.37-.54-.73-.82-1.09l-.47-.6-.72-.9-.73-.84-.59-.67c-.44-.48-.88-1-1.34-1.41l-.08-.09-.38-.36c-.42-.41-.83-.81-1.26-1.2l-.37-.32c-.45-.4-.9-.79-1.36-1.17l-.12-.1a44.68,44.68,0,0,0-56.21,0l-.08.07c-.5.4-1,.82-1.46,1.25l-.27.24c-.56.51-1.11,1-1.65,1.57s-1,1.05-1.52,1.59l-.47.55c-.32.37-.65.73-1,1.11l-.5.64c-.29.36-.57.72-.84,1.09l-.46.64c-.28.39-.55.77-.81,1.16l-.38.58c-.28.43-.55.86-.81,1.3l-.28.47c-.29.5-.57,1-.84,1.51l-.16.3q-.46.89-.88,1.79l0,.06a44.49,44.49,0,0,0-4.09,16.6h-148A44.45,44.45,0,0,0-28.39,159l0,0c-.28-.61-.58-1.21-.89-1.81l-.15-.28c-.27-.52-.56-1-.85-1.53l-.26-.45q-.4-.67-.83-1.32l-.36-.56c-.27-.4-.55-.79-.83-1.19l-.44-.61q-.42-.56-.86-1.11l-.49-.62c-.32-.38-.64-.76-1-1.14l-.46-.52c-.49-.54-1-1.07-1.52-1.59a44.35,44.35,0,0,0-31.59-13.08,44.38,44.38,0,0,0-31.59,13.08q-.78.78-1.52,1.6l-.46.53c-.33.37-.65.75-1,1.13l-.5.62-.58.73h-21v-44a9.37,9.37,0,0,1,8.37-9.33l72.75-8a5.53,5.53,0,0,1,1.4,0l.13,0a5.48,5.48,0,0,1,2.55,1.17l.06,0a5.48,5.48,0,0,1,.62.62l.05.07a5.44,5.44,0,0,1,.9,1.55v.05a5.68,5.68,0,0,1,.24.86,1,1,0,0,0,0,.1,5.38,5.38,0,0,1,.08.91,17.51,17.51,0,0,0,17.49,17.49H144.79l71.92,9.17a13.28,13.28,0,0,1,11.57,13.15v17.14H204.71l-.05-.08Zm38.48,23.79h-30.2c-.07-1.4-.21-2.79-.41-4.18v-.07c-.09-.64-.2-1.28-.32-1.92,0-.18-.07-.36-.11-.55-.09-.43-.18-.86-.28-1.28-.05-.23-.11-.47-.16-.71-.14-.54-.28-1.07-.43-1.61-.08-.27-.17-.55-.25-.82s-.12-.38-.18-.57h33a.84.84,0,0,1,.84.84v9.42a1.44,1.44,0,0,1-1.44,1.44Zm0,0" transform="translate(154 99)"/><path class="cls-1" d="M168.33,156.32a21.47,21.47,0,1,0,21.47,21.47,21.49,21.49,0,0,0-21.47-21.47Zm0,30.92a9.45,9.45,0,1,1,9.45-9.45,9.46,9.46,0,0,1-9.45,9.45Zm0,0" transform="translate(154 99)"/><path class="cls-1" d="M-68.91,156.32a21.49,21.49,0,0,0-21.47,21.47,21.5,21.5,0,0,0,21.47,21.47,21.5,21.5,0,0,0,21.47-21.47,21.5,21.5,0,0,0-21.47-21.47Zm0,30.92a9.46,9.46,0,0,1-9.45-9.45,9.46,9.46,0,0,1,9.45-9.45,9.46,9.46,0,0,1,9.45,9.45,9.46,9.46,0,0,1-9.45,9.45Zm0,0" transform="translate(154 99)"/><path class="cls-1" d="M122.39-83.52A50.34,50.34,0,0,0,86.94-98,50.27,50.27,0,0,0,51.8-83.82,50.26,50.26,0,0,0,16.66-98,50.32,50.32,0,0,0-18.78-83.52,50.3,50.3,0,0,0-33.94-48.44a6,6,0,0,0,5.88,6.13h.13a6,6,0,0,0,6-5.89A38.79,38.79,0,0,1,16.66-86,38.39,38.39,0,0,1,47.07-71.14a6,6,0,0,0,4.74,2.3,6,6,0,0,0,4.73-2.3A38.39,38.39,0,0,1,86.94-86a38.79,38.79,0,0,1,38.58,37.79,6,6,0,0,0,6,5.89h.12a6,6,0,0,0,5.89-6.13,50.33,50.33,0,0,0-15.16-35.08Zm0,0" transform="translate(154 99)"/><path class="cls-1" d="M127.74-25.75a6,6,0,0,0-8,2.77c-15.61,32-57.8,51.93-67.9,56.32C41.7,29-.46,9.13-16.1-23a6,6,0,0,0-8-2.77,6,6,0,0,0-2.77,8C-18.55-.55-3.09,15.3,19,29.42a194.73,194.73,0,0,0,30.58,16,6,6,0,0,0,4.38,0,195.09,195.09,0,0,0,30.58-16c22.12-14.12,37.57-30,45.93-47.14a6,6,0,0,0-2.77-8Zm0,0" transform="translate(154 99)"/></svg>