<svg id="Layer_1" data-name="Layer 1" xmlns="http://www.w3.org/2000/svg" viewBox="0 0 337.81 411.6"><defs><style>.cls-1{fill:none;stroke:#231f20;stroke-miterlimit:10;stroke-width:2px;}</style></defs><title>012-bell</title><path class="cls-1" d="M139.12-85.6a27.77,27.77,0,0,0-20.63-8.64h0c-19.16,0-40.06,17-48.86,25a15.37,15.37,0,0,0-8.31-2.44H57.91V-137a6,6,0,0,0-6-6,6,6,0,0,0-6,6v65.32H43.34a15.37,15.37,0,0,0-8.81,2.77c-8.62-7.91-29.8-25.35-49.21-25.35h0A27.78,27.78,0,0,0-35.32-85.6c-20.42,21-20.42,65.43,0,86.44A27.78,27.78,0,0,0-14.68,9.47h0C4.75,9.47,25.95-8,34.54-15.88a15.36,15.36,0,0,0,8.8,2.77h18a15.33,15.33,0,0,0,8.31-2.45c8.84,8.06,29.72,25,48.86,25h0A27.79,27.79,0,0,0,139.12.83c20.43-21,20.43-65.43,0-86.43ZM-14.68-2.54h0a16,16,0,0,1-12-5c-15.83-16.29-15.83-53.41,0-69.69a16,16,0,0,1,12-5h0c14.94,0,34.39,15.7,42.75,23.71,0,.16,0,.31-.06.47s0,.29,0,.43c0,.47-.07.94-.07,1.41v27.65c0,.47,0,.94.07,1.41,0,.14,0,.28,0,.43s0,.32.06.47C19.76-18.27.32-2.54-14.68-2.54Zm79.44-26a3.58,3.58,0,0,1-.06.62s0,.09,0,.14a3.26,3.26,0,0,1-.17.55l-.06.13a3.44,3.44,0,0,1-3.12,2h-18a3.44,3.44,0,0,1-3.11-2,3.52,3.52,0,0,1-.23-.67l0,0a3.33,3.33,0,0,1-.08-.74V-56.21a3.32,3.32,0,0,1,.08-.74l0,0a3.56,3.56,0,0,1,.23-.68,3.45,3.45,0,0,1,3.11-2h18a3.44,3.44,0,0,1,3.12,2,1.34,1.34,0,0,1,.06.13,3.41,3.41,0,0,1,.17.55s0,.09,0,.14a3.56,3.56,0,0,1,.06.62Zm65.75,21a15.94,15.94,0,0,1-12,5h0c-14.52,0-33.32-14.84-42-23,0-.12,0-.25.05-.37.06-.36.13-.73.16-1.1a15.2,15.2,0,0,0,.08-1.53V-56.21c0-.51,0-1-.08-1.53s-.1-.72-.16-1.08c0-.13,0-.27-.06-.4,8.68-8.16,27.49-23,42-23h0a16,16,0,0,1,12,5c15.83,16.28,15.83,53.41,0,69.69Zm0,0" transform="translate(117 144)"/><path class="cls-1" d="M185,153.09a48,48,0,0,1-27.8-43.43V68.25a104.32,104.32,0,0,0-10.08-45,6,6,0,0,0-10.86,5.14,92.4,92.4,0,0,1,8.92,39.86v41.41A60,60,0,0,0,180,164a48,48,0,0,1,27.71,40.55H-103.9A48,48,0,0,1-76.18,164,60,60,0,0,0-41.4,109.66V68.25a92.49,92.49,0,0,1,8.87-39.75,6,6,0,0,0-2.87-8,6,6,0,0,0-8,2.87,104.38,104.38,0,0,0-10,44.88v41.42a48,48,0,0,1-27.8,43.43A60,60,0,0,0-116,207.44v3.12a6,6,0,0,0,6,6H-9.61a62.83,62.83,0,0,0,123,0H213.8a6,6,0,0,0,6-6v-3.12A60,60,0,0,0,185,153.09ZM51.91,254.59a50.84,50.84,0,0,1-49.2-38H101.1a50.85,50.85,0,0,1-49.2,38Zm0,0" transform="translate(117 144)"/></svg>