<svg id="Layer_1" data-name="Layer 1" xmlns="http://www.w3.org/2000/svg" viewBox="0 0 404.28 411.6"><defs><style>.cls-1{fill:none;stroke:#231f20;stroke-miterlimit:10;stroke-width:2px;}</style></defs><title>013-money</title><path class="cls-1" d="M50.78,54.16V38.24c6.06.45,8.14,3.35,10.67,3.35,3.34,0,4.79-4.16,4.79-6.24,0-5.25-9.59-7-15.46-7.14V25.86c0-1.18-1.54-2.26-3.07-2.26-1.72,0-3.07,1.08-3.07,2.26v2.53c-9,1.18-17.55,6.15-17.55,17.63S36.4,61.13,44.63,64.2v18c-8-.9-10.67-6.78-14.11-6.78-2.81,0-5.07,3.8-5.07,6.33,0,5.07,8.23,10.95,19.17,11.22v2.53c0,1.17,1.36,2.26,3.07,2.26,1.54,0,3.07-1.09,3.07-2.26v-2.8c10.13-1.63,17.09-8.05,17.09-19.17,0-12.3-9-16.37-17.09-19.36Zm-5.43-2c-4.16-1.63-7.23-3.35-7.23-7.32,0-3.44,2.71-5.61,7.23-6.33Zm4.7,29.93V66.37c3.89,1.72,6.78,3.89,6.78,8.32,0,4.25-2.8,6.6-6.78,7.41Zm0,0" transform="translate(150 144)"/><path class="cls-1" d="M245.12-9.05a5.8,5.8,0,0,0-1-1,29,29,0,0,0-6.29-4.54l-1.49-1.07V-32.23A13.36,13.36,0,0,0,223-45.58H-118.76a13.36,13.36,0,0,0-13.35,13.35v16.62l-1.49,1.07a29.14,29.14,0,0,0-6.3,4.53,5.85,5.85,0,0,0-1,1A28.85,28.85,0,0,0-149,11.12V237.51a29,29,0,0,0,9,21l.24.25c.31.29.62.57.94.84l.07.06c.31.27.63.52,1,.79l.07.06.91.67.2.14.42.28,0,0,.48.32.19.13.42.25.12.07.41.25.23.13.41.23.2.1.33.18.29.15.41.2.21.11.28.14.35.16.4.17.28.12.2.08.42.17.35.13.37.14.14.06.48.16.36.11.36.12.11,0,.54.15.33.09.39.11.07,0,.53.13.21,0,.21,0,.37.08h0l.58.1.25,0,.33.06.21,0h0l.67.09.19,0,.18,0,.36,0h0l.79.06.21,0,.21,0h.22c.48,0,1,0,1.46,0H224.18c.49,0,1,0,1.45,0h0l.25,0h.33l.85-.07h0l.35,0,.19,0,.2,0,.7-.09h0l.36-.06.19,0,.25,0,.56-.1h.05l.36-.08.23-.05.2,0,.54-.12.07,0,.39-.11.32-.08.08,0,.48-.14.11,0,.33-.11.39-.12.46-.16.16-.06.32-.12.37-.14.45-.18.19-.08.28-.12.39-.17.39-.18.27-.13.19-.1.42-.2.32-.16.34-.18.15-.08.44-.24.24-.14.89-.54.24-.15.89-.6.2-.15c.32-.23.64-.46.92-.68l.13-.1.91-.74.1-.09c.33-.28.65-.56,1-.86l.24-.25a29,29,0,0,0,9-21V11.12a28.91,28.91,0,0,0-8.16-20.17ZM-120.32-32.23a1.56,1.56,0,0,1,1.56-1.56H223a1.56,1.56,0,0,1,1.56,1.56V1l-17.1,15.23a5.89,5.89,0,0,0-5.41-3.57,23.94,23.94,0,0,1-23.91-23.91,5.89,5.89,0,0,0-5.89-5.89H-68a5.89,5.89,0,0,0-5.89,5.89A23.94,23.94,0,0,1-97.81,12.63a5.89,5.89,0,0,0-5.41,3.57L-120.32,1ZM18,124.23-91.91,26.28V23.93A35.78,35.78,0,0,0-62.6-5.38H166.87a35.79,35.79,0,0,0,29.31,29.32v2.35L86.23,124.23ZM73,136,58.17,149.22c-.21.19-.44.37-.66.54a9.12,9.12,0,0,1-11.41-.54L31.27,136Zm168.48,101.5a17.21,17.21,0,0,1-2.27,8.55L117.14,142.25a5.89,5.89,0,0,0-7.63,9L230.1,253.77l-.65.22-.19.06-.57.16-.26.07-.63.14-.19,0-.51.09-.32.06-.42.05-.45.06-.48,0h-.09l-.29,0-.87,0H-119.91l-.86,0-.43,0-.45,0-.45-.06-.39,0-.5-.09-.36-.06-.21,0-.61-.14-.24-.07-.57-.16-.2-.06-.65-.22L-7.27,153a5.9,5.9,0,0,0,.67-8.31,5.9,5.9,0,0,0-8.31-.67l-120,102.07a17.16,17.16,0,0,1-2.27-8.55V11.12a17.29,17.29,0,0,1,1.84-7.78L38.26,158A21,21,0,0,0,66,158L239.64,3.35a17.19,17.19,0,0,1,1.84,7.78Zm0,0" transform="translate(150 144)"/><path class="cls-1" d="M172.41-61.61,65-138.85a22,22,0,0,0-25.73,0L-65.86-63.25A5.89,5.89,0,0,0-67.21-55,5.89,5.89,0,0,0-59-53.68l105.13-75.6a10.24,10.24,0,0,1,12,0L165.52-52A5.86,5.86,0,0,0,169-50.94a5.89,5.89,0,0,0,4.79-2.45,5.89,5.89,0,0,0-1.34-8.22Zm0,0" transform="translate(150 144)"/></svg>