<svg id="Layer_1" data-name="Layer 1" xmlns="http://www.w3.org/2000/svg" viewBox="0 0 380.52 411.6"><defs><style>.cls-1{fill:none;stroke:#231f20;stroke-miterlimit:10;stroke-width:2px;}</style></defs><title>014-lock</title><path class="cls-1" d="M132-48.39a107.82,107.82,0,0,0-80.75,36,107.82,107.82,0,0,0-80.75-36A108.64,108.64,0,0,0-138,60.12c0,30.62,10,60.59,29.7,89.07C-92.73,171.7-71.08,193.32-44,213.47c45.93,34.11,91.11,52,93,52.72a6,6,0,0,0,4.4,0c1.9-.75,47.09-18.61,93-52.72,27.13-20.14,48.77-41.77,64.35-64.28,19.71-28.48,29.7-58.45,29.7-89.07A108.64,108.64,0,0,0,132-48.39Zm69,190.6c-14.79,21.41-35.47,42.07-61.48,61.41A446.85,446.85,0,0,1,51.26,254a445.91,445.91,0,0,1-88-50.26c-26.07-19.36-46.8-40-61.62-61.46-18.28-26.43-27.56-54.09-27.56-82.2A96.55,96.55,0,0,1-29.49-36.32,95.93,95.93,0,0,1,46.5.74a6,6,0,0,0,4.75,2.32A6,6,0,0,0,56,.74a95.92,95.92,0,0,1,76-37.06,96.55,96.55,0,0,1,96.44,96.44c0,28.08-9.25,55.7-27.48,82.09Zm0,0" transform="translate(139 144)"/><path class="cls-1" d="M51.26,28.95a48.69,48.69,0,0,0-30.11,86.94v50.9a30.11,30.11,0,1,0,60.22,0v-50.9A48.69,48.69,0,0,0,51.26,28.95Zm20.66,78.91a6,6,0,0,0-2.62,5v54a18,18,0,0,1-36.08,0v-54a6,6,0,0,0-2.62-5,36.61,36.61,0,1,1,41.33,0Zm0,0" transform="translate(139 144)"/><path class="cls-1" d="M138.48-70.17A88.56,88.56,0,0,0,51.26-143,88.56,88.56,0,0,0-36-70.17a6,6,0,0,0,4.87,7,6,6,0,0,0,1.08.1,6,6,0,0,0,5.93-5,76.5,76.5,0,0,1,75.35-62.91A76.49,76.49,0,0,1,126.6-68a6,6,0,0,0,7,4.86,6,6,0,0,0,4.86-7Zm0,0" transform="translate(139 144)"/><path class="cls-1" d="M108.91-66.49a59.16,59.16,0,0,0-57.65-46.78A59.16,59.16,0,0,0-6.39-66.49a6,6,0,0,0,4.67,7.15A6,6,0,0,0,5.42-64,47,47,0,0,1,51.26-101.2,47,47,0,0,1,97.09-64a6,6,0,0,0,5.9,4.8,5.92,5.92,0,0,0,1.25-.13,6,6,0,0,0,4.67-7.15Zm0,0" transform="translate(139 144)"/></svg>