<svg id="Layer_1" data-name="Layer 1" xmlns="http://www.w3.org/2000/svg" viewBox="0 0 411.6 388.92"><defs><style>.cls-1{fill:none;stroke:#000;stroke-miterlimit:10;stroke-width:2px;}</style></defs><title>015-love-key</title><path class="cls-1" d="M.13-88.19c-12-12-31-12.1-44.26-.22C-59.94-74.19-60.67-54.92-58.5-41.25a4.13,4.13,0,0,1-1.16,3.59,4.12,4.12,0,0,1-3.6,1.16c-13.66-2.17-32.94-1.44-47.16,14.37-11.89,13.22-11.79,32.25.22,44.26,8.35,8.36,23.71,17.2,51.27,17.2a156.64,156.64,0,0,0,21.71-1.61A230.56,230.56,0,0,0,2.46,28.24a6,6,0,0,0,3.78-3.78,230.48,230.48,0,0,0,9.48-39.67c5.84-41.6-5.26-62.65-15.59-73ZM3.9-16.87A215.72,215.72,0,0,1-4.16,17.84,216.08,216.08,0,0,1-38.87,25.9c-36.72,5.15-54.46-3.8-62.88-12.21-7.45-7.45-7.35-19.41.22-27.84,4.9-5.44,13.42-11.31,27.41-11.31a57.07,57.07,0,0,1,9,.75,15.93,15.93,0,0,0,13.91-4.51,15.93,15.93,0,0,0,4.51-13.91c-3.09-19.46,4-30.54,10.57-36.41,8.42-7.57,20.39-7.67,27.84-.22C.1-71.34,9.05-53.59,3.9-16.87Zm0,0" transform="translate(154 132)"/><path class="cls-1" d="M226.27,211.36,41,26.05a258.22,258.22,0,0,0,7.8-35c6.57-44.52-2-80.13-24.87-103a64.63,64.63,0,0,0-46-19.05,64.61,64.61,0,0,0-46,19.05A64.62,64.62,0,0,0-87.16-65.16a64.61,64.61,0,0,0-46.78,19.05A64.61,64.61,0,0,0-153-.11a64.62,64.62,0,0,0,19.05,46c17.87,17.87,43.53,27,75.17,27A191.18,191.18,0,0,0-31,70.77,258.44,258.44,0,0,0,4,63L189.36,248.28a26.1,26.1,0,1,0,36.91-36.91ZM-125.51,37.45a53.18,53.18,0,0,1,0-75.11A52.76,52.76,0,0,1-88-53.23a54.75,54.75,0,0,1,6.56.4,6,6,0,0,0,4.94-1.7,6,6,0,0,0,1.7-4.94,52.82,52.82,0,0,1,15.16-44,53.16,53.16,0,0,1,75.11,0C40.75-78.2,41.13-39.21,37-11a247.53,247.53,0,0,1-8.32,36.34,6.23,6.23,0,0,0-.35,1.13c-2.59,8.3-5,14.52-6.21,17.61-14.92,6-102.62,38.33-147.62-6.67ZM217.84,239.84a14.18,14.18,0,0,1-20,0l-181-181c7.34-2.57,11.82-4.51,12.26-4.7a6,6,0,0,0,3.08-3.08c.19-.44,2.13-4.92,4.7-12.25l181,181a14.18,14.18,0,0,1,0,20Zm0,0" transform="translate(154 132)"/><path class="cls-1" d="M250.37,132.92a21.27,21.27,0,0,0-30.08,0l-15,15-11.84-11.83,15-15A21.27,21.27,0,0,0,178.37,91l-21,21a6,6,0,1,0,8.44,8.44l21-21a9.33,9.33,0,1,1,13.2,13.2l-19.2,19.2a6,6,0,0,0,0,8.44l20.28,20.28a6,6,0,0,0,8.44,0l19.2-19.2a9.33,9.33,0,1,1,13.2,13.2l-20.86,20.86a6,6,0,0,0,8.44,8.44L250.37,163a21.27,21.27,0,0,0,0-30.08Zm0,0" transform="translate(154 132)"/></svg>