<svg id="Layer_1" data-name="Layer 1" xmlns="http://www.w3.org/2000/svg" viewBox="0 0 411.6 395.2"><defs><style>.cls-1{fill:none;stroke:#231f20;stroke-miterlimit:10;stroke-width:2px;}</style></defs><title>016-gift</title><path class="cls-1" d="M217.68,43.36a6,6,0,0,0-6,6V240.83a6.37,6.37,0,0,1-6.37,6.36h-307a6.37,6.37,0,0,1-6.36-6.36V49.36a6,6,0,0,0-6-6,6,6,0,0,0-6,6V240.83a18.39,18.39,0,0,0,18.37,18.37h307a18.39,18.39,0,0,0,18.38-18.37V49.36a6,6,0,0,0-6-6Zm0,0" transform="translate(154 135)"/><path class="cls-1" d="M241.07-37.81H148.13l2-.85c28.31-12.59,48.48-30.44,54-47.75,2.91-9.19,4.24-26.59-19.47-39.91-14.77-8.3-30.3-9.88-46.16-4.68-26.25,8.6-48.77,34.42-64.54,57.63h0a38.56,38.56,0,0,0-22.14-7,38.54,38.54,0,0,0-22.13,7C13.91-96.59-8.62-122.41-34.87-131c-15.86-5.19-31.39-3.62-46.16,4.68C-104.73-113-103.4-95.6-100.49-86.42c5.48,17.31,25.65,35.16,54,47.75.66.29,1.33.57,2,.85h-92.94A15.54,15.54,0,0,0-153-22.28V12a15.54,15.54,0,0,0,15.53,15.53H13v126.9a6,6,0,0,0,10.09,4.4L51.8,132.24l28.68,26.63a6,6,0,0,0,10.09-4.4V27.57H241.07A15.54,15.54,0,0,0,256.6,12.05V-22.28a15.54,15.54,0,0,0-15.52-15.53ZM-137.47,15.57A3.52,3.52,0,0,1-141,12.05V-22.28a3.52,3.52,0,0,1,3.52-3.52H13V15.57ZM13-41.57v3.76H-4.33A181.06,181.06,0,0,1-41.65-49.64c-24.84-11-43-26.53-47.39-40.4-3.21-10.14,1.47-18.83,13.9-25.82A44.6,44.6,0,0,1-53-122a46,46,0,0,1,14.38,2.4C-15-111.85,6.09-87,20.84-64.87A38.58,38.58,0,0,0,13-41.57ZM47.71,119.65,25,140.7V27.57H78.56V140.7L55.89,119.65a6,6,0,0,0-8.17,0ZM78.56,15.57H25V-25.8H78.56Zm0-53.38H25v-3.76A26.79,26.79,0,0,1,51.8-68.33,26.79,26.79,0,0,1,78.56-41.57Zm4.21-27.06c14.75-22.11,35.78-47,59.45-54.73,12.7-4.16,24.64-2.93,36.52,3.74,12.43,7,17.11,15.67,13.9,25.82-4.4,13.88-22.55,29.36-47.39,40.4a181.08,181.08,0,0,1-37.32,11.83H90.57v-3.76a38.58,38.58,0,0,0-7.8-23.3ZM241.07,15.57H90.57V-25.8H241.07a3.52,3.52,0,0,1,3.52,3.52V12.05a3.52,3.52,0,0,1-3.52,3.51Zm0,0" transform="translate(154 135)"/></svg>