<svg id="Layer_1" data-name="Layer 1" xmlns="http://www.w3.org/2000/svg" viewBox="0 0 411.6 384.2"><defs><style>.cls-1{fill:none;stroke:#000;stroke-miterlimit:10;stroke-width:2px;}</style></defs><title>017-wedding-ring</title><path class="cls-1" d="M180-105.58H-76.4a34,34,0,0,0-33.93,33.92V2.52a6,6,0,0,0,6,6,6,6,0,0,0,6-6V-71.66A21.94,21.94,0,0,1-76.4-93.57H180a21.94,21.94,0,0,1,21.91,21.91V2.52a6,6,0,0,0,12,0V-71.66A34,34,0,0,0,180-105.58Zm0,0" transform="translate(154 129)"/><path class="cls-1" d="M236.34,125.34v-197A56.4,56.4,0,0,0,180-128H-76.4a56.4,56.4,0,0,0-56.34,56.34v197A23,23,0,0,0-153,148.17v27.47A78.66,78.66,0,0,0-74.43,254.2H178a78.66,78.66,0,0,0,78.57-78.57V148.17a23,23,0,0,0-20.26-22.83Zm-357.07-197A44.38,44.38,0,0,1-76.4-116H180a44.38,44.38,0,0,1,44.33,44.33V125.17h-8.8q-.73-2.33-1.61-4.57V30.45a6,6,0,0,0-12,0V101a66.54,66.54,0,0,0-43.46-22.19,107.18,107.18,0,0,0-68.18-94L111.59-35a6,6,0,0,0,.9-7.75L91.21-74.46a6,6,0,0,0-5-2.66H17.37a6,6,0,0,0-5,2.66L-8.89-42.77A6,6,0,0,0-8-35L13.34-15.2a107.17,107.17,0,0,0-68.18,94A66.53,66.53,0,0,0-98.31,101V30.45a6,6,0,0,0-6-6,6,6,0,0,0-6,6v90.15q-.88,2.24-1.61,4.57h-8.8Zm21.79,196.83a6,6,0,0,0,.6-2.13A54.58,54.58,0,0,1-49.07,90.48H152.66A54.57,54.57,0,0,1,202.34,124l.1.23c.13.32.27.63.39,1Zm180.23,12V154.9a2.81,2.81,0,0,1-2.81,2.81H25.12a2.81,2.81,0,0,1-2.81-2.81V137.18Zm11-170.65L51.8,4.16,11.32-33.47Zm-84.89-12L20.57-65.11H83L96.21-45.48ZM65.74,7.6,80.33-6A95.1,95.1,0,0,1,146.4,78.45H129.68A78.28,78.28,0,0,0,65.74,7.6Zm51.87,70.85H-14a66.08,66.08,0,0,1,131.62,0ZM37.86,7.6A78.28,78.28,0,0,0-26.07,78.45H-42.81A95.1,95.1,0,0,1,23.27-6Zm206.74,168A66.64,66.64,0,0,1,178,242.2H-74.43A66.64,66.64,0,0,1-141,175.64V148.17a11,11,0,0,1,11-11H10.3V154.9a14.83,14.83,0,0,0,14.82,14.82H78.48A14.83,14.83,0,0,0,93.3,154.9V137.18H233.6a11,11,0,0,1,11,11Zm0,0" transform="translate(154 129)"/></svg>