<svg id="Layer_1" data-name="Layer 1" xmlns="http://www.w3.org/2000/svg" viewBox="0 0 326.88 411.6"><defs><style>.cls-1{fill:none;stroke:#231f20;stroke-miterlimit:10;stroke-width:2px;}</style></defs><title>018-wedding-1</title><path class="cls-1" d="M159.8,20.52H-56.92a6,6,0,0,0-6,6,6,6,0,0,0,6,6H159.8a6,6,0,1,0,0-12Zm0,0" transform="translate(112 144)"/><path class="cls-1" d="M17.92,178.45H-56.92a6,6,0,0,0-6,6,6,6,0,0,0,6,6H17.92a6,6,0,0,0,0-12Zm0,0" transform="translate(112 144)"/><path class="cls-1" d="M17.92,125.81H-56.92a6,6,0,0,0-6,6,6,6,0,0,0,6,6H17.92a6,6,0,0,0,0-12Zm0,0" transform="translate(112 144)"/><path class="cls-1" d="M46.22-84.64H-56.92a6,6,0,0,0-6,6,6,6,0,0,0,6,6H46.22a6,6,0,0,0,6-6,6,6,0,0,0-6-6Zm0,0" transform="translate(112 144)"/><path class="cls-1" d="M-34.25-32.09H-56.92a6,6,0,0,0-6,6,6,6,0,0,0,6,6h22.66a6,6,0,0,0,6-6,6,6,0,0,0-6-6Zm0,0" transform="translate(112 144)"/><path class="cls-1" d="M159.8-32.09H-6.33a6,6,0,0,0-6,6,6,6,0,0,0,6,6H159.8a6,6,0,0,0,6-6,6,6,0,0,0-6-6Zm0,0" transform="translate(112 144)"/><path class="cls-1" d="M98.77,73.16H-56.92a6,6,0,0,0-6,6,6,6,0,0,0,6,6H98.77a6,6,0,0,0,0-12Zm0,0" transform="translate(112 144)"/><path class="cls-1" d="M159.8,73.16H126.69a6,6,0,0,0,0,12H159.8a6,6,0,1,0,0-12Zm0,0" transform="translate(112 144)"/><path class="cls-1" d="M213.88-54v-.2a6.23,6.23,0,0,0-.09-.76h0a6,6,0,0,0-.21-.75l-.07-.19a6,6,0,0,0-.3-.68l0,0a6.46,6.46,0,0,0-.41-.66l-.12-.16a5.81,5.81,0,0,0-.52-.61l-83.2-83.2a6.24,6.24,0,0,0-.61-.52l-.16-.12a6,6,0,0,0-.66-.41l0,0a5.91,5.91,0,0,0-.67-.3l-.19-.07a6.13,6.13,0,0,0-.74-.21h0a5.55,5.55,0,0,0-.73-.09H-88.7A22.32,22.32,0,0,0-111-120.7v365a22.32,22.32,0,0,0,22.3,22.3H191.59a22.33,22.33,0,0,0,22.3-22.3V-53.8c0-.07,0-.14,0-.2Zm-83.19-68.5h0l62.71,62.7h-50.6a12.12,12.12,0,0,1-12.11-12.11Zm71.2,366.81a10.31,10.31,0,0,1-10.29,10.3H-88.7A10.31,10.31,0,0,1-99,244.3v-365A10.3,10.3,0,0,1-88.7-131H118.68v59.09A24.13,24.13,0,0,0,142.79-47.8h59.09Zm0,0" transform="translate(112 144)"/><path class="cls-1" d="M144.08,109.13a32.62,32.62,0,0,0-21.14,7.7A32.85,32.85,0,0,0,69,142c0,19.3,13.25,33.94,26.36,43.69v41.91a6,6,0,0,0,8.68,5.37l18.93-9.46,18.94,9.46a6,6,0,0,0,8.68-5.37V185.66c13.11-9.75,26.36-24.39,26.36-43.69a32.87,32.87,0,0,0-32.84-32.83Zm-5.53,108.73-12.93-6.46a6,6,0,0,0-5.36,0l-12.94,6.46V193.46a113.27,113.27,0,0,0,13.3,6.53l.13.05a6.05,6.05,0,0,0,1.55.38,5.84,5.84,0,0,0,.63,0,6,6,0,0,0,2.19-.41,112.24,112.24,0,0,0,13.43-6.58Zm-15.62-29.94a116.11,116.11,0,0,1-15.29-8.34l-.14-.09-1.07-.71-.42-.28-.94-.65q-1.27-.88-2.54-1.82C88.22,165.41,81,153.95,81,142a20.83,20.83,0,0,1,37.25-12.82,6,6,0,0,0,9.45,0A20.83,20.83,0,0,1,164.91,142c0,25.38-33.07,42-42,46Zm0,0" transform="translate(112 144)"/></svg>