<svg id="Layer_1" data-name="Layer 1" xmlns="http://www.w3.org/2000/svg" viewBox="0 0 325.02 411.6"><defs><style>.cls-1{fill:none;stroke:#231f20;stroke-miterlimit:10;stroke-width:2px;}</style></defs><title>019-wedding-location</title><path class="cls-1" d="M80.46-69.54A42.43,42.43,0,0,0,51.51-58.25,42.44,42.44,0,0,0,22.57-69.54,42.77,42.77,0,0,0-20.15-26.82C-20.15-6-8,14.09,15.1,31.23A163.84,163.84,0,0,0,49.33,50.61a6,6,0,0,0,4.36,0A164,164,0,0,0,87.92,31.23C111,14.09,123.18-6,123.18-26.82A42.77,42.77,0,0,0,80.46-69.54ZM51.51,38.54c-11-4.82-59.7-28.28-59.7-65.36A30.79,30.79,0,0,1,22.57-57.57,30.58,30.58,0,0,1,46.8-45.75a6,6,0,0,0,4.71,2.3,6,6,0,0,0,4.71-2.3A30.59,30.59,0,0,1,80.46-57.57a30.78,30.78,0,0,1,30.75,30.75c0,37-48.71,60.52-59.7,65.36Zm0,0" transform="translate(111 144)"/><path class="cls-1" d="M51.51-143a125.11,125.11,0,0,0-125,125c0,84.1,86.59,193.79,113.12,225.4a15.46,15.46,0,0,0,23.69,0C89.9,175.76,176.48,66.07,176.48-18a125.11,125.11,0,0,0-125-125Zm2.68,342.68a3.49,3.49,0,0,1-5.36,0C23,168.84-61.49,62-61.49-18a113.13,113.13,0,0,1,113-113,113.12,113.12,0,0,1,113,113c0,80.06-84.44,186.88-110.32,217.71Zm0,0" transform="translate(111 144)"/><path class="cls-1" d="M211.47,236.2,186,171.45a22.12,22.12,0,0,0-20.69-14.09H117.19a6,6,0,0,0,0,12h48.07a10.22,10.22,0,0,1,9.56,6.51l25.52,64.75a10.27,10.27,0,0,1-9.56,14H-87.75a10.13,10.13,0,0,1-8.49-4.49,10.13,10.13,0,0,1-1.07-9.55l24.85-63.07a12.84,12.84,0,0,1,12-8.18h44.7a6,6,0,0,0,6-6,6,6,0,0,0-6-6h-44.7a24.75,24.75,0,0,0-23.16,15.77l-24.85,63.07a22.21,22.21,0,0,0,2.31,20.67,22.22,22.22,0,0,0,18.39,9.73H190.77a22.25,22.25,0,0,0,20.7-30.4Zm0,0" transform="translate(111 144)"/></svg>