<svg id="Layer_1" data-name="Layer 1" xmlns="http://www.w3.org/2000/svg" viewBox="0 0 411.6 361.84"><defs><style>.cls-1{fill:none;stroke:#231f20;stroke-miterlimit:10;stroke-width:2px;}</style></defs><title>020-home</title><path class="cls-1" d="M246.2,21.73,55.33-115.86a6,6,0,0,0-7.07,0L-11.23-73a13.7,13.7,0,0,0,2-7.13v-6.59A13.82,13.82,0,0,0-23-100.5H-89.12a13.83,13.83,0,0,0-13.81,13.81v6.59A13.83,13.83,0,0,0-89.12-66.29h2.05v48l-55.54,40A25.1,25.1,0,0,0-153,42a24.94,24.94,0,0,0,13.63,22.29,25,25,0,0,0,26.05-2L51.8-56.68l165.12,119A25,25,0,0,0,246.2,21.73ZM-89.12-78.38a1.73,1.73,0,0,1-1.73-1.72v-6.59a1.73,1.73,0,0,1,1.73-1.73H-23a1.73,1.73,0,0,1,1.72,1.73v6.59A1.73,1.73,0,0,1-23-78.38Zm51.95,12.09v12L-75-27V-66.29ZM237.46,53.58a12.74,12.74,0,0,1-13.48-1L55.33-69a6,6,0,0,0-3.53-1.14A6,6,0,0,0,48.27-69L-120.39,52.55a12.73,12.73,0,0,1-13.48,1A12.74,12.74,0,0,1-140.91,42a13,13,0,0,1,5.38-10.51l187.34-135,187.34,135A13,13,0,0,1,244.52,42a12.74,12.74,0,0,1-7.05,11.53Zm0,0" transform="translate(154 118)"/><path class="cls-1" d="M189.66,57.16a6,6,0,0,0-6,6V220.45a10.32,10.32,0,0,1-10.31,10.3h-243A10.32,10.32,0,0,1-80,220.45V63.2a6,6,0,0,0-6-6,6,6,0,0,0-6,6V220.45a22.41,22.41,0,0,0,22.39,22.39h243a22.41,22.41,0,0,0,22.39-22.39V63.2a6,6,0,0,0-6-6Zm0,0" transform="translate(154 118)"/><path class="cls-1" d="M90.71,30.17A55,55,0,0,0,51.8,46.12,55.43,55.43,0,0,0-42.53,85.59c0,27.36,16.1,53.78,46.58,76.41A218.15,218.15,0,0,0,49.6,187.8a6,6,0,0,0,4.4,0A218,218,0,0,0,99.54,162c30.48-22.63,46.58-49.05,46.58-76.41A55.48,55.48,0,0,0,90.71,30.17Zm1.84,122A213.41,213.41,0,0,1,51.8,175.63a213.25,213.25,0,0,1-40.75-23.49c-27.53-20.51-41.49-42.9-41.49-66.55A43.33,43.33,0,0,1,47,58.91a6,6,0,0,0,9.52,0A43.33,43.33,0,0,1,134,85.59c0,23.65-14,46-41.49,66.55Zm0,0" transform="translate(154 118)"/></svg>