<svg id="Layer_1" data-name="Layer 1" xmlns="http://www.w3.org/2000/svg" viewBox="0 0 411.6 291.75"><defs><style>.cls-1{fill:none;stroke:#231f20;stroke-miterlimit:10;stroke-width:2px;}</style></defs><title>021-wedding-invitation-2</title><path class="cls-1" d="M248.12-73.1l-.26-.29a29.39,29.39,0,0,0-17.72-8.44l-.14,0-1.23-.09-.27,0c-.5,0-1,0-1.5,0H-123.38c-.5,0-1,0-1.5,0l-.27,0-1.24.09-.14,0a29.4,29.4,0,0,0-17.72,8.44l-.26.29A29.53,29.53,0,0,0-153-52.38V178.13a29.52,29.52,0,0,0,9.16,21.39l.24.25a30,30,0,0,0,4.86,3.68h0c.4.24.8.47,1.21.7l.07,0c.38.21.77.41,1.16.6l.16.08c.37.17.73.34,1.11.5l.25.11,1,.41.34.13,1,.33.43.14.9.25.51.14.85.2.56.12.83.15.6.1.84.11.59.07.94.07.51,0c.49,0,1,0,1.46,0H227c.49,0,1,0,1.46,0l.51,0,.94-.07.59-.07.84-.11.6-.1.83-.15.56-.12.86-.2.51-.14.9-.25.43-.14,1-.33.34-.12,1-.41.25-.11c.37-.16.74-.32,1.11-.5l.16-.08c.39-.19.78-.39,1.16-.6l.07,0c.41-.22.81-.45,1.21-.7h0a30,30,0,0,0,4.86-3.68l.24-.25a29.53,29.53,0,0,0,9.16-21.39V-52.38a29.51,29.51,0,0,0-8.48-20.72ZM244.6,178.13a17.52,17.52,0,0,1-2.31,8.7L143,102.44a6,6,0,0,0-7.77,9.14L233,194.69l-.06,0c-.42.15-.84.28-1.27.4l-.18.05q-.65.17-1.31.29l-.23,0q-.66.11-1.34.18l-.21,0c-.47,0-.95.06-1.42.06H-123.38c-.48,0-.95,0-1.42-.06l-.21,0q-.67-.06-1.34-.18l-.24,0q-.66-.12-1.31-.29l-.18-.05c-.43-.12-.85-.25-1.27-.4l-.07,0,97.83-83.18A6,6,0,0,0-30.9,103a6,6,0,0,0-8.46-.69l-99.34,84.47a17.48,17.48,0,0,1-2.31-8.7V-52.38a17.5,17.5,0,0,1,1.9-7.95L-46.76,21a6,6,0,0,0,8.47-.54,6,6,0,0,0-.54-8.47l-91.48-80.52A17.52,17.52,0,0,1-123.38-70H227a17.46,17.46,0,0,1,6.93,1.43L142.41,12a6,6,0,0,0,7.93,9L242.7-60.32a17.54,17.54,0,0,1,1.9,7.95Zm0,0" transform="translate(154 83)"/><path class="cls-1" d="M86.21,4.15A49.33,49.33,0,0,0,51.8,18,49.67,49.67,0,0,0-32.27,53.81c0,24.41,14.33,48,41.46,68.1a193.72,193.72,0,0,0,40.43,22.91,6,6,0,0,0,4.37,0,193.83,193.83,0,0,0,40.43-22.91c27.12-20.14,41.46-43.69,41.46-68.1A49.71,49.71,0,0,0,86.21,4.15ZM51.8,132.72C39.51,127.36-20.27,99-20.27,53.81A37.67,37.67,0,0,1,47.07,30.62a6,6,0,0,0,9.45,0,37.67,37.67,0,0,1,67.35,23.19c0,45.17-59.78,73.55-72.07,78.91Zm0,0" transform="translate(154 83)"/></svg>