<svg id="Layer_1" data-name="Layer 1" xmlns="http://www.w3.org/2000/svg" viewBox="0 0 332.83 411.6"><defs><style>.cls-1{fill:none;stroke:#231f20;stroke-miterlimit:10;stroke-width:2px;}</style></defs><title>022-church</title><path class="cls-1" d="M208.79,112.19,102.25,45V-4A15.21,15.21,0,0,0,113.87-18.8,15.22,15.22,0,0,0,98.67-34H93.05L61.84-80.36a12.53,12.53,0,0,0-4.42-4v-29H74.09a6,6,0,0,0,6-6,6,6,0,0,0-6-6H57.42V-137a6,6,0,0,0-6-6,6,6,0,0,0-6,6v11.61H28.74a6,6,0,0,0-6,6,6,6,0,0,0,6,6H45.41v29a12.56,12.56,0,0,0-4.43,4L9.77-34H4.15A15.22,15.22,0,0,0-11-18.8,15.21,15.21,0,0,0,.58-4V45L-106,112.19a17.29,17.29,0,0,0-8,14.73,17.36,17.36,0,0,0,8.91,15.24A16.69,16.69,0,0,0-97,144.27a16.64,16.64,0,0,0,8.91-2.62l139.52-88,139.52,88a16.49,16.49,0,0,0,17,.51,17.5,17.5,0,0,0,.86-30ZM50.94-73.66a.53.53,0,0,1,.47-.25.53.53,0,0,1,.47.25L78.58-34H24.24ZM4.15-22H98.67a3.2,3.2,0,0,1,3.2,3.2,3.2,3.2,0,0,1-3.2,3.2H4.15A3.2,3.2,0,0,1,1-18.8,3.2,3.2,0,0,1,4.15-22ZM90.25-3.6v41L54.62,14.9a6,6,0,0,0-6.41,0L12.58,37.38v-41ZM202.13,131.65a4.6,4.6,0,0,1-4.78-.15L54.62,41.43a6,6,0,0,0-6.41,0L-94.52,131.5a4.61,4.61,0,0,1-4.78.15,5.29,5.29,0,0,1-2.7-4.73,5.42,5.42,0,0,1,2.44-4.58l151-95.28,151,95.28a5.43,5.43,0,0,1,2.45,4.58,5.29,5.29,0,0,1-2.7,4.73Zm0,0" transform="translate(115 144)"/><path class="cls-1" d="M176.95,147.69a6,6,0,0,0-6,6V254.6H100.14V175.82a48.72,48.72,0,0,0-97.44,0V254.6H-68.12V153.69a6,6,0,0,0-6-6,6,6,0,0,0-6,6V260.6a6,6,0,0,0,6,6H176.95a6,6,0,0,0,6-6V153.69a6,6,0,0,0-6-6ZM88.13,254.6H14.7V175.82a36.72,36.72,0,1,1,73.43,0Zm0,0" transform="translate(115 144)"/></svg>