<svg id="Layer_1" data-name="Layer 1" xmlns="http://www.w3.org/2000/svg" viewBox="0 0 393.09 411.6"><defs><style>.cls-1{fill:none;stroke:#231f20;stroke-miterlimit:10;stroke-width:2px;}</style></defs><title>023-wedding-invitation-1</title><path class="cls-1" d="M-13.93-.21h-21.9a5.91,5.91,0,0,0-5.91,5.91,5.91,5.91,0,0,0,5.91,5.91h21.9A5.91,5.91,0,0,0-8,5.69,5.91,5.91,0,0,0-13.93-.21Zm0,0" transform="translate(145 144)"/><path class="cls-1" d="M138.93-.21H13.56a5.91,5.91,0,1,0,0,11.82H138.93a5.91,5.91,0,1,0,0-11.82Zm0,0" transform="translate(145 144)"/><path class="cls-1" d="M89.53,43.59H-35.83a5.91,5.91,0,0,0-5.91,5.91,5.91,5.91,0,0,0,5.91,5.91H89.53a5.91,5.91,0,0,0,0-11.82Zm0,0" transform="translate(145 144)"/><path class="cls-1" d="M138.93,43.59H117a5.91,5.91,0,1,0,0,11.82h21.9a5.91,5.91,0,1,0,0-11.82Zm0,0" transform="translate(145 144)"/><path class="cls-1" d="M239-1.62c-.08-.09-.16-.19-.25-.28a28.23,28.23,0,0,0-17-8.1l-.14,0c-.39,0-.78-.07-1.18-.09l-.27,0c-.48,0-1,0-1.45,0H199.4V-123.51A19.51,19.51,0,0,0,179.91-143H-76.82a19.51,19.51,0,0,0-19.49,19.49V-10.17h-19.25q-.73,0-1.45,0l-.27,0c-.39,0-.78,0-1.17.09h-.15a28.24,28.24,0,0,0-17,8.11c-.09.09-.17.18-.25.28A28.33,28.33,0,0,0-144,18.27V238.16a28.37,28.37,0,0,0,8.8,20.54l.23.24a28.62,28.62,0,0,0,4.67,3.54c.38.23.77.46,1.16.67l.07,0,1.12.57.15.07c.35.16.7.33,1.06.48l.24.1,1,.39.33.12.93.31.41.13.87.25.48.13.82.19.54.11.8.14.57.09.81.11.57.07.9.07.49,0c.46,0,.93,0,1.41,0H218.65c.47,0,.94,0,1.41,0l.49,0,.9-.07.57-.07.81-.11.58-.09.79-.14.55-.12.82-.19.49-.13.86-.24.43-.13.91-.31.34-.12,1-.39.25-.11,1-.48.16-.08c.37-.18.74-.37,1.11-.57l.08,0c.39-.21.77-.43,1.15-.66h0a28.7,28.7,0,0,0,4.67-3.53l.23-.24a28.35,28.35,0,0,0,8.8-20.54V18.27A28.34,28.34,0,0,0,239-1.62ZM199.4,1.65h19.25c.56,0,1.12,0,1.67.09l.37.05c.43.05.86.11,1.28.2l.29.07c.44.1.89.21,1.32.34l.16.06c.4.13.8.27,1.19.43L199.4,25.34ZM-84.49-123.51a7.68,7.68,0,0,1,7.67-7.68H179.91a7.68,7.68,0,0,1,7.67,7.68V35.75L60,148.05a13.47,13.47,0,0,1-1.32,1,12.83,12.83,0,0,1-15.6-1L-84.49,35.75Zm-36.17,126,.18-.07c.43-.13.86-.24,1.3-.34l.29-.07c.42-.08.85-.14,1.28-.19l.37-.05c.55-.05,1.11-.09,1.67-.09h19.25v23.7L-121.82,2.88c.38-.16.77-.3,1.16-.43Zm-9.46,243.71a16.51,16.51,0,0,1-2.07-8V18.27a16.47,16.47,0,0,1,1.7-7.27L5.59,130.78Zm353.9,7.8-.52.15c-.31.09-.63.18-1,.25l-.56.12c-.34.06-.68.11-1,.16l-.51.06c-.51,0-1,.08-1.55.08H-115.56c-.53,0-1,0-1.56-.08l-.5-.06c-.35,0-.69-.09-1-.16l-.55-.12-1-.25-.5-.15-.25-.09L14.55,138.68l20.73,18.25q.87.77,1.79,1.43a24.64,24.64,0,0,0,30.75-1.43l20.73-18.25L224,253.88l-.25.09Zm11.5-15.81a16.52,16.52,0,0,1-2.07,8L97.51,130.78,233.58,11a16.53,16.53,0,0,1,1.7,7.27Zm0,0" transform="translate(145 144)"/><path class="cls-1" d="M71.71-114.13a31.29,31.29,0,0,0-20.16,7.29,31.3,31.3,0,0,0-20.16-7.29A31.54,31.54,0,0,0-.12-82.63c0,35.77,47.49,54.77,49.51,55.56a5.94,5.94,0,0,0,2.15.41,5.94,5.94,0,0,0,2.15-.41c2-.79,49.51-19.78,49.51-55.56a31.54,31.54,0,0,0-31.5-31.5ZM51.54-39A107.23,107.23,0,0,1,32.19-50.29c-13.6-10.1-20.49-21-20.49-32.34a19.71,19.71,0,0,1,19.68-19.68,19.57,19.57,0,0,1,15.51,7.57,5.91,5.91,0,0,0,4.66,2.27,5.91,5.91,0,0,0,4.65-2.27,19.59,19.59,0,0,1,15.51-7.57A19.7,19.7,0,0,1,91.39-82.63c0,24-31.28,39.77-39.85,43.63Zm0,0" transform="translate(145 144)"/></svg>