<svg id="Layer_1" data-name="Layer 1" xmlns="http://www.w3.org/2000/svg" viewBox="0 0 411.6 388.71"><defs><style>.cls-1{fill:none;stroke:#231f20;stroke-miterlimit:10;stroke-width:2px;}</style></defs><title>024-wine-1</title><path class="cls-1" d="M-94.17-78.19h-6.42v-6.42a5.83,5.83,0,0,0-5.83-5.83,5.83,5.83,0,0,0-5.83,5.83v6.42h-6.42a5.83,5.83,0,0,0-5.83,5.83,5.83,5.83,0,0,0,5.83,5.83h6.42v6.42a5.83,5.83,0,0,0,5.83,5.83,5.83,5.83,0,0,0,5.83-5.83v-6.42h6.42a5.83,5.83,0,0,0,5.83-5.83,5.83,5.83,0,0,0-5.83-5.83Zm0,0" transform="translate(154 132.16)"/><path class="cls-1" d="M222.27-78.19h-6.42v-6.42A5.83,5.83,0,0,0,210-90.44a5.83,5.83,0,0,0-5.83,5.83v6.42h-6.42a5.83,5.83,0,0,0-5.83,5.83,5.83,5.83,0,0,0,5.83,5.83h6.42v6.42A5.83,5.83,0,0,0,210-54.28a5.83,5.83,0,0,0,5.83-5.83v-6.42h6.42a5.83,5.83,0,0,0,5.83-5.83,5.83,5.83,0,0,0-5.83-5.83Zm0,0" transform="translate(154 132.16)"/><path class="cls-1" d="M64.05-118.9H57.63v-6.42a5.83,5.83,0,0,0-5.83-5.83A5.83,5.83,0,0,0,46-125.32v6.42H39.55a5.83,5.83,0,0,0-5.83,5.83,5.83,5.83,0,0,0,5.83,5.83H46v6.42A5.83,5.83,0,0,0,51.8-95a5.83,5.83,0,0,0,5.83-5.83v-6.42h6.42a5.83,5.83,0,0,0,5.83-5.83,5.83,5.83,0,0,0-5.83-5.83Zm0,0" transform="translate(154 132.16)"/><path class="cls-1" d="M41.65-14.67-51.75-50A13.62,13.62,0,0,0-68.9-43.19l-34.87,72.06a70.85,70.85,0,0,0-5,14c0,.11-.08.22-.11.33a70.33,70.33,0,0,0,.19,33.86l.07.27q.2.8.43,1.59c.19.68.39,1.37.61,2l.27.83q.69,2.14,1.52,4.24c.09.23.2.45.29.68.21.5.42,1,.64,1.49s.51,1.17.78,1.74c.16.35.34.7.51,1a70.2,70.2,0,0,0,3.55,6.38c.26.41.52.83.78,1.24s.64,1,1,1.43.69,1,1,1.48l.88,1.18c.44.58.89,1.16,1.35,1.72l.72.88c.6.72,1.22,1.43,1.85,2.13l.36.4a70.52,70.52,0,0,0,10.78,9.55l.19.13q1.33,1,2.71,1.84l.42.27c.84.54,1.7,1.05,2.57,1.56l.6.35c.82.46,1.64.9,2.48,1.33l.74.38.61.29-28.52,75.35a6,6,0,0,0-3.63-.2l-44.06,11.43a7.72,7.72,0,0,0-5.79,7.08,7.71,7.71,0,0,0,5,7.66L-68.2,255a7.81,7.81,0,0,0,2.75.5,7.71,7.71,0,0,0,6.06-2.94,7.72,7.72,0,0,0,.35-9.14L-84.5,205.74a6,6,0,0,0-2.85-2.26l28.51-75.33a71.1,71.1,0,0,0,18.9,2.56,71,71,0,0,0,32-7.62A71.11,71.11,0,0,0,28.41,78.9L50,1.8a13.6,13.6,0,0,0-8.33-16.47ZM-76.5,239.07l-54.7-20.7,29.22-7.57,8.59,3.25ZM38.41-1.44l-7.78,27.8-75.38,6.88a6,6,0,0,0-5.43,6.52,6,6,0,0,0,6.53,5.43l70.82-6.46L16.84,75.66a59.08,59.08,0,0,1-30.16,36.71,59.08,59.08,0,0,1-47.45,2.53q-1.37-.52-2.7-1.11l-.66-.3c-.68-.31-1.36-.62-2-1l-.62-.32c-.7-.36-1.4-.73-2.09-1.12l-.43-.25c-.81-.46-1.61-.95-2.4-1.45l0,0a59.12,59.12,0,0,1-9.44-7.53l-.1-.09q-1-1-2-2.09l-.07-.08q-2-2.18-3.77-4.55l-.36-.5c-.42-.58-.83-1.16-1.23-1.75l-.58-.87-.93-1.47c-.2-.33-.4-.66-.6-1-.3-.51-.58-1-.86-1.54-.17-.31-.34-.61-.5-.91q-.63-1.2-1.2-2.43l-.3-.68c-.3-.66-.58-1.33-.86-2l-.28-.71c-.29-.74-.56-1.48-.82-2.23l-.14-.39A59.07,59.07,0,0,1-98,50.17L-73.9,48a6,6,0,0,0,5.43-6.53A6,6,0,0,0-75,36l-19.59,1.79c.5-1.24,1-2.48,1.61-3.69L-58.09-38a1.66,1.66,0,0,1,1.5-.95,1.64,1.64,0,0,1,.59.11L37.39-3.44a1.66,1.66,0,0,1,1,2Zm0,0" transform="translate(154 132.16)"/><path class="cls-1" d="M256.59,217.18a7.72,7.72,0,0,0-5.79-7.07l-44.06-11.43a6.06,6.06,0,0,0-3.63.2L174.6,123.53l.6-.29.74-.38q1.25-.64,2.48-1.33l.61-.35c.87-.5,1.72-1,2.56-1.55l.43-.27q1.38-.89,2.71-1.84l.2-.14a70.55,70.55,0,0,0,10.77-9.54l.38-.42c.63-.69,1.24-1.39,1.84-2.11l.73-.9q.68-.84,1.34-1.7l.89-1.2c.35-.48.69-1,1-1.46s.67-1,1-1.45.51-.8.76-1.2a71.58,71.58,0,0,0,3.59-6.46c.16-.33.33-.65.48-1,.27-.59.53-1.18.79-1.77s.42-1,.62-1.45c.09-.23.2-.46.29-.69.56-1.4,1.07-2.82,1.54-4.25l.26-.81c.21-.68.42-1.37.61-2.07.15-.52.29-1,.42-1.57l.08-.31a70.33,70.33,0,0,0,.18-33.84c0-.11-.07-.22-.11-.33a70.85,70.85,0,0,0-5-14L172.5-43.19A13.6,13.6,0,0,0,155.35-50L62-14.68A13.61,13.61,0,0,0,53.62,1.8L75.2,78.89A70.28,70.28,0,0,0,79.8,91a71.12,71.12,0,0,0,31.7,32.12c1.74.88,3.52,1.68,5.32,2.41a71.12,71.12,0,0,0,45.62,2.65l28.51,75.33a6,6,0,0,0-2.85,2.26l-25.46,37.73A7.74,7.74,0,0,0,171.79,255l79.81-30.2a7.71,7.71,0,0,0,5-7.66ZM172.47,111.1c-.69.39-1.38.76-2.09,1.12l-.62.32q-1,.5-2,1l-.66.3c-.89.39-1.79.76-2.7,1.1A58.94,58.94,0,0,1,86.76,75.66L76.43,38.74l18.42,1.68a6,6,0,1,0,1.09-12l-23-2.1L65.19-1.44a1.66,1.66,0,0,1,1-2l93.4-35.34a1.66,1.66,0,0,1,2.09.83l34.87,72.06c.59,1.22,1.12,2.45,1.61,3.69l-70.57-6.45a6,6,0,0,0-1.09,12l75.11,6.86a59.08,59.08,0,0,1-2.25,28.37l-.14.39c-.25.75-.53,1.49-.82,2.23l-.28.71c-.27.68-.56,1.34-.86,2-.1.23-.2.46-.3.68-.38.82-.78,1.63-1.2,2.43-.16.31-.34.61-.5.92-.28.52-.56,1-.86,1.54-.19.34-.4.66-.6,1-.3.49-.61,1-.92,1.47l-.58.88c-.4.59-.81,1.17-1.23,1.75l-.36.5q-1.78,2.37-3.77,4.55l-.07.07q-1,1.07-2,2.09l-.1.09a59.54,59.54,0,0,1-9.43,7.53l0,0c-.78.5-1.59,1-2.4,1.45l-.43.24Zm7.62,128L197,214l8.59-3.25,29.22,7.57Zm0,0" transform="translate(154 132.16)"/></svg>