<svg id="Layer_1" data-name="Layer 1" xmlns="http://www.w3.org/2000/svg" viewBox="0 0 411.6 393.16"><defs><style>.cls-1{fill:none;stroke:#231f20;stroke-miterlimit:10;stroke-width:2px;}</style></defs><title>025-wedding-cake</title><path class="cls-1" d="M243.7,216.38h-7.52v-67a19.82,19.82,0,0,0-19.8-19.8H193.75V71.36a19.82,19.82,0,0,0-19.8-19.8H154.19V1a19.82,19.82,0,0,0-19.8-19.8H57.62v-7.84C70.69-32.49,112.56-54,115.79-90a40,40,0,0,0-10.2-30.44,37.75,37.75,0,0,0-28-12.54,38.4,38.4,0,0,0-25.88,9.81A38.49,38.49,0,0,0,25.94-133h-.16a37.75,37.75,0,0,0-28,12.54A40,40,0,0,0-12.47-90c3.23,36,45.1,57.54,58.16,63.41v7.84H10.51a6,6,0,0,0-6,6,6,6,0,0,0,6,6H134.39A7.88,7.88,0,0,1,142.26,1V17.89a24.79,24.79,0,0,1-6.15-4.51c-4.34-3.89-9.74-8.72-20.07-8.72S100.31,9.49,96,13.38c-3.68,3.3-6.35,5.68-12.11,5.68s-8.43-2.38-12.12-5.68C67.39,9.49,62,4.65,51.67,4.65S35.94,9.49,31.59,13.38c-3.68,3.3-6.35,5.68-12.11,5.68S11,16.67,7.36,13.38C3,9.49-2.39,4.65-12.71,4.65s-15.73,4.84-20.07,8.72a24.79,24.79,0,0,1-6.15,4.51V1a7.88,7.88,0,0,1,7.87-7.87h13.74a6,6,0,0,0,6-6,6,6,0,0,0-6-6H-31.07A19.82,19.82,0,0,0-50.87,1V51.56H-70.63a19.82,19.82,0,0,0-19.8,19.8v58.22h-22.64a19.82,19.82,0,0,0-19.8,19.8v67h-7.24a12.91,12.91,0,0,0-12.9,12.9v16a12.91,12.91,0,0,0,12.9,12.9H243.7a12.91,12.91,0,0,0,12.89-12.9v-16a12.91,12.91,0,0,0-12.89-12.9ZM-.59-91.09a28,28,0,0,1,7.14-21.34,26,26,0,0,1,19.28-8.64h.11a26.61,26.61,0,0,1,18,7,11.43,11.43,0,0,0,15.49,0,26.6,26.6,0,0,1,18-7h.11a26,26,0,0,1,19.27,8.64,28,28,0,0,1,7.14,21.34C101.19-60.78,61.46-41.37,51.66-37,41.84-41.36,2.14-60.71-.59-91.09ZM-38.94,30.37c6.61-1.41,10.69-5,14.11-8.11,3.69-3.3,6.35-5.68,12.12-5.68S-4.28,19-.59,22.27C3.75,26.15,9.15,31,19.48,31s15.73-4.84,20.07-8.72c3.68-3.3,6.35-5.68,12.11-5.68S60.1,19,63.78,22.27C68.12,26.15,73.53,31,83.85,31s15.73-4.84,20.07-8.72c3.68-3.3,6.35-5.68,12.11-5.68s8.43,2.38,12.12,5.68c3.41,3.06,7.5,6.69,14.11,8.11V51.56H-38.94ZM-70.63,63.49H173.95a7.87,7.87,0,0,1,7.87,7.87V88.42c-2.7-1-4.73-2.74-7.2-4.82C170.09,79.77,164.45,75,153.75,75s-16.34,4.78-20.87,8.61c-4,3.36-6.84,5.79-13.16,5.79S110.54,87,106.56,83.6C102,79.77,96.39,75,85.7,75S69.36,79.77,64.83,83.6c-4,3.36-6.84,5.79-13.16,5.79S42.48,87,38.5,83.6C34,79.77,28.33,75,17.64,75S1.3,79.77-3.23,83.6c-4,3.36-6.84,5.79-13.16,5.79S-25.59,87-29.56,83.6C-34.09,79.77-39.73,75-50.43,75S-66.76,79.77-71.3,83.6c-2.46,2.08-4.5,3.81-7.2,4.82V71.36a7.88,7.88,0,0,1,7.87-7.87Zm-42.43,78H128.19a6,6,0,1,0,0-11.93H-78.5V100.76c7-1.37,11.3-5,14.91-8.05,4-3.36,6.84-5.79,13.16-5.79s9.19,2.43,13.16,5.79c4.53,3.84,10.18,8.61,20.87,8.61S-.06,96.55,4.48,92.71c4-3.36,6.83-5.79,13.16-5.79s9.19,2.43,13.16,5.79c4.53,3.84,10.18,8.61,20.87,8.61S68,96.55,72.53,92.71c4-3.36,6.84-5.79,13.16-5.79s9.19,2.43,13.16,5.79c4.53,3.84,10.17,8.61,20.87,8.61s16.34-4.78,20.87-8.61c4-3.36,6.84-5.79,13.16-5.79s9.19,2.43,13.16,5.79c3.61,3.05,7.92,6.68,14.91,8.05v28.82H155.95a6,6,0,1,0,0,11.93h60.44a7.88,7.88,0,0,1,7.87,7.87v17.07c-2.94-1-5.13-2.79-7.79-4.92-4.72-3.79-10.58-8.52-21.62-8.52s-16.91,4.72-21.62,8.52c-4.24,3.41-7.3,5.88-14.14,5.88s-9.9-2.47-14.14-5.88c-4.71-3.8-10.57-8.52-21.62-8.52s-16.91,4.72-21.62,8.52c-4.24,3.41-7.3,5.88-14.14,5.88s-9.9-2.47-14.14-5.88C68.71,157.73,62.85,153,51.8,153s-16.91,4.72-21.62,8.52c-4.24,3.41-7.31,5.88-14.14,5.88s-9.9-2.47-14.14-5.88C-2.8,157.73-8.67,153-19.71,153s-16.91,4.72-21.62,8.52c-4.24,3.41-7.3,5.88-14.14,5.88s-9.9-2.47-14.14-5.88c-4.72-3.8-10.58-8.52-21.63-8.52s-16.91,4.72-21.62,8.52c-2.74,2.21-5,4-8.07,5V149.38a7.88,7.88,0,0,1,7.87-7.87Zm-7.87,37.3c7.29-1.34,11.79-5,15.56-8,4.24-3.41,7.3-5.88,14.14-5.88s9.9,2.46,14.14,5.88c4.71,3.8,10.58,8.52,21.63,8.52s16.91-4.72,21.62-8.52c4.24-3.41,7.3-5.88,14.14-5.88s9.9,2.46,14.14,5.88C-.86,174.62,5,179.34,16,179.34s16.91-4.72,21.62-8.52c4.24-3.41,7.3-5.88,14.14-5.88s9.9,2.46,14.14,5.88c4.72,3.8,10.58,8.52,21.62,8.52s16.91-4.72,21.62-8.52c4.24-3.41,7.3-5.88,14.14-5.88s9.9,2.46,14.14,5.88c4.71,3.8,10.58,8.52,21.62,8.52s16.91-4.72,21.62-8.52c4.24-3.41,7.3-5.88,14.14-5.88s9.9,2.46,14.14,5.88c3.71,3,8.15,6.55,15.27,7.93v37.64H-120.93Zm365.6,66.46a1,1,0,0,1-1,1H-140.1a1,1,0,0,1-1-1v-16a1,1,0,0,1,1-1H243.7a1,1,0,0,1,1,1Zm0,0" transform="translate(154 134)"/><path class="cls-1" d="M74.71-112.35c-10.29,0-18.19,6.21-23.05,11.48-4.86-5.27-12.77-11.48-23.06-11.48A19.28,19.28,0,0,0,9.34-93.08c0,8.13,3.78,20.68,21.79,34.25A119.37,119.37,0,0,0,48.31-48.2a7.44,7.44,0,0,0,3.35.8A7.4,7.4,0,0,0,55-48.2,118.93,118.93,0,0,0,72.2-58.84C90.2-72.4,94-84.95,94-93.08a19.29,19.29,0,0,0-19.26-19.27Zm-9.7,44a104.94,104.94,0,0,1-13.35,8.46,105.31,105.31,0,0,1-13.35-8.46c-11-8.28-17-17.06-17-24.72a7.34,7.34,0,0,1,7.33-7.34c7.45,0,13.45,6.33,16.35,10.08l.08.11A8.39,8.39,0,0,0,51.66-87a8.38,8.38,0,0,0,6.65-3.22l0-.05c2.92-3.77,8.92-10.1,16.36-10.1a7.34,7.34,0,0,1,7.34,7.34C82-85.42,76-76.64,65-68.36Zm0,0" transform="translate(154 134)"/></svg>