<svg id="Layer_1" data-name="Layer 1" xmlns="http://www.w3.org/2000/svg" viewBox="0 0 377.54 411.6"><defs><style>.cls-1{fill:none;stroke:#231f20;stroke-miterlimit:10;stroke-width:2px;}</style></defs><title>026-wine</title><path class="cls-1" d="M-29.66,120.39l-5.41-60.64a8.67,8.67,0,0,0-8.68-7.94h-77.92a8.67,8.67,0,0,0-8.68,7.94l-5.41,60.64A53.39,53.39,0,0,0-122,161.06a53.38,53.38,0,0,0,33.29,17v57.11A24.8,24.8,0,0,0-97.09,239L-111,248.81A9.94,9.94,0,0,0-114.76,260a9.94,9.94,0,0,0,9.5,7h45.09a9.93,9.93,0,0,0,9.5-7,9.93,9.93,0,0,0-3.75-11.16L-68.34,239a24.88,24.88,0,0,0-8.37-3.83V178a53.38,53.38,0,0,0,33.29-17,53.39,53.39,0,0,0,13.75-40.68Zm-89-56.57h71.89l4,45.27h-80Zm43.39,184.95,8.69,6.15H-98.84l8.69-6.15a12.82,12.82,0,0,1,7.44-2.36,12.82,12.82,0,0,1,7.44,2.36Zm23-95.81a40.81,40.81,0,0,1-30.44,13.41A40.79,40.79,0,0,1-113.15,153a40.79,40.79,0,0,1-10.65-31.5l0-.36h82.11l0,.36A40.81,40.81,0,0,1-52.27,153Zm0,0" transform="translate(136.97 143.68)"/><path class="cls-1" d="M239.36,120.39l-5.41-60.64a8.67,8.67,0,0,0-8.68-7.94H147.35a8.67,8.67,0,0,0-8.68,7.94l-5.41,60.64a53.24,53.24,0,0,0,47,57.64v57.11a24.73,24.73,0,0,0-8.37,3.83L158,248.81a10,10,0,0,0,5.76,18.11h45.09a10,10,0,0,0,5.76-18.11L200.69,239a24.8,24.8,0,0,0-8.37-3.83V178a53.24,53.24,0,0,0,47-57.64Zm-89-56.57h71.89l4,45.27h-80Zm43.39,184.95,8.69,6.15H170.18l8.69-6.15a12.91,12.91,0,0,1,14.89,0Zm23-95.81a41.25,41.25,0,0,1-71.52-31.5l0-.36h82.11l0,.36A40.78,40.78,0,0,1,216.75,153Zm0,0" transform="translate(136.97 143.68)"/><path class="cls-1" d="M92.72,9.3A71.59,71.59,0,0,1,76.36-36.18V-66.13h.81A11.52,11.52,0,0,0,88.68-77.64V-86.2a11.53,11.53,0,0,0-8.89-11.2v-31.36a13.93,13.93,0,0,0-13.91-13.91H37.73a13.93,13.93,0,0,0-13.91,13.91V-97.4a11.52,11.52,0,0,0-8.89,11.2v8.57A11.52,11.52,0,0,0,26.43-66.13h.8v29.95A71.56,71.56,0,0,1,10.88,9.3,83.62,83.62,0,0,0-8.23,62.44a6,6,0,0,0,6,6,6,6,0,0,0,6-6A71.6,71.6,0,0,1,20.14,17,83.6,83.6,0,0,0,39.25-36.18V-66.13h25.1v29.95A83.6,83.6,0,0,0,83.46,17,71.57,71.57,0,0,1,99.82,62.44V88.15H43.3a13.42,13.42,0,0,0-13.4,13.41v62.6a13.42,13.42,0,0,0,13.4,13.4H99.82v24a6,6,0,0,0,12,0V62.44A83.62,83.62,0,0,0,92.72,9.3Zm-55-140H65.87a1.9,1.9,0,0,1,1.9,1.9v31.06H35.83v-31.06a1.91,1.91,0,0,1,1.91-1.9ZM26.93-78.14V-85.7H76.66v7.56ZM99.82,165.55H43.3a1.4,1.4,0,0,1-1.39-1.4V101.56a1.4,1.4,0,0,1,1.39-1.4H99.82Zm0,0" transform="translate(136.97 143.68)"/><path class="cls-1" d="M105.83,223.48a6,6,0,0,0-6,6v14.29A10.65,10.65,0,0,1,89.19,254.4H14.41A10.65,10.65,0,0,1,3.78,243.77V90.44a6,6,0,0,0-6-6,6,6,0,0,0-6,6V243.77a22.67,22.67,0,0,0,22.64,22.64H89.19a22.67,22.67,0,0,0,22.64-22.64V229.48a6,6,0,0,0-6-6Zm0,0" transform="translate(136.97 143.68)"/></svg>