<svg id="Layer_1" class="svg" data-name="Layer 1" xmlns="http://www.w3.org/2000/svg" viewBox="0 0 419.73 421.6"><defs><style>.cls-1{fill:none;stroke:#231f20;stroke-miterlimit:10;stroke-width:12px;}</style></defs><title>027-calendar</title><path class="cls-1" d="M101.86,17.41a69,69,0,0,0-50,21.25,69,69,0,0,0-50-21.25A69.51,69.51,0,0,0-67.56,86.85c0,19.42,6.32,38.41,18.79,56.42C-39,157.41-25.41,171-8.42,183.6a278.3,278.3,0,0,0,58.11,32.92,5.94,5.94,0,0,0,4.36,0,278.48,278.48,0,0,0,58.11-32.92c17-12.62,30.57-26.19,40.35-40.33,12.46-18,18.79-37,18.79-56.42a69.51,69.51,0,0,0-69.43-69.43Zm40.88,118.94c-9,13-21.62,25.65-37.51,37.48a275.29,275.29,0,0,1-53.36,30.64C36.42,197.88-55.59,155.69-55.59,86.85A57.53,57.53,0,0,1,1.87,29.39,57.15,57.15,0,0,1,47.15,51.47a6,6,0,0,0,9.43,0A57.46,57.46,0,0,1,159.32,86.85c0,16.9-5.58,33.56-16.59,49.5Zm0,0" transform="translate(158 149)"/><path class="cls-1" d="M229.65-103.91H207.3V-119a24,24,0,0,0-24-24,24,24,0,0,0-24,24v15.09H119.67V-119a24,24,0,0,0-24-24,24,24,0,0,0-24,24v15.09H32V-119A24,24,0,0,0,8-143a24,24,0,0,0-24,24v15.09H-55.59V-119a24,24,0,0,0-24-24,24,24,0,0,0-24,24v15.09h-22.35A26.11,26.11,0,0,0-152-77.83v53.59a6,6,0,0,0,6,6H249.75a6,6,0,0,0,6-6V-77.83a26.11,26.11,0,0,0-26.08-26.08Zm-58.36,6V-119a12,12,0,0,1,12-12,12,12,0,0,1,12,12V-75.8a12,12,0,0,1-8.45,11.48,11.88,11.88,0,0,1-3.57.54,11.86,11.86,0,0,1-3.57-.54,12,12,0,0,1-8.45-11.48ZM83.66-119a12,12,0,0,1,12-12,12,12,0,0,1,12,12V-75.8a12,12,0,0,1-12,12,12,12,0,0,1-12-12ZM-4-97.93V-119A12,12,0,0,1,8-131a12,12,0,0,1,12,12V-75.8a12,12,0,0,1-12,12,12,12,0,0,1-12-12Zm-87.63,0V-119a12,12,0,0,1,12-12,12,12,0,0,1,12,12V-75.8A12,12,0,0,1-76-64.32a11.88,11.88,0,0,1-3.57.54,11.88,11.88,0,0,1-3.57-.54A12,12,0,0,1-91.6-75.8ZM-140-30.23V-77.83a14.13,14.13,0,0,1,14.11-14.11h22.35V-75.8a24,24,0,0,0,24,24,24,24,0,0,0,24-24V-91.95h39.65V-75.8a24,24,0,0,0,24,24,24,24,0,0,0,24-24V-91.95H71.69V-75.8a24,24,0,0,0,24,24,24,24,0,0,0,24-24V-91.95h39.65V-75.8a24,24,0,0,0,24,24,24,24,0,0,0,24-24V-91.95h22.35a14.13,14.13,0,0,1,14.11,14.11v47.61Zm0,0" transform="translate(158 149)"/><path class="cls-1" d="M249.75-1.56a6,6,0,0,0-6,6V240.52a14.13,14.13,0,0,1-14.11,14.12H-125.92A14.13,14.13,0,0,1-140,240.52V3.73a6,6,0,0,0-6-6,6,6,0,0,0-6,6V240.52a26.11,26.11,0,0,0,26.08,26.09H229.65a26.11,26.11,0,0,0,26.08-26.09V4.43a6,6,0,0,0-6-6Zm0,0" transform="translate(158 149)"/></svg>