<svg id="Layer_1" data-name="Layer 1" xmlns="http://www.w3.org/2000/svg" viewBox="0 0 362.31 411.6"><defs><style>.cls-1{fill:none;stroke:#231f20;stroke-miterlimit:10;stroke-width:2px;}</style></defs><title>028-candle</title><path class="cls-1" d="M224,1.13H165.52a8.32,8.32,0,0,0-8.31,8.3,32.43,32.43,0,0,0,20.72,30.2v8a51.38,51.38,0,0,1-51.33,51.32H69V39.63A32.43,32.43,0,0,0,89.7,9.43a8.32,8.32,0,0,0-8.3-8.3H22.91a8.31,8.31,0,0,0-8.31,8.3,32.43,32.43,0,0,0,20.72,30.2V98.93H-22.3A51.39,51.39,0,0,1-73.63,47.6v-8A32.43,32.43,0,0,0-52.91,9.43a8.31,8.31,0,0,0-8.3-8.3h-58.48A8.32,8.32,0,0,0-128,9.43a32.43,32.43,0,0,0,20.72,30.2v8a85.07,85.07,0,0,0,85,85H35.33v26.36A118,118,0,0,1,17.09,222H-3A32.88,32.88,0,0,0-35.81,254.9v5.7a6,6,0,0,0,6,6H134.11a6,6,0,0,0,6-6v-5.7A32.88,32.88,0,0,0,107.27,222H87.22A118,118,0,0,1,69,158.93V132.57h57.63a85.07,85.07,0,0,0,85-85v-8a32.43,32.43,0,0,0,20.72-30.2A8.32,8.32,0,0,0,224,1.13Zm-197,12h50.4a20.42,20.42,0,0,1-16.1,16.27l-.47.09c-.48.09-1,.15-1.46.2l-.39,0c-.54,0-1.07.07-1.62.07H47c-.54,0-1.08,0-1.62-.07l-.39,0c-.49,0-1-.11-1.46-.2l-.47-.09A20.42,20.42,0,0,1,27,13.14ZM-97.25,29.73l-.38,0c-.49,0-1-.11-1.46-.2l-.47-.09a20.42,20.42,0,0,1-16.1-16.27h50.4a20.41,20.41,0,0,1-16.1,16.27l-.47.09c-.48.09-1,.15-1.46.2l-.38,0c-.53,0-1.07.07-1.62.07H-95.62c-.55,0-1.09,0-1.62-.07ZM107.26,234.05a20.86,20.86,0,0,1,20.84,20.54H-23.8A20.87,20.87,0,0,1-3,234.05ZM199.57,47.6a73.05,73.05,0,0,1-73,73H63a6,6,0,0,0-6,6v32.36A130,130,0,0,0,73.25,222H31.05a129.92,129.92,0,0,0,16.28-63.11V126.57a6,6,0,0,0-6-6H-22.3a73.05,73.05,0,0,1-73-73V41.81h9.63V47.6A63.41,63.41,0,0,0-22.3,110.93H41.33a6,6,0,0,0,6-6V41.81H57v63.12a6,6,0,0,0,6,6h63.63A63.41,63.41,0,0,0,189.94,47.6V41.81h9.63Zm4.28-18.19-.47.09q-.72.13-1.46.2l-.39,0c-.53,0-1.07.07-1.62.07H189.59c-.54,0-1.08,0-1.62-.07l-.39,0c-.49,0-1-.11-1.46-.2l-.47-.09a20.42,20.42,0,0,1-16.1-16.27H220a20.42,20.42,0,0,1-16.1,16.27Zm0,0" transform="translate(129 144)"/><path class="cls-1" d="M65.61-81.47H58.33v-4.18c5-2.23,11.23-7.55,11.48-20.26.34-17.47-12.37-34.07-12.91-34.77A6,6,0,0,0,52.15-143a6,6,0,0,0-4.75,2.32c-.54.7-13.25,17.3-12.91,34.77.25,13,6.83,18.28,11.83,20.41v4H38.69A11.29,11.29,0,0,0,27.42-70.2v49.4a6,6,0,0,0,6,6,6,6,0,0,0,6-6V-69.46H64.88V-20.8a6,6,0,0,0,6,6,6,6,0,0,0,6-6V-70.2A11.29,11.29,0,0,0,65.61-81.47ZM52.15-96.1c-1.67-.3-5.49-1.87-5.66-10-.14-7.08,2.85-14.37,5.66-19.6,2.8,5.24,5.79,12.52,5.65,19.6-.16,8.18-4,9.75-5.65,10Zm0,0" transform="translate(129 144)"/><path class="cls-1" d="M-77-81.47h-7.45v-4.1c5-2.18,11.4-7.48,11.65-20.34.34-17.47-12.37-34.07-12.91-34.77A6,6,0,0,0-90.45-143a6,6,0,0,0-4.75,2.32c-.54.7-13.25,17.3-12.91,34.77.25,12.86,6.68,18.15,11.66,20.34v4.1h-7.46A11.29,11.29,0,0,0-115.19-70.2v49.4a6,6,0,0,0,6,6,6,6,0,0,0,6-6V-69.46h25.45V-20.8a6,6,0,0,0,6,6,6,6,0,0,0,6-6V-70.2A11.29,11.29,0,0,0-77-81.47ZM-90.45-96.1c-1.67-.3-5.5-1.87-5.66-10-.14-7.08,2.85-14.37,5.66-19.6,2.8,5.24,5.79,12.52,5.65,19.6-.16,8.18-4,9.75-5.65,10Zm0,0" transform="translate(129 144)"/><path class="cls-1" d="M208.22-81.47h-7.28v-4.18c5-2.23,11.23-7.55,11.48-20.26.34-17.47-12.37-34.07-12.91-34.77a6,6,0,0,0-4.74-2.32,6,6,0,0,0-4.75,2.32c-.54.7-13.25,17.3-12.91,34.77.25,13,6.83,18.28,11.83,20.41v4H181.3A11.28,11.28,0,0,0,170-70.2v49.4a6,6,0,0,0,6,6,6,6,0,0,0,6-6V-69.46h25.45V-20.8a6,6,0,0,0,6,6,6,6,0,0,0,6-6V-70.2a11.29,11.29,0,0,0-11.27-11.27ZM194.76-96.1c-1.67-.3-5.49-1.87-5.65-10-.14-7.08,2.84-14.37,5.65-19.6,2.8,5.24,5.79,12.52,5.65,19.6-.16,8.18-4,9.75-5.65,10Zm0,0" transform="translate(129 144)"/></svg>