<svg id="Layer_1" data-name="Layer 1" xmlns="http://www.w3.org/2000/svg" viewBox="0 0 329.01 411.6"><defs><style>.cls-1{fill:none;stroke:#231f20;stroke-miterlimit:10;stroke-width:2px;}</style></defs><title>029-bible</title><path class="cls-1" d="M191.28-143H-80.35A31.69,31.69,0,0,0-112-111.35V33.1a6,6,0,0,0,6,6,6,6,0,0,0,6-6V-111.35A19.67,19.67,0,0,1-80.35-131H191.28A11.75,11.75,0,0,1,203-119.27V33.1a6,6,0,1,0,12,0V-119.27A23.76,23.76,0,0,0,191.28-143Zm0,0" transform="translate(113 144)"/><path class="cls-1" d="M131.07-36.06H75.65V-71.21a10.06,10.06,0,0,0-10-10H40.67a10.06,10.06,0,0,0-10,10v35.16H-24.79a10.06,10.06,0,0,0-10,10V-1.08a10.06,10.06,0,0,0,10,10H30.62V159.85a10.06,10.06,0,0,0,10,10H65.6a10.05,10.05,0,0,0,10-10V9h55.42a10.06,10.06,0,0,0,10-10V-26a10.06,10.06,0,0,0-10-10Zm-2,33H73.69a10.06,10.06,0,0,0-10,10V157.9h-21V7a10.06,10.06,0,0,0-10-10H-22.84v-21H32.58a10.06,10.06,0,0,0,10-10V-69.26h21V-34.1a10.06,10.06,0,0,0,10,10h55.42Zm0,0" transform="translate(113 144)"/><path class="cls-1" d="M215,211.68V61a6,6,0,1,0-12,0v145H-81.46A30.42,30.42,0,0,0-100,212.35V61a6,6,0,0,0-6-6,6,6,0,0,0-6,6V236.1c0,.5,0,1,0,1.51,0,.08,0,.16,0,.25,0,.44.05.88.1,1.31,0,0,0,0,0,.06a30.31,30.31,0,0,0,8.78,18.42,30.32,30.32,0,0,0,18.43,8.78h.05c.44,0,.88.08,1.32.1l.23,0c.52,0,1,0,1.55,0H208.63a5.91,5.91,0,0,0,1.57-.21,5.83,5.83,0,0,0,1-.35,6.15,6.15,0,0,0,1.9-9.83,6,6,0,0,0-3.5-1.81,18.81,18.81,0,0,1-16-18.53v-.18c0-.14,0-.28,0-.42v0c0-.55.09-1.09.17-1.62,0-.05,0-.11,0-.16a18.74,18.74,0,0,1,9.76-13.62l.11-.05c.39-.2.79-.39,1.2-.56l.38-.16c.32-.13.64-.25,1-.35l.63-.21.78-.21.83-.2.27,0H209a6,6,0,0,0,6-6v-.39ZM-81.46,254.6h0c-.59,0-1.18,0-1.76-.09h-.11c-.53-.05-1.06-.13-1.59-.23l-.27,0c-.47-.09-.93-.21-1.39-.35l-.5-.15c-.38-.12-.75-.26-1.12-.4l-.7-.29c-.3-.13-.59-.27-.89-.42l-.78-.42-.78-.47-.72-.49c-.27-.19-.54-.39-.8-.59l-.6-.48c-.29-.25-.56-.5-.84-.76l-.5-.5q-.39-.41-.76-.84l-.49-.59c-.21-.27-.4-.53-.59-.8s-.32-.47-.48-.71-.32-.52-.47-.79-.28-.51-.41-.77-.29-.59-.43-.89l-.29-.7c-.14-.37-.28-.75-.4-1.13-.05-.16-.1-.33-.14-.49-.13-.46-.25-.92-.35-1.4,0-.09,0-.18,0-.26-.1-.52-.18-1.05-.23-1.59v-.12c-.05-.58-.09-1.17-.09-1.76v-.18c0-.14,0-.28,0-.41a18.55,18.55,0,0,1,18.5-17.4H187.61a30.46,30.46,0,0,0-5.25,11.33c0,.11,0,.23-.07.34-.13.58-.25,1.17-.35,1.76s-.19,1.38-.26,2.07l0,.12c0,.08,0,.17,0,.25a5.7,5.7,0,0,0-.09,1v1A30.62,30.62,0,0,0,188,254.6Zm0,0" transform="translate(113 144)"/></svg>