<svg id="Layer_1" data-name="Layer 1" xmlns="http://www.w3.org/2000/svg" viewBox="0 0 411.6 364.44"><defs><style>.cls-1{fill:none;stroke:#231f20;stroke-miterlimit:10;stroke-width:2px;}</style></defs><title>030-dish</title><path class="cls-1" d="M-29.12-59.4l-1.21-1.14c-3.79-3.61-4.88-4.8-4.88-8s1.09-4.36,4.88-8a62.09,62.09,0,0,0,5-5.14,6.08,6.08,0,0,0-.77-8.57,6.09,6.09,0,0,0-8.57.77,49.7,49.7,0,0,1-4,4.13C-43-81.23-47.38-77-47.38-68.51S-43-55.8-38.73-51.74l1.33,1.25c3.91,3.63,6.73,6.25,6.73,12.68,0,7.09-3.56,11-7.67,15.52L-39.5-21A6.09,6.09,0,0,0-39-12.42,6.07,6.07,0,0,0-35-10.87a6.06,6.06,0,0,0,4.53-2l1.1-1.21c4.57-5,10.84-11.92,10.84-23.7S-24.65-55.24-29.12-59.4Zm0,0" transform="translate(154 120)"/><path class="cls-1" d="M55.63-86.81l-1.22-1.14c-3.79-3.61-4.88-4.8-4.88-8s1.09-4.35,4.88-8a60.67,60.67,0,0,0,5-5.14,6.08,6.08,0,0,0-.77-8.57,6.08,6.08,0,0,0-8.57.77,51.32,51.32,0,0,1-4,4.13c-4.25,4.05-8.65,8.25-8.65,16.77S41.76-83.2,46-79.15l1.33,1.25c3.91,3.63,6.73,6.25,6.73,12.68,0,7.08-3.55,11-7.67,15.52l-1.16,1.28a6.09,6.09,0,0,0,.48,8.59,6.06,6.06,0,0,0,4.05,1.55,6.07,6.07,0,0,0,4.53-2l1.1-1.22c4.58-5,10.84-11.92,10.84-23.7S60.1-82.65,55.63-86.81Zm0,0" transform="translate(154 120)"/><path class="cls-1" d="M140.37-59.4l-1.21-1.14c-3.79-3.61-4.88-4.8-4.88-8s1.09-4.36,4.88-8a62.1,62.1,0,0,0,5-5.14,6.08,6.08,0,0,0-.77-8.57,6.09,6.09,0,0,0-8.57.77,49.7,49.7,0,0,1-4,4.13c-4.25,4.06-8.65,8.25-8.65,16.77s4.4,12.71,8.65,16.77l1.33,1.25c3.91,3.63,6.73,6.25,6.73,12.68,0,7.09-3.55,11-7.67,15.52L130-21a6.09,6.09,0,0,0,.47,8.59,6.07,6.07,0,0,0,4.06,1.55,6.06,6.06,0,0,0,4.53-2l1.1-1.21C144.72-19.14,151-26,151-37.81s-6.14-17.43-10.61-21.59Zm0,0" transform="translate(154 120)"/><path class="cls-1" d="M250.52,193.49H-146.92a6.08,6.08,0,0,0-6.08,6.08v14.59a29.31,29.31,0,0,0,29.27,29.27H227.32a29.31,29.31,0,0,0,29.28-29.27V199.58a6.08,6.08,0,0,0-6.08-6.08Zm-6.08,20.67a17.14,17.14,0,0,1-17.11,17.11H-123.73a17.13,17.13,0,0,1-17.11-17.11v-8.51H244.44Zm0,0" transform="translate(154 120)"/><path class="cls-1" d="M162.35,62.5a158.47,158.47,0,0,0-88.44-43L85.7,7.67A12.39,12.39,0,0,0,88.39-5.86a12.38,12.38,0,0,0-11.48-7.67H26.69A12.38,12.38,0,0,0,15.21-5.86,12.39,12.39,0,0,0,17.9,7.67L29.69,19.46A159.43,159.43,0,0,0-107.47,171a6.08,6.08,0,0,0,5.84,6.32h.24a6.08,6.08,0,0,0,6.07-5.85A147.21,147.21,0,0,1,43.56,30.33l1.93-.09,2.27-.08,1.09,0c1,0,2,0,3,0s2,0,2.95,0l1.08,0,2.28.08,1.92.09a147.21,147.21,0,0,1,138.87,141,6.08,6.08,0,0,0,12.16-.49A158.58,158.58,0,0,0,162.35,62.5ZM58.1,18.07l-.75,0L55.19,18c-1.1,0-2.18,0-3.27,0h-.24c-1.09,0-2.17,0-3.27,0L46.25,18l-.75,0-19-19c-.09-.09-.12-.12-.05-.28s.11-.16.24-.16H76.91c.13,0,.17,0,.24.16s0,.19-.06.28Zm0,0" transform="translate(154 120)"/></svg>