<svg id="Layer_1" data-name="Layer 1" xmlns="http://www.w3.org/2000/svg" viewBox="0 0 411.6 342.33"><defs><style>.cls-1{fill:none;stroke:#231f20;stroke-miterlimit:10;stroke-width:2px;}</style></defs><title>031-speech-bubble</title><path class="cls-1" d="M197.84-107H-94.24A58.83,58.83,0,0,0-153-48.24V3.71a6,6,0,0,0,6,6,6,6,0,0,0,6-6V-48.24A46.8,46.8,0,0,1-94.24-95H197.84a46.8,46.8,0,0,1,46.75,46.75V4a6,6,0,1,0,12,0V-48.24A58.82,58.82,0,0,0,197.84-107Zm0,0" transform="translate(154 108)"/><path class="cls-1" d="M250.59,25.91a6,6,0,0,0-6,6v45a46.8,46.8,0,0,1-46.75,46.75H-18.53a6,6,0,0,0-4.91,2.55l-57.89,82.2V129.63a6,6,0,0,0-6-6h-6.91A46.8,46.8,0,0,1-141,76.87v-45a6,6,0,0,0-6-6,6,6,0,0,0-6,6v45a58.83,58.83,0,0,0,58.76,58.76h.9v91.69A6,6,0,0,0-89.15,233a6,6,0,0,0,1.81.28,6,6,0,0,0,4.91-2.55l67-95.15H197.84A58.83,58.83,0,0,0,256.6,76.87v-45a6,6,0,0,0-6-6Zm0,0" transform="translate(154 108)"/><path class="cls-1" d="M-80.57-12.69c-3.79,0-5.57.8-8.23,5.57l-9.92,18.07-9.92-18.07c-2.66-4.76-4.36-5.57-8.15-5.57-2.66,0-5.24,1.37-5.24,5.24V43c0,2.18,2.58,3.31,5.24,3.31s5.25-1.13,5.25-3.31V7.64l9.27,17.43a3.73,3.73,0,0,0,3.47,2.1,3.83,3.83,0,0,0,3.55-2.1l9.44-16.78V43c0,2.18,2.58,3.31,5.24,3.31s5.24-1.13,5.24-3.31V-7.45c0-3.87-2.58-5.24-5.24-5.24Zm0,0" transform="translate(154 108)"/><path class="cls-1" d="M-23.78,41.11-39.34-9.63c-.73-2.42-3.71-3.55-6.78-3.55s-6,1.13-6.69,3.55L-68.38,41.11a4.57,4.57,0,0,0-.16.81c0,2.58,3.79,4.35,6.61,4.35,1.78,0,3.15-.57,3.55-2.1l3.07-10.73h18.47l3.06,10.73c.41,1.53,1.78,2.1,3.55,2.1,2.82,0,6.61-1.85,6.61-4.35a3.49,3.49,0,0,0-.16-.81ZM-53.14,25.22l7-24.76,7,24.76Zm0,0" transform="translate(154 108)"/><path class="cls-1" d="M21.64,39.9,11.07,20.3c6.05-1.85,10.57-6.86,10.57-16.13,0-12.82-8.55-16.86-19.12-16.86h-16a3.28,3.28,0,0,0-3.39,3.23V43c0,2.18,2.66,3.31,5.24,3.31S-6.36,45.14-6.36,43V21.91H.42L11.87,44.18a4.13,4.13,0,0,0,3.63,2.5c3.06,0,6.53-2.82,6.53-5.48a2.18,2.18,0,0,0-.4-1.29ZM2.52,13.69H-6.35V-3.49H2.52c5.24,0,8.63,2.26,8.63,8.63s-3.39,8.55-8.63,8.55Zm0,0" transform="translate(154 108)"/><path class="cls-1" d="M68.83,39.9,58.26,20.3c6.05-1.85,10.57-6.86,10.57-16.13,0-12.82-8.55-16.86-19.12-16.86h-16a3.27,3.27,0,0,0-3.39,3.23h0V43c0,2.18,2.66,3.31,5.25,3.31s5.24-1.13,5.24-3.31V21.91h6.78L59.07,44.18a4.13,4.13,0,0,0,3.63,2.5c3.07,0,6.53-2.82,6.53-5.48a2.21,2.21,0,0,0-.4-1.29ZM49.71,13.69H40.84V-3.49h8.88c5.24,0,8.63,2.26,8.63,8.63S55,13.69,49.71,13.69Zm0,0" transform="translate(154 108)"/><path class="cls-1" d="M110.77-12.69c-1.7,0-2.42.73-3.14,2.1L95.28,12.72,83-10.59a3.15,3.15,0,0,0-3.23-2.1c-2.82,0-6.94,1.77-6.94,4.36a3.16,3.16,0,0,0,.24,1L89.8,21.59a2,2,0,0,1,.24,1V43c0,2.18,2.66,3.31,5.24,3.31s5.25-1.13,5.25-3.31V22.64a2,2,0,0,1,.32-1L117.47-7.28a1.93,1.93,0,0,0,.24-1c0-2.58-4.11-4.36-6.94-4.36Zm0,0" transform="translate(154 108)"/><path class="cls-1" d="M183.29-12.69c-3.79,0-5.57.8-8.23,5.57l-9.92,18.07L155.22-7.12c-2.66-4.76-4.36-5.57-8.15-5.57-2.66,0-5.24,1.37-5.24,5.24V43c0,2.18,2.58,3.31,5.24,3.31s5.25-1.13,5.25-3.31V7.64l9.28,17.43a3.72,3.72,0,0,0,3.47,2.1,3.83,3.83,0,0,0,3.55-2.1L178,8.28V43c0,2.18,2.58,3.31,5.24,3.31s5.25-1.13,5.25-3.31V-7.45c0-3.87-2.58-5.24-5.25-5.24Zm0,0" transform="translate(154 108)"/><path class="cls-1" d="M232.74,37.08H209.91V20.87h12.26c2.26,0,3.31-2.18,3.31-4,0-2.18-1.21-4.2-3.31-4.2H209.91V-3.49h22.83c2.1,0,3.31-2.18,3.31-4.68,0-2.18-1.05-4.52-3.31-4.52H204c-2.34,0-4.6,1.13-4.6,3.31V43c0,2.18,2.26,3.31,4.6,3.31h28.71c2.26,0,3.31-2.34,3.31-4.52,0-2.5-1.21-4.68-3.31-4.68Zm0,0" transform="translate(154 108)"/></svg>