<svg id="Layer_1" data-name="Layer 1" xmlns="http://www.w3.org/2000/svg" viewBox="0 0 303.22 411.6"><defs><style>.cls-1{fill:none;stroke:#231f20;stroke-miterlimit:10;stroke-width:2px;}</style></defs><title>032-shopping-bag</title><path class="cls-1" d="M50.8-142.68A82.23,82.23,0,0,0-31.34-60.54V-4.65a6,6,0,0,0,6,6,6,6,0,0,0,6-6V-60.54A70.23,70.23,0,0,1,50.8-130.7,70.23,70.23,0,0,1,121-60.54V-4.65a6,6,0,0,0,6,6,6,6,0,0,0,6-6V-60.54A82.23,82.23,0,0,0,50.8-142.68Zm0,0" transform="translate(100.81 143.68)"/><path class="cls-1" d="M98.91-42.17H2.84a6,6,0,0,0-6,6,6,6,0,0,0,6,6H98.91a6,6,0,0,0,6-6,6,6,0,0,0-6-6Zm0,0" transform="translate(100.81 143.68)"/><path class="cls-1" d="M201.25,259.56,191,215.75V-31.81A10.37,10.37,0,0,0,180.6-42.17h-26a6,6,0,0,0-6,6,6,6,0,0,0,6,6H179V210.4H-77.37V-30.19h24.46a6,6,0,0,0,6-6,6,6,0,0,0-6-6H-79A10.37,10.37,0,0,0-89.36-31.81V215.75l-10.29,43.81a6,6,0,0,0,1.14,5.09,6,6,0,0,0,4.7,2.27H195.42a6,6,0,0,0,5.83-7.36Zm-13.94-5.05a1.1,1.1,0,0,1-.89.43H-84.82a1.11,1.11,0,0,1-.89-.43,1.12,1.12,0,0,1-.22-1l7.32-31.17H180.21l7,29.92.29,1.24a1.08,1.08,0,0,1-.22,1Zm0,0" transform="translate(100.81 143.68)"/><path class="cls-1" d="M84.79,27.61a48.79,48.79,0,0,0-34,13.64A49.13,49.13,0,0,0-32.31,76.73c0,24.13,14.17,47.41,41,67.32a191.34,191.34,0,0,0,39.95,22.63,6,6,0,0,0,4.37,0,191.47,191.47,0,0,0,39.95-22.63c26.81-19.91,41-43.19,41-67.32A49.18,49.18,0,0,0,84.79,27.61Zm-34,127c-12.2-5.3-71.12-33.24-71.12-77.87A37.14,37.14,0,0,1,46.08,53.87a6,6,0,0,0,9.44,0,37.14,37.14,0,0,1,66.41,22.87c0,44.56-59,72.56-71.13,77.87Zm0,0" transform="translate(100.81 143.68)"/></svg>