<svg id="Layer_1" data-name="Layer 1" xmlns="http://www.w3.org/2000/svg" viewBox="0 0 287.54 411.6"><defs><style>.cls-1{fill:none;stroke:#231f20;stroke-miterlimit:10;stroke-width:2px;}</style></defs><title>033-bouquet</title><path class="cls-1" d="M191-38.89c-2.71-7.69-7.24-14.3-12.78-18.63-5.24-4.1-11.11-5.84-16.5-5a19.43,19.43,0,0,0-6.47-12c1.93-7,1.48-15.49-1.41-23.68-2.71-7.69-7.24-14.3-12.78-18.63-5.24-4.1-11.11-5.84-16.5-5-1.35-11.84-15-20.86-32.17-20.86s-30.72,9-32.15,20.73a19.46,19.46,0,0,0-9.43,1.52,19.26,19.26,0,0,0-10.41-1.39c-1.35-11.84-15-20.86-32.17-20.86S-22.5-133.73-23.94-122C-35-123.07-46.85-113.44-52.22-98.2c-2.76,7.86-3.29,16.09-1.59,22.94a19.8,19.8,0,0,0-7.28,12.61C-72.14-63.77-84-54.12-89.37-38.89-95-22.8-91.15-7-80.59-1.73c-3.09,5.82-2.75,13.37.83,20.86a10.23,10.23,0,0,0-1.78,2.93,10.14,10.14,0,0,0,1.42,10L-2.77,132.38a6,6,0,0,0,9.49-7.32L-42.66,61a28.08,28.08,0,0,0,3.2-.49c5.91-1.3,11-4.58,15.89-7.75,4.55-2.95,8.86-5.72,13-6.31s9,.86,14.17,2.4c5.62,1.67,11.43,3.39,17.51,3S32.66,48.89,38,46.46c4.91-2.24,9.54-4.34,13.68-4.34h0c4.15,0,8.79,2.16,13.69,4.43,5.32,2.46,10.82,5,16.88,5.46s11.9-1.24,17.53-2.87c5.19-1.5,10.09-2.92,14.18-2.32s8.41,3.43,12.95,6.4c4.88,3.2,9.93,6.51,15.84,7.85.42.09.84.17,1.25.24L95,125a6,6,0,1,0,9.49,7.32L181.72,32a10.15,10.15,0,0,0,1.42-10,10.32,10.32,0,0,0-1.78-2.93c3.58-7.49,3.91-15,.82-20.86C192.75-7,196.63-22.8,191-38.89ZM71.39-107.28a6,6,0,0,0,2-7,16.77,16.77,0,0,1-1.34-5.65c0-6.19,10.71-10.81,20.29-10.81s20.29,4.62,20.29,10.81a18.36,18.36,0,0,1-1.77,6.7,6,6,0,0,0,2,7.19,6,6,0,0,0,7.45-.34,18.75,18.75,0,0,1,5.21-3.43c2.21-.77,5.15.09,8.08,2.39,3.7,2.89,6.93,7.69,8.85,13.16a31,31,0,0,1,1.78,13.28,42.69,42.69,0,0,0-10.72-2.26l-.33,0-1.47-.09-.42,0c-.61,0-1.21,0-1.82,0s-1.25,0-1.86,0a43.85,43.85,0,0,0-12.42,2.24,23.14,23.14,0,0,0-22.86-19.77A23.13,23.13,0,0,0,71.93-88.5c-.07-.54-.14-1.09-.23-1.64,0-.16-.05-.32-.08-.48q-.18-1.06-.41-2.12c0-.09,0-.19-.06-.28-.17-.77-.37-1.54-.59-2.31-.05-.18-.1-.36-.16-.53-.23-.78-.47-1.55-.74-2.32h0c-.23-.65-.47-1.28-.72-1.91l-.19-.47c-.26-.63-.53-1.25-.81-1.86l-.05-.11c-.27-.59-.56-1.16-.86-1.73l-.2-.38c-.32-.59-.64-1.18-1-1.76l0,0a6,6,0,0,0,5.58-.83ZM103.5-77.74a11.06,11.06,0,0,1-1,4.52,21.26,21.26,0,0,0-2.88,3.87,11.06,11.06,0,0,1-7.28,2.73A11.13,11.13,0,0,1,81.25-77.74,11.14,11.14,0,0,1,92.38-88.87,11.14,11.14,0,0,1,103.5-77.74ZM39.17-18.43A11.14,11.14,0,0,1,50.3-29.55,11.13,11.13,0,0,1,61.42-18.43,11.13,11.13,0,0,1,50.3-7.31,11.14,11.14,0,0,1,39.17-18.43ZM43,3.49c-5.69.1-11.51.32-17.37.64,0-.23-.09-.46-.13-.69s-.08-.48-.13-.71-.16-.61-.24-.91-.11-.43-.18-.64-.23-.64-.34-1-.13-.36-.2-.54c-.19-.44-.39-.88-.61-1.3l-.06-.12A18,18,0,0,0,30.11-7.2,23.22,23.22,0,0,0,43,3.49ZM70.92-8a19.3,19.3,0,0,0,4.39,4.7,17.48,17.48,0,0,0,2.56,1.61Q77.5-1,77.2-.3c-.07.16-.12.32-.18.48-.13.34-.26.67-.37,1s-.11.41-.17.61-.17.63-.25,1-.08.44-.12.66-.1.5-.14.75c-6.18-.33-12.34-.57-18.38-.68A23.23,23.23,0,0,0,70.92-8Zm-5-59.23c3,2,4.7,4.36,4.7,6.68a18.43,18.43,0,0,1-1.77,6.7,6,6,0,0,0,2,7.19,6.08,6.08,0,0,0,.76.46l.26.11c.13.06.26.13.39.18v0q-.86,1.57-1.62,3.25l-.16.38c-.18.42-.37.85-.54,1.28-.06.15-.12.29-.17.44-.22.55-.43,1.11-.63,1.68-.51,1.44-.94,2.89-1.3,4.35-.07.27-.12.55-.19.82A23.05,23.05,0,0,0,50.3-41.54a23,23,0,0,0-16.5,6.95q-.53-2.13-1.29-4.29c-.25-.7-.51-1.37-.78-2l-.16-.39c-.28-.67-.57-1.34-.88-2l0-.07q-.49-1-1-2l0-.07c-.36-.68-.74-1.34-1.13-2h0a6,6,0,0,0,.83-.52,6,6,0,0,0,2-7A16.68,16.68,0,0,1,30-60.57c0-6.19,10.71-10.81,20.29-10.81l1.23,0a30.32,30.32,0,0,1,14.35,4.1Zm-106.79-27c3.18-9,11.1-17.61,16.93-15.55a14.89,14.89,0,0,1,4,2.39,6,6,0,0,0,7.25.1,6,6,0,0,0,2-7,16.77,16.77,0,0,1-1.34-5.65c0-6.19,10.72-10.81,20.29-10.81s20.29,4.62,20.29,10.81a18.44,18.44,0,0,1-1.77,6.7,6,6,0,0,0,2,7.18,6,6,0,0,0,7.45-.34,18.76,18.76,0,0,1,5.22-3.43c1.85-.65,4.24-.13,6.69,1.42l.4.25c.3.21.61.43.92.66l.2.16c.4.32.8.66,1.2,1l.05,0c.42.39.83.82,1.23,1.26l.11.11c.4.45.79.92,1.18,1.4l.06.08a31.35,31.35,0,0,1,3.16,5.06l.11.21q.42.86.8,1.75l.11.25c.25.61.5,1.23.72,1.86.16.46.31.92.45,1.38l.13.41c.09.34.19.67.27,1,0,.15.08.3.11.45.09.36.17.73.25,1.09,0,.1,0,.2.07.3.09.46.18.92.25,1.38,0,.1,0,.2,0,.3.06.36.1.72.14,1.07l0,.43c0,.33.06.65.08,1,0,.14,0,.27,0,.4,0,.44,0,.87,0,1.31v0c0,.43,0,.85,0,1.27,0,0,0,.08,0,.12a45.38,45.38,0,0,0-7.24-1l-.34,0c-.77,0-1.55-.06-2.34-.06a42.19,42.19,0,0,0-19,4.27A23.14,23.14,0,0,0,8.22-100.86,23.15,23.15,0,0,0-14.65-81.09a42,42,0,0,0-8-1.87L-23.4-83l-.81-.09-.21,0c-1.47-.14-3-.21-4.52-.21-.58,0-1.16,0-1.74,0h-.27l-1.54.09h-.1a43.61,43.61,0,0,0-10.13,2,31.27,31.27,0,0,1,1.8-12.95ZM19.34-77.74A11.14,11.14,0,0,1,8.22-66.62,11.07,11.07,0,0,1,.94-69.35a21.25,21.25,0,0,0-2.88-3.87,11.06,11.06,0,0,1-1-4.52A11.14,11.14,0,0,1,8.22-88.87,11.14,11.14,0,0,1,19.34-77.74ZM-62.15-7.29a6,6,0,0,0-5.75-4.31h-.28a19.05,19.05,0,0,1-6.43-.59c-4.81-1.69-7.31-11.77-3.46-22.73s12.12-17.25,16.93-15.55a14.89,14.89,0,0,1,4,2.39,6,6,0,0,0,7.25.09,6,6,0,0,0,2-7,16.65,16.65,0,0,1-1.34-5.64c0-4,5.26-8.31,13.07-10l.29-.06c.46-.1.93-.18,1.4-.26l1.15-.17.6-.07c.55-.06,1.1-.11,1.65-.14h.19c.64,0,1.28-.06,1.93-.06l.91,0a31.64,31.64,0,0,1,13.21,3.27,17.38,17.38,0,0,1,3.19,2.18A23.25,23.25,0,0,0-9-62.32a5.42,5.42,0,0,1,.31,1.26,4.84,4.84,0,0,1,0,.48,18.42,18.42,0,0,1-1.77,6.7,6,6,0,0,0,2,7.18,6.27,6.27,0,0,0,.86.52l.3.12a6,6,0,0,0,.61.23l.37.09c.19,0,.38.09.57.12l.4,0c.14,0,.27,0,.41,0h.34a6.59,6.59,0,0,0,.86-.11l.13,0A5.3,5.3,0,0,0-2.73-46l.11,0a5.55,5.55,0,0,0,.82-.41l.07,0A5.86,5.86,0,0,0-1-47c.72-.63,1.45-1.2,2.14-1.7a13.38,13.38,0,0,1,3.08-1.73h0l.45-.13.39-.07.09,0c3.4-.46,8.05,2.39,11.78,7.62l.21.29.36.54c.2.31.41.62.6.95l.11.18.56,1,.09.15c.42.77.81,1.56,1.18,2.37l.08.17c.15.34.29.68.43,1l.11.28c.16.41.32.82.46,1.23s.2.58.29.86a31.7,31.7,0,0,1,1.3,13.55c-.65,4.06-2.34,7.05-4.6,8.13l-.45.18c-.17.06-.35.12-.55.16a21,21,0,0,1-5.63.43h-.82A6,6,0,0,0,6.36-9.33l-.16.19a5.33,5.33,0,0,0-.32.52c-.07.11-.14.21-.19.33s-.15.34-.21.52-.11.25-.16.38,0,0,0,0a.26.26,0,0,0,0,.06,4.86,4.86,0,0,0-.1.48c0,.15-.07.3-.09.45a5,5,0,0,0,0,.55c0,.15,0,.3,0,.45s0,.36.06.54,0,.29.06.43a5,5,0,0,0,.15.52c0,.14.07.28.13.42A4.57,4.57,0,0,0,5.68-3c.06.14.12.27.19.4s.19.29.3.43.17.25.27.37.24.25.36.37.22.23.34.34.24.18.36.27l.07,0c.11.08.21.17.32.24L8-.43l0,0,.15.09a20.81,20.81,0,0,1,3.6,2.56h0l.36.35.08.08.2.2.19.22a5.81,5.81,0,0,1,.44.65l.07.12a5,5,0,0,1,.31.68l0,.13c0,.07,0,.15.07.23-32.24,2.38-64.12,7.06-82,10-2.52-4.74-3-9.31-1-11.77A16.74,16.74,0,0,1-64.89-.41a6,6,0,0,0,2.75-6.88ZM153,49.65a25.33,25.33,0,0,1-7.58-.28c-3.8-.86-7.75-3.45-11.93-6.18-5.42-3.55-11-7.22-17.74-8.22s-13.09.86-19.29,2.66C91.66,39,87.1,40.34,83.19,40S75,37.76,70.45,35.66c-5.86-2.71-11.92-5.51-18.69-5.53S38.91,32.88,33,35.55c-4.56,2.07-8.87,4-12.78,4.31S11.79,38.78,7,37.36C.8,35.52-5.6,33.62-12.29,34.58s-12.35,4.6-17.79,8.11c-4.2,2.71-8.16,5.27-12,6.11-2.9.64-6.29.42-10.05,0l-16.73-21.7C-53,24.47-16,18.83,19.92,16.48h0c6.76-.44,13.21-.75,19.28-.91l.69,0,2.83-.07,1.65,0,2,0,3.69,0,3.86,0,2.08,0,1.72,0,3,.07.77,0c6.39.18,13.16.5,20.23,1,36.46,2.37,73.1,8,88.75,10.53ZM176.2-12.18a19,19,0,0,1-6.43.59,6,6,0,0,0-6,4.3A6,6,0,0,0,166.5-.42a16.71,16.71,0,0,1,4.58,3.52c2,2.46,1.55,7-1,11.76C152.32,12,120.67,7.33,88,4.95l.07-.26,0-.13a5.14,5.14,0,0,1,.31-.67l.08-.14A5.31,5.31,0,0,1,89,3.1h0l.19-.22.21-.22.06-.07a19.41,19.41,0,0,1,4-2.93h0l.11-.07h0l.32-.2.25-.2.39-.31c.13-.11.25-.24.36-.36l.32-.35c.11-.13.2-.27.3-.41s.17-.25.25-.39.16-.31.23-.46.13-.27.18-.41.1-.33.15-.49.08-.29.11-.44,0-.34.07-.52a4.54,4.54,0,0,0,0-.45c0-.18,0-.35,0-.53s0-.3,0-.45a5.19,5.19,0,0,0-.11-.54c0-.12,0-.23-.07-.35l0-.1s0-.07,0-.1-.12-.27-.18-.41-.11-.29-.18-.42a5.15,5.15,0,0,0-.26-.44c-.08-.13-.16-.27-.25-.39a4.67,4.67,0,0,0-.31-.36c-.11-.13-.21-.26-.33-.37s-.21-.18-.32-.27-.28-.25-.43-.36-.18-.11-.28-.16-.36-.23-.56-.32L93-11.08a5.89,5.89,0,0,0-2.07-.49h0l-.17,0H90A21,21,0,0,1,84.41-12l-.55-.16c-2.2-.77-4-3.3-4.8-6.92-1.08-4.57-.58-10.33,1.34-15.8.15-.41.3-.82.46-1.23l.11-.28c.14-.34.29-.69.43-1l.08-.18Q82-38.84,82.66-40l.09-.16c.18-.32.36-.64.55-.95l.13-.21c.19-.32.39-.62.59-.93l.38-.56.18-.26c3.73-5.24,8.4-8.09,11.8-7.63h0l.43.08a3.8,3.8,0,0,1,.48.14,14.89,14.89,0,0,1,4,2.39,6,6,0,0,0,7.25.1,6,6,0,0,0,2-7,16.68,16.68,0,0,1-1.34-5.65,4.83,4.83,0,0,1,0-.48,5.26,5.26,0,0,1,.3-1.26,23.21,23.21,0,0,0,2.65-3.59,17.48,17.48,0,0,1,3.18-2.18,31.71,31.71,0,0,1,13.21-3.27l.91,0a35.09,35.09,0,0,1,4.27.27h.05c.66.08,1.3.18,1.94.3l.3.06c.53.1,1,.22,1.55.35l.64.17,1,.31c6.38,2,10.51,5.83,10.51,9.35a18.42,18.42,0,0,1-1.77,6.7,6,6,0,0,0,2,7.19A6,6,0,0,0,157.5-47a18.83,18.83,0,0,1,5.22-3.43c2.21-.77,5.15.09,8.08,2.39,3.7,2.89,6.93,7.69,8.85,13.16,3.86,11,1.36,21-3.46,22.73Zm0,0" transform="translate(92.97 143.68)"/><path class="cls-1" d="M-28.93-41.55A23.14,23.14,0,0,0-52-18.43,23.14,23.14,0,0,0-28.93,4.68,23.14,23.14,0,0,0-5.82-18.43,23.14,23.14,0,0,0-28.93-41.55Zm0,34.23A11.14,11.14,0,0,1-40.06-18.43,11.14,11.14,0,0,1-28.93-29.55,11.13,11.13,0,0,1-17.81-18.43,11.13,11.13,0,0,1-28.93-7.31Zm0,0" transform="translate(92.97 143.68)"/><path class="cls-1" d="M129.53-41.54a23.14,23.14,0,0,0-23.11,23.11A23.14,23.14,0,0,0,129.53,4.68a23.14,23.14,0,0,0,23.11-23.11,23.14,23.14,0,0,0-23.11-23.11Zm0,34.23A11.14,11.14,0,0,1,118.4-18.43a11.14,11.14,0,0,1,11.13-11.12,11.13,11.13,0,0,1,11.12,11.12A11.13,11.13,0,0,1,129.53-7.31Zm0,0" transform="translate(92.97 143.68)"/><path class="cls-1" d="M116.24,155c-1.06-4.41-1.9-6.37-3.3-7.78a20.89,20.89,0,0,0-15.25-6.19c-13.7.1-27.94,11.82-33.81,17.26a12.17,12.17,0,0,0-6.66-2H44.38a12.19,12.19,0,0,0-6.66,2c-5.9-5.46-20.13-17.16-33.81-17.26a21,21,0,0,0-15.25,6.19c-1.41,1.41-2.24,3.37-3.31,7.78a97.32,97.32,0,0,0,0,45.37c1.07,4.46,1.91,6.45,3.32,7.86a20.88,20.88,0,0,0,15.08,6.19h.17c6.42,0,13-2.65,18.69-6l-6.53,23.42a27.6,27.6,0,0,0,26.58,35H59a27.6,27.6,0,0,0,26.59-35l-6.5-23.41c5.72,3.29,12.23,5.87,18.61,5.91h.17a20.89,20.89,0,0,0,15.08-6.19c1.41-1.41,2.25-3.4,3.32-7.86a97.27,97.27,0,0,0,0-45.37ZM44.13,168.58a.26.26,0,0,1,.26-.25H57.21a.27.27,0,0,1,.26.26v18.33a.25.25,0,0,1-.07.17h0a.27.27,0,0,1-.18.07H44.38a.27.27,0,0,1-.18-.07h0a.26.26,0,0,1-.08-.18ZM22,194.55c-7.09,5.14-13.38,7.88-18.18,7.91a8.85,8.85,0,0,1-6.08-2.12c-.15-.46-.4-1.31-.75-2.74a85.3,85.3,0,0,1,0-39.75c.34-1.39.59-2.22.74-2.67a8.75,8.75,0,0,1,6-2.12h.08c10,.07,23.59,11.72,28,16.23l.33.33V185.9l-.35.36s-1,1.05-2.73,2.58h0a85.62,85.62,0,0,1-7,5.7ZM71.4,248.77A15.48,15.48,0,0,1,59,254.93H42.66a15.6,15.6,0,0,1-15-19.8l10.51-37.7,0,0c.22.13.44.25.66.37h0a11.42,11.42,0,0,0,1.24.54l.34.13.55.17.64.17.51.11c.27.05.54.09.82.13l.33,0c.36,0,.73.05,1.09.05H57.21c.37,0,.73,0,1.09-.05l.34,0,.79-.12.5-.1.7-.18.55-.18.34-.12a12.12,12.12,0,0,0,2-.95l.06,0L74,235.14a15.5,15.5,0,0,1-2.61,13.63Zm33.2-51.17c-.34,1.43-.59,2.28-.75,2.74a8.81,8.81,0,0,1-6.07,2.12c-8.33-.05-19.06-8.07-25-13.38l-.14-.14c-1.48-1.32-2.44-2.29-2.75-2.59l-.11-.11-.32-.33V169.61l.35-.36A83.49,83.49,0,0,1,79.59,161c7.09-5.14,13.38-7.87,18.18-7.91h.09a8.75,8.75,0,0,1,6,2.12c.15.46.4,1.28.74,2.68a85.3,85.3,0,0,1,0,39.75Zm0,0" transform="translate(92.97 143.68)"/></svg>