<svg id="Layer_1" data-name="Layer 1" xmlns="http://www.w3.org/2000/svg" viewBox="0 0 410.97 411.6"><defs><style>.cls-1{fill:none;stroke:#231f20;stroke-miterlimit:10;stroke-width:2px;}</style></defs><title>034-rings</title><path class="cls-1" d="M252,94.94A138.82,138.82,0,0,0,111.52-10.9,138.24,138.24,0,0,0,41-79.44a6.07,6.07,0,0,0-8,3.15,6.07,6.07,0,0,0,3.15,8,126.13,126.13,0,0,1,66,66.1,127.87,127.87,0,0,1,6.71,20.12c.45,1.82.85,3.69,1.25,5.72h0A126.24,126.24,0,0,1,94,113.7a126.25,126.25,0,0,1-67.64,54.17q-.76-1.74-1.46-3.5l0,0q-1.34-3.4-2.43-6.9c-.06-.19-.12-.37-.17-.56-.34-1.1-.66-2.21-1-3.32l0-.08A111.59,111.59,0,0,0,94.81,25.12h0c-.28-1.36-.54-2.51-.81-3.59A111.88,111.88,0,0,0,85.25-2.29l0,0-.08-.15A111.88,111.88,0,0,0,33-53a111.09,111.09,0,0,0-34-9.71l43.12-40.07a6.07,6.07,0,0,0,.91-7.83l0,0h0L23.13-140.31a6.07,6.07,0,0,0-5-2.69h-64.6a6.08,6.08,0,0,0-5,2.69l-20,29.73a6.07,6.07,0,0,0,.91,7.83L-27.5-62.68a111,111,0,0,0-13.08,2.36A111.51,111.51,0,0,0-122.43,74.25a111.65,111.65,0,0,0,40.39,62,112,112,0,0,0,64,23c.11.48.22.95.34,1.42.27,1.11.56,2.21.85,3.31l.22.77c.24.88.49,1.75.75,2.62l.22.72q.42,1.39.87,2.78l.15.47c.36,1.09.73,2.17,1.11,3.25a127,127,0,0,1-74.86-24,126.67,126.67,0,0,1-48.9-72.7A126.67,126.67,0,0,1-127.35-9,126.75,126.75,0,0,1-64.61-68.33a6.07,6.07,0,0,0,3.16-8,6.06,6.06,0,0,0-8-3.16,138.91,138.91,0,0,0-68.77,65,138.81,138.81,0,0,0-10.86,95.23A138.78,138.78,0,0,0-95.47,160.4,139.06,139.06,0,0,0-14.25,186.7c1.89,0,3.78,0,5.66-.13A138.7,138.7,0,0,0,150,262.64c74.36-18.11,120.11-93.34,102-167.7ZM104.36,120a138.37,138.37,0,0,0,18.88-91.27A99.85,99.85,0,0,1,178,49.39a98.17,98.17,0,0,1,35.58,54.92A99.28,99.28,0,0,1,32,178.77,138.34,138.34,0,0,0,104.36,120Zm-85.5,21.44A99.26,99.26,0,0,1,84.08,34.23,99.45,99.45,0,0,1,18.86,141.45ZM-43.28-130.86H14.85l11.78,17.55H-55.06Zm-7.8,29.69H22.65L-14.21-66.91ZM-20.3,147a99.75,99.75,0,0,1-54.35-20.34,98.16,98.16,0,0,1-36-55.23A99.36,99.36,0,0,1-37.7-48.53,98.13,98.13,0,0,1,27.89-42,99.82,99.82,0,0,1,71-3.08,138.8,138.8,0,0,0-20.3,147Zm167.45,103.9A126.57,126.57,0,0,1,.52,177.15c-.22-.51-.43-1-.65-1.54L-.37,175c-.26-.65-.51-1.29-.76-1.94l-.11-.29c-.28-.75-.56-1.5-.83-2.25l0-.07c-.29-.81-.57-1.63-.85-2.45h0c-.28-.83-.55-1.67-.8-2.5l-.06-.18q-.36-1.17-.7-2.34c-.07-.25-.14-.52-.22-.77q-.25-.89-.49-1.78-.35-1.29-.66-2.61c-.22-.88-.42-1.77-.62-2.66l-.22-1.05c-.09-.41-.17-.81-.25-1.21s-.11-.52-.16-.8l0-.11A126.65,126.65,0,0,1,76.59,7.82a99.62,99.62,0,0,1,5.06,14.41A111.37,111.37,0,0,0,8.15,150.56h0a.12.12,0,0,0,0,0q.15.72.31,1.44c.16.75.33,1.44.49,2.12q.36,1.48.76,2.94l.2.71c.21.76.43,1.51.65,2.26.07.23.14.45.21.68.24.79.5,1.58.75,2.36l.16.47q.46,1.36.95,2.7l0,.1A111.53,111.53,0,0,0,117,239.22,111.54,111.54,0,0,0,225.38,101.43a110.19,110.19,0,0,0-39.94-61.64A112,112,0,0,0,121,16.46c-.11-.48-.22-.95-.34-1.42a139.56,139.56,0,0,0-4.17-13.91,126.67,126.67,0,0,1,30.68,249.73Zm0,0" transform="translate(154 144)"/></svg>