<svg id="Layer_1" data-name="Layer 1" xmlns="http://www.w3.org/2000/svg" viewBox="0 0 306.31 411.6"><defs><style>.cls-1{fill:none;stroke:#231f20;stroke-miterlimit:10;stroke-width:2px;}</style></defs><title>035-balloons</title><path class="cls-1" d="M150.3-76.81l-.39-.1-.37-.07c-1.35-.27-2.71-.49-4.07-.68a6,6,0,0,0-6.76,5.15,6,6,0,0,0,5.15,6.77c1.13.15,2.28.34,3.41.57,31.3,8,50.8,40.76,43.49,73.09-4.71,20.81-18.88,43-38.88,60.78-18.72,16.67-34.8,22.84-39.81,21.77h0C106.52,89.17,93.82,74.73,84.37,51A6,6,0,0,0,73.2,55.41c9,22.68,20,37,29,43.29-13.63,25-34.78,65.52-44,87.35h0V39.54C70.39,35.45,85.35,20.45,96,5.57c10-14,26.75-42.29,26.75-74.86,0-39.58-31.46-72.59-70.18-73.7h-.79C13-141.88-18.42-108.86-18.42-69.29c0,32.57,16.76,60.88,26.75,74.86,10.62,14.87,25.58,29.87,37.8,34V186.05h0c-8.85-21-29.88-61.55-43.9-87.41,8.92-6.32,19.85-20.55,28.82-43a6,6,0,0,0-11.16-4.46c-9.44,23.65-22.1,38-27.61,39.31h0c-5,1.07-21.1-5.1-39.81-21.77-20-17.81-34.18-40-38.88-60.78C-93.76-24.41-74.26-57.17-43-65.18c1.22-.24,2.46-.44,3.7-.6a6,6,0,0,0,5.18-6.74,6,6,0,0,0-6.74-5.18c-1.47.19-3,.43-4.41.72l-.38.07-.39.1C-83.51-67.19-106.91-28-98.17,10.57-91,42.33-68.39,66.25-55.56,77.67c14.34,12.77,33.38,24.64,46.29,24.9,15.59,28,29.59,55.73,39.62,78.35-6-4-13.48-7.59-20.77-7.64a19.54,19.54,0,0,0-14.31,5.81c-1.36,1.36-2.16,3.22-3.16,7.35a89.34,89.34,0,0,0,0,41.65c1,4.18,1.8,6.06,3.18,7.43a19.56,19.56,0,0,0,14.14,5.81h.17c11.74-.09,23.86-9.34,29.89-14.69A12.12,12.12,0,0,0,46,228.56h.12v32a6,6,0,0,0,12,0v-32h.55a12.11,12.11,0,0,0,6.55-1.93c6,5.36,18.16,14.6,29.89,14.69h.16a19.56,19.56,0,0,0,14.14-5.81c1.37-1.37,2.17-3.24,3.18-7.43a89.39,89.39,0,0,0,0-41.65c-1-4.13-1.8-6-3.16-7.35a19.65,19.65,0,0,0-14.3-5.81c-7.24.05-14.63,3.6-20.64,7.56,10.29-22.64,24.56-50.4,40.18-78.32,12.88-.87,31.25-12.43,45.2-24.85,12.83-11.43,35.42-35.34,42.61-67.1,8.73-38.6-14.66-77.75-52.18-87.38ZM33.82,215.48C29.21,220,17.92,229.25,9.48,229.3a7.49,7.49,0,0,1-5.07-1.7c-.14-.43-.34-1.15-.62-2.31a77.25,77.25,0,0,1,0-36c.27-1.13.48-1.84.61-2.25a7.6,7.6,0,0,1,5.07-1.71c8.42.05,19.69,9.32,24.34,13.82ZM18.11-1.42C2.54-23.21-6.39-47.95-6.39-69.29c0-33.14,26.25-60.79,58.55-61.69,32.29.9,58.55,28.54,58.55,61.69,0,21.34-8.93,46.07-24.51,67.86-14.59,20.41-28.93,30-34,30s-19.45-9.61-34-30Zm40.75,217.8a.17.17,0,0,1-.16.15H46a.17.17,0,0,1-.17-.17s0,0,0,0V198.23a.17.17,0,0,1,.17-.15H58.7a.18.18,0,0,1,.17.18Zm36.37-31.08A7.57,7.57,0,0,1,100.3,187c.13.42.34,1.13.61,2.25a77.27,77.27,0,0,1,0,36c-.28,1.16-.49,1.88-.62,2.31a7.53,7.53,0,0,1-5.06,1.7c-8.43-.05-19.7-9.31-24.34-13.82V199.13c4.6-4.48,15.89-13.77,24.34-13.82Zm0,0" transform="translate(101 144)"/></svg>