<svg id="Layer_1" data-name="Layer 1" xmlns="http://www.w3.org/2000/svg" viewBox="0 0 381.93 411.6"><defs><style>.cls-1{fill:none;stroke:#231f20;stroke-miterlimit:10;stroke-width:2px;}</style></defs><title>036-flower</title><path class="cls-1" d="M29.67,142.06a6,6,0,0,0-12,.58L21.76,227a6,6,0,0,0,6,5.71h.3a6,6,0,0,0,5.71-6.29Zm0,0" transform="translate(139 144)"/><path class="cls-1" d="M80.55,136.35a6,6,0,0,0-6.29,5.71l-4.09,84.35a6,6,0,0,0,5.71,6.29h.3a6,6,0,0,0,6-5.71l4.09-84.35a6,6,0,0,0-5.71-6.29Zm0,0" transform="translate(139 144)"/><path class="cls-1" d="M-14.65,226.7l-6.67-45.85a6,6,0,0,0-6.81-5.08,6,6,0,0,0-5.08,6.8l6.67,45.85a6,6,0,0,0,5.93,5.14,6.65,6.65,0,0,0,.87-.06,6,6,0,0,0,5.08-6.81Zm0,0" transform="translate(139 144)"/><path class="cls-1" d="M-25.34,153.17l-1.57-10.82a6,6,0,0,0-6.81-5.08,6,6,0,0,0-5.08,6.81l1.57,10.82A6,6,0,0,0-31.29,160a6,6,0,0,0,.87-.06,6,6,0,0,0,5.08-6.81Zm0,0" transform="translate(139 144)"/><path class="cls-1" d="M126.88,211.7a6,6,0,0,0-6.81,5.08l-1.44,9.91a6,6,0,0,0,11.89,1.73l1.44-9.91a6,6,0,0,0-5.08-6.81Zm0,0" transform="translate(139 144)"/><path class="cls-1" d="M137.71,137.27a6,6,0,0,0-6.81,5.08l-6.8,46.78A6,6,0,0,0,136,190.86l6.8-46.78a6,6,0,0,0-5.08-6.81Zm0,0" transform="translate(139 144)"/><path class="cls-1" d="M222.32,73.38H215.5a51.68,51.68,0,0,0-10.18-30.62V10.35C205.32-74.21,136.52-143,52-143S-101.39-74.21-101.39,10.35v31.2a6,6,0,0,0,.1,1.07,50.65,50.65,0,0,0-7.36,13.8,50.08,50.08,0,0,0-2.92,17h-6.83A19.63,19.63,0,0,0-138,93a19.63,19.63,0,0,0,19.6,19.61h4.57l38.67,125.88A39.61,39.61,0,0,0-37.1,266.6H141a39.6,39.6,0,0,0,38.05-28.12L217.75,112.6h4.57a19.61,19.61,0,0,0,0-39.21Zm-25.7-22.13a39.59,39.59,0,0,1,4.62,9.17,38,38,0,0,1,2.25,13H167.57a25.7,25.7,0,0,0-49.84,0H83a38,38,0,0,1,2.25-13C87.49,54,91.31,48.28,95.7,44.84a18,18,0,0,1,4-2.41l.12,0a9.25,9.25,0,0,1,4.63-.75l.2,0,.49.09c.23.05.46.12.69.2a18,18,0,0,1,4.81,2.9A6,6,0,0,0,120,38a21.36,21.36,0,0,1-1.61-6.82,6.84,6.84,0,0,1,.49-2.48A25.86,25.86,0,0,0,122,24.39c4.13-3.71,11.49-6.59,20.62-6.59,6.8,0,13.38,1.7,18.07,4.66,3.93,2.5,6.2,5.68,6.2,8.69a23.65,23.65,0,0,1-2.11,8.07,6,6,0,0,0,9.48,6.86,20.84,20.84,0,0,1,6.3-4.12c3.88-1.36,8,1.22,10.16,2.89a25.63,25.63,0,0,1,2.74,2.51,6,6,0,0,0,3.13,3.89ZM154.8,73.38H130.49a13.68,13.68,0,0,1,24.31,0ZM51.38,54a25.7,25.7,0,0,0-19.5,9A52.65,52.65,0,0,0,30,56.43a51.91,51.91,0,0,0-5.11-10.59A6,6,0,0,0,28.72,38a21.34,21.34,0,0,1-1.61-6.82c0-4.18,4.11-8.38,10.74-11h0A37.74,37.74,0,0,1,51.38,17.8c14.3,0,24.27,7,24.27,13.35a23.62,23.62,0,0,1-2.11,8.07,6,6,0,0,0,2,7.2,5.93,5.93,0,0,0,2.46,1,52.18,52.18,0,0,0-4.14,9,52.92,52.92,0,0,0-2.07,7.7A25.74,25.74,0,0,0,51.38,54ZM63.54,73.38H39.23a13.68,13.68,0,0,1,24.31,0ZM2.91-14.35A25.76,25.76,0,0,0-22.68,8.73,49.9,49.9,0,0,0-39.88,5.79c-.7,0-1.39,0-2.08,0l-.37,0c-.61,0-1.21.07-1.82.11h-.17a48.72,48.72,0,0,0-12.2,2.55,36.28,36.28,0,0,1,2-16.42c4.75-13.5,14.7-20.56,20.65-18.46a17.8,17.8,0,0,1,4.81,2.89,6,6,0,0,0,7.27.09,6,6,0,0,0,2-7,21.22,21.22,0,0,1-1.61-6.82c0-6.32,10-13.35,24.27-13.35s24.27,7,24.27,13.35a23.6,23.6,0,0,1-2.11,8.07,6,6,0,0,0,2,7.2,6,6,0,0,0,7.47-.34,31.33,31.33,0,0,1,3.13-2.43l-.22.31-.6.88-.36.55-.56.88-.35.59c-.18.29-.35.59-.52.89l-.35.62c-.17.3-.33.6-.49.91l-.33.64-.46.94-.31.64-.45,1c-.09.21-.19.41-.28.63-.16.36-.3.73-.46,1.11-.07.18-.15.36-.22.54-.22.55-.43,1.12-.63,1.68s-.38,1.13-.56,1.69l-.16.53L30-8.47l-.16.59c-.11.4-.21.81-.3,1.21l-.12.51q-.2.85-.36,1.7s0,.09,0,.14c-.1.52-.19,1-.27,1.56,0,.18,0,.36-.08.53-.06.4-.11.79-.16,1.19l-.07.57Q28.4.15,28.34.76c0,.16,0,.32,0,.47,0,.56-.07,1.12-.1,1.67,0,.08,0,.16,0,.23,0,.48,0,.95,0,1.42,0,.18,0,.35,0,.53,0,.38,0,.76,0,1.14,0,.18,0,.36,0,.55a.82.82,0,0,1,0,.09A25.75,25.75,0,0,0,2.91-14.35ZM16.62,11.37A13.69,13.69,0,0,1-6.16,21.63a23.67,23.67,0,0,0-3.39-4.56,13.63,13.63,0,0,1-1.25-5.7A13.73,13.73,0,0,1,2.91-2.34,13.73,13.73,0,0,1,16.62,11.37Zm12.07-.13-.06,0c0-.18,0-.36,0-.53,0,.16,0,.33.07.5Zm45.45,0A47.14,47.14,0,0,0,51.38,5.79,52.1,52.1,0,0,0,40.27,7s0,0,0,0c0-.52-.06-1-.07-1.57,0-.14,0-.28,0-.43q0-.62,0-1.25c0-.14,0-.29,0-.43,0-.55.06-1.09.11-1.65,0-.07,0-.14,0-.21,0-.49.11-1,.17-1.48,0-.16,0-.32.07-.49.07-.46.14-.91.23-1.38,0-.11,0-.23.06-.35.11-.56.23-1.12.37-1.68l.11-.42c.11-.44.23-.88.36-1.32l.15-.49q.25-.84.54-1.68h0c.15-.44.32-.88.48-1.31l.19-.46c.11-.27.22-.54.34-.81l.25-.57.3-.66.31-.63.27-.55.36-.68.24-.43.42-.75.1-.16c.55-.93,1.13-1.82,1.73-2.66l.2-.29.49-.65.28-.36.46-.58.34-.41.44-.5.42-.46.38-.41.61-.61.22-.21c.29-.28.59-.55.89-.8h0A20.71,20.71,0,0,1,55-24.92h0c2.23-1.32,5.2-2.43,8-1.43a17.93,17.93,0,0,1,4.82,2.89,6,6,0,0,0,7.26.1,6,6,0,0,0,2-7,21.24,21.24,0,0,1-1.6-6.82c0-6.32,10-13.35,24.27-13.35s24.27,7,24.27,13.35A23.55,23.55,0,0,1,122-29.1a6,6,0,0,0,2,7.2,6,6,0,0,0,7.47-.34,20.8,20.8,0,0,1,6.3-4.12c3.88-1.37,8,1.22,10.16,2.89,4.39,3.43,8.21,9.11,10.49,15.58a36,36,0,0,1,1.94,16.83A48.12,48.12,0,0,0,147.45,6l-.31,0-1.82-.12-.49,0c-.72,0-1.45,0-2.18,0a53.35,53.35,0,0,0-7.16.47h0a47.51,47.51,0,0,0-10,2.46,25.72,25.72,0,0,0-51.3,2.53Zm39.43.11a13.67,13.67,0,0,1-1.25,5.69,23.5,23.5,0,0,0-3.39,4.56,13.69,13.69,0,1,1,4.64-10.25Zm-202.94-1C-89.38-67.58-26-131,52-131S193.3-67.58,193.3,10.35V32.27A21.69,21.69,0,0,0,178.89,30c-.34-5.56-3.14-10.6-7.66-14.63,2.35-8,1.88-17.78-1.45-27.24-3.06-8.7-8.18-16.17-14.42-21.05s-13-6.71-19.26-5.39c-.84-13.66-16.46-24.2-36.24-24.2s-35.25,10.43-36.23,24A21.47,21.47,0,0,0,52-36.81a21.07,21.07,0,0,0-12.82-1.52C38.31-52,22.69-62.53,2.91-62.53s-35.24,10.42-36.23,24c-12.59-1.9-26.35,9.09-32.54,26.66-3.2,9.11-3.76,18.62-1.67,26.45-5,4.1-8.16,9.36-8.59,15.22a22.07,22.07,0,0,0-13.27,2.49Zm-7.94,50.07C-95,54-91.22,48.28-86.83,44.84c2.13-1.66,6.28-4.25,10.16-2.89a18,18,0,0,1,4.81,2.9,6,6,0,0,0,7.26.09,6,6,0,0,0,2-7,21.36,21.36,0,0,1-1.61-6.82c0-3.16,2.5-6.51,6.8-9.06l.05,0a33.83,33.83,0,0,1,15-4.2h.09q1.18-.06,2.37-.07c9.13,0,16.49,2.87,20.62,6.59a25.76,25.76,0,0,0,3.15,4.28,6.82,6.82,0,0,1,.5,2.48,23.56,23.56,0,0,1-2.11,8.07,6,6,0,0,0,2,7.2,6,6,0,0,0,.85.51l.31.13c.2.08.4.17.6.24l.38.09c.19,0,.38.09.57.12l.41,0c.14,0,.27,0,.41,0h.34a5.78,5.78,0,0,0,.86-.11l.13,0a6,6,0,0,0,.84-.25l.11,0a6.15,6.15,0,0,0,.82-.41l.06,0a6.2,6.2,0,0,0,.79-.58c.83-.72,1.59-1.32,2.27-1.82a16.4,16.4,0,0,1,4-2.3,6.27,6.27,0,0,1,.7-.2l.47-.09.22,0a9.24,9.24,0,0,1,4.62.75l.14,0a18.15,18.15,0,0,1,4,2.41c4.39,3.43,8.21,9.11,10.49,15.57a37.92,37.92,0,0,1,2.25,13H-15A25.85,25.85,0,0,0-39.88,54,25.86,25.86,0,0,0-64.81,73.39H-99.56a37.88,37.88,0,0,1,2.25-13Zm69.59,13H-52A13.77,13.77,0,0,1-39.88,66a13.77,13.77,0,0,1,12.16,7.4ZM167.6,235A27.65,27.65,0,0,1,141,254.59H-37.1A27.66,27.66,0,0,1-63.68,235L-101.26,112.6H205.19Zm54.72-134.37H-118.4A7.6,7.6,0,0,1-126,93a7.6,7.6,0,0,1,7.59-7.59H222.32a7.6,7.6,0,1,1,0,15.19Zm0,0" transform="translate(139 144)"/></svg>