<svg id="Layer_1" data-name="Layer 1" xmlns="http://www.w3.org/2000/svg" viewBox="0 0 411.6 195.74"><defs><style>.cls-1{fill:none;stroke:#231f20;stroke-miterlimit:10;stroke-width:2px;}</style></defs><title>037-lips</title><path class="cls-1" d="M256.48,56.61a6,6,0,0,0-4-4.5L252,52l-.14,0L249,51.32c-27.92-7.11-56.77-27.89-68.68-37.18-1.23-1-2.28-1.8-3.13-2.48-43.09-34.83-69.3-48-90.5-45.33a38.94,38.94,0,0,0-6.44,1.35c-9.05,2.72-17,8.8-24.28,18.43-.58.77-1.14,1.57-1.68,2.37a2.85,2.85,0,0,1-2.43,1.3,2.86,2.86,0,0,1-2.43-1.3c-.53-.8-1.09-1.58-1.66-2.34l0,0C38.84-25.7,28.84-32.16,17.12-33.66c-20.44-2.61-46.43,10-86.91,42.32a6,6,0,0,0-.95,8.41,6,6,0,0,0,8.41.95C-25.11-11.63-1.08-23.91,15.61-21.78c8.45,1.08,15.6,5.87,22.52,15.07.45.6.89,1.22,1.31,1.85A14.87,14.87,0,0,0,50.89,1.72c.31,0,.62,0,.93,0a15,15,0,0,0,2.75-.25,16.06,16.06,0,0,0,1.77-.44l.86-.3a14.88,14.88,0,0,0,7-5.61c.42-.63.86-1.25,1.31-1.85,6.94-9.24,14.13-14,22.62-15.09,17.38-2.15,41.75,10.63,81.5,42.76,1.18.95,2.34,1.88,3.5,2.79l.91.71q1.55,1.21,3.09,2.38l.38.28c1.13.85,2.25,1.68,3.36,2.5l.86.63q1.42,1,2.82,2l.57.4q1.63,1.14,3.23,2.23l.78.53,2.63,1.76.68.45c1,.68,2.06,1.34,3.08,2l.68.43,2.51,1.56.72.45,2.93,1.76.55.32,2.43,1.41.74.42,2.78,1.56.35.19,2.42,1.3.72.38L215,50.75l.11.05L217.53,52l.69.34,2.18,1,.3.15,2.34,1.07.27.13A477.12,477.12,0,0,1,112.93,49.7C96.53,47,77,53.86,63.55,60.12l-.11.06a27.81,27.81,0,0,1-23.23,0l-.14-.07C26.6,53.86,7.1,47-9.31,49.7a476.54,476.54,0,0,1-110.44,5.05A228.2,228.2,0,0,0-85.27,35.29,6,6,0,0,0-83.67,27,6,6,0,0,0-92,25.38c-26.17,17.75-45.85,24-53.2,25.9l-3.07.66-.14,0-.42.13a6,6,0,0,0-4.07,4.52A6,6,0,0,0-151,62.26a6.09,6.09,0,0,0,1,.72l.13.09c9,6.07,40.12,27.87,60.49,53.43,17.71,22.23,35,34.53,56.1,39.9,9.81,2.5,20,3.34,30.93,3.34,10.43,0,21.46-.77,33.28-1.6,6.68-.47,13.59-1,20.91-1.34,7.32.39,14.23.87,20.91,1.34,46.54,3.26,80.17,5.62,116.37-36.86a6,6,0,0,0-9.12-7.77c-32.28,37.87-60.19,35.92-106.42,32.68-6.83-.48-13.89-1-21.43-1.37a5.52,5.52,0,0,0-.63,0c-7.54.4-14.6.89-21.43,1.37C-17.48,149.53-46.18,151.54-80,109-93.47,92.18-111.18,77-124.84,66.43A484.41,484.41,0,0,0-7.36,61.51C3.1,59.78,18.15,63.14,35,71l.09,0,.08,0a39.76,39.76,0,0,0,33.25,0l.07,0,.08,0c16.88-7.83,31.93-11.2,42.38-9.47a484.6,484.6,0,0,0,117.47,4.92,317,317,0,0,0-29.29,25.46,6,6,0,1,0,8.44,8.49c18.17-18,38.16-32.11,45.91-37.31h0a6,6,0,0,0,2.95-6.44Zm0,0" transform="translate(154 35)"/></svg>