<svg id="Layer_1" data-name="Layer 1" xmlns="http://www.w3.org/2000/svg" viewBox="0 0 411.6 369.69"><defs><style>.cls-1{fill:none;stroke:#231f20;stroke-miterlimit:10;stroke-width:2px;}</style></defs><title>039-double-bed</title><path class="cls-1" d="M256.45,149.55l-35-153.44a6,6,0,0,0-5.85-4.67H183.3V-51.27a12.19,12.19,0,0,0-12.18-12.18H92.5A12.19,12.19,0,0,0,80.32-51.27V-8.56h-57V-51.27A12.19,12.19,0,0,0,11.1-63.45H-67.52A12.19,12.19,0,0,0-79.7-51.27V-8.56H-112a6,6,0,0,0-5.86,4.67l-35,153.44a5.94,5.94,0,0,0-.15,1.33v36.49a19.24,19.24,0,0,0,19.22,19.22h12.46v25.3a14.81,14.81,0,0,0,14.79,14.79h24.46a14.76,14.76,0,0,0,14.58-12.27l4.81-27.82H166.27l4.81,27.82a14.76,14.76,0,0,0,14.58,12.27h24.46a14.81,14.81,0,0,0,14.79-14.79V206.6h12.46a19.24,19.24,0,0,0,19.22-19.22V150.89a5.89,5.89,0,0,0-.15-1.34ZM92.32-51.27a.18.18,0,0,1,.18-.17h78.63a.17.17,0,0,1,.17.17V-8.56h-79Zm-160,0a.17.17,0,0,1,.17-.17H11.1a.17.17,0,0,1,.17.17V-8.56h-79ZM-107.22,3.45h318l32.34,141.79H-139.55Zm27.91,228.93a2.78,2.78,0,0,1-2.75,2.31h-24.46a2.79,2.79,0,0,1-2.79-2.79V206.6h34.46Zm292.22-.48a2.79,2.79,0,0,1-2.79,2.79H185.66a2.79,2.79,0,0,1-2.75-2.31l-4.45-25.78h34.45Zm31.69-44.52a7.22,7.22,0,0,1-7.21,7.21H-133.78a7.23,7.23,0,0,1-7.22-7.21V157.25H244.59Zm0,0" transform="translate(154 122)"/><path class="cls-1" d="M105.66,45.41c-2.83-14.27-17.66-25-34.48-25A34.9,34.9,0,0,0,51.8,26a34.91,34.91,0,0,0-19.38-5.64c-16.83,0-31.65,10.76-34.49,25-7.11,35.8,49.27,58.3,51.67,59.24a6,6,0,0,0,4.38,0c2.4-.94,58.78-23.45,51.67-59.24ZM51.8,92.57C36.88,86.2,5.64,68.24,9.71,47.75c1.68-8.47,11.87-15.37,22.71-15.37,6,0,11.56,2,15.14,5.6A6,6,0,0,0,56,38c3.58-3.56,9.1-5.6,15.14-5.6,10.84,0,21,6.9,22.71,15.37C98,68.24,66.72,86.2,51.8,92.57Zm0,0" transform="translate(154 122)"/><path class="cls-1" d="M195.25-121H-91.65a26,26,0,0,0-26,26v64.56a6,6,0,0,0,6,6,6,6,0,0,0,6-6V-95A14,14,0,0,1-91.65-109H195.25A14,14,0,0,1,209.2-95v64.56a6,6,0,0,0,6,6,6,6,0,0,0,6-6V-95a26,26,0,0,0-26-26Zm0,0" transform="translate(154 122)"/></svg>