<svg id="Layer_1" data-name="Layer 1" xmlns="http://www.w3.org/2000/svg" viewBox="0 0 385.51 411.6"><defs><style>.cls-1{fill:none;stroke:#231f20;stroke-miterlimit:10;stroke-width:2px;}</style></defs><title>040-necklace</title><path class="cls-1" d="M211.32-57.66l-49.27-10.5c-.54-.11-1.08-.25-1.61-.37a6.27,6.27,0,0,0-1-.26,58,58,0,0,1-43-49.62l-.56-6.72a5.93,5.93,0,0,0-.35-1.59s0-.08,0-.12-.05-.21-.09-.31-.08-.26-.12-.38-.08-.21-.11-.31l-.15-.36-.14-.3-.18-.35-.16-.29-.21-.34-.18-.27-.24-.32-.2-.26-.28-.33-.2-.23c-.12-.13-.25-.26-.37-.38l-.25-.24-.46-.42-.26-.21-.35-.28-.3-.23-.34-.25-.32-.23-.35-.23-.35-.22-.36-.22-.37-.21-.37-.21-.38-.2-.39-.19-.39-.2-.4-.19-.4-.18-.41-.18-.41-.18-.43-.17-.42-.17-.46-.17-.82-.3-.44-.15-.46-.15-.43-.15-.47-.15-.44-.13-.48-.14-.45-.13-.48-.13-.45-.12-.47-.12-.47-.12L98.4-138l-.47-.12-.46-.11-.48-.11-.46-.11-.48-.11-.45-.1-.51-.11-.42-.09L94-139l-.27-.05c-11.5-2.35-26.71-3.65-42.82-3.65S19.6-141.38,8.09-139l-.92.19-.35.07-.57.13-.41.09-.52.12-.43.1-.51.12-.43.1-.5.13-.44.11-.5.13-.44.12-.48.14-.44.12-.49.14-.43.12-.5.16-.41.13-.63.21-.45.16-.67.23-.35.13-.51.19-.37.15-.47.19-.38.16-.45.19-.37.17-.43.2-.36.17-.42.21-.34.18-.42.23-.32.19-.41.25-.29.18-.43.29L-9-133l-.58.43-.06,0c-.21.16-.41.32-.61.49l-.19.17-.38.34-.21.21-.32.33-.21.23-.28.33-.19.25-.25.34-.18.26-.22.36-.15.26c-.07.12-.13.25-.2.38l-.13.27-.17.4-.1.26c-.05.15-.1.31-.15.46l-.07.23a.21.21,0,0,1,0,0,6.06,6.06,0,0,0-.38,1.68l-.56,6.8a58,58,0,0,1-43,49.62,5.88,5.88,0,0,0-1,.25l-1.61.38-53.25,11.34a34.57,34.57,0,0,0-27.44,36c1,16.89,3.5,44,14.46,84.49a6,6,0,0,0,7.36,4.23,6,6,0,0,0,4.23-7.37c-10.67-39.37-13.13-65.67-14.05-82a22.61,22.61,0,0,1,18-23.52l48.59-10.35a105.44,105.44,0,0,0,15,46.64C-46.33-7-45.2-5.33-44-3.63v27.5c-.13.19-.27.37-.38.57L-58.5,48.73a7.73,7.73,0,0,0,0,7.73l14.07,24.29a7.74,7.74,0,0,0,6.68,3.85,7.75,7.75,0,0,0,6.68-3.85L-17,56.47a7.73,7.73,0,0,0,0-7.74L-31.07,24.45a7.58,7.58,0,0,0-1-1.29V11.36C-20.86,23.32-6.78,34,10.09,43.22A85.15,85.15,0,0,0,45,53.5a6,6,0,0,0-.07.88v9.85c-7.66-3.11-16.71-2.44-24.85,2.41A22.19,22.19,0,0,0,9.9,80.28c-8.45,34.28,36.9,52.45,38.83,53.21a6,6,0,0,0,4.38,0A92.5,92.5,0,0,0,75,120.56c14.65-11.84,20.49-25.77,16.91-40.28A22.19,22.19,0,0,0,81.79,66.63c-8.14-4.85-17.2-5.51-24.86-2.41V54.38a6,6,0,0,0-.07-.88,85.17,85.17,0,0,0,34.9-10.27C108.34,34.15,122.22,23.69,133.3,12V23.88c-.13.19-.27.37-.38.57L118.85,48.73a7.73,7.73,0,0,0,0,7.73l14.07,24.29a7.71,7.71,0,0,0,13.35,0l14.07-24.29a7.73,7.73,0,0,0,0-7.74L146.27,24.45a7.52,7.52,0,0,0-1-1.29V-2.78c1.37-2,2.69-4,3.91-6a105.49,105.49,0,0,0,15-46.64l44.62,9.5a27.54,27.54,0,0,1,21.66,28.65C228.82,7,224.3,32.43,216.66,60.61A6,6,0,0,0,220.88,68a5.92,5.92,0,0,0,1.57.21,6,6,0,0,0,5.79-4.43c7.85-29,12.5-55.19,14.22-80.21a39.61,39.61,0,0,0-31.14-41.21ZM2.87-125.31c5-1.6,13.41-3.31,24.79-4.35l.63-.05,1.2-.1,1.78-.14.17,0c3.86-.28,7.87-.48,12-.59h.09l2.28,0,1,0,1.47,0h6l2,0H57l1.81,0,.76,0,1.89.07.57,0q2.46.1,4.77.23l.55,0,1.72.11.68.05,1.56.12.66.05,1.6.14.52,0c1.39.13,2.74.27,4,.41l.5.05L80-129l.59.07,1.26.16.58.08,1.29.18.46.07q1.72.25,3.29.52l.43.08,1.1.2.51.09,1,.19.49.1,1,.2.41.09c.89.19,1.72.38,2.52.58l.37.09.78.2.41.11.68.18.39.11.66.2.32.1.83.26.11,0,.79.27.27.1.35.13a69.16,69.16,0,0,1-13.31,3.34,227.55,227.55,0,0,1-36.69,2.71c-25.7,0-42.88-3.33-50-6,.56-.22,1.2-.45,1.94-.69ZM-28.64,52.61l-9.11,15.73-9.11-15.73,9.11-15.73ZM75.64,77a10.1,10.1,0,0,1,4.64,6.21c5.09,20.63-21.44,34.54-29.36,38.2-7.95-3.64-34.46-17.5-29.35-38.2A10.1,10.1,0,0,1,26.2,77,17.25,17.25,0,0,1,35,74.34a14.15,14.15,0,0,1,11.16,5.44,6,6,0,0,0,9.46,0c3.91-5,11.61-7.81,20-2.82Zm73.07-24.35L139.6,68.33l-9.11-15.73,9.11-15.73ZM138.94-15C127.76,3.54,109.95,19.59,86,32.69a72.78,72.78,0,0,1-70.15,0C-8.1,19.59-25.92,3.55-37.09-15A91.82,91.82,0,0,1-50.51-58.36a70,70,0,0,0,47.3-55,72.93,72.93,0,0,0,11.31,3.1c11.5,2.35,26.71,3.65,42.82,3.65s31.32-1.3,42.82-3.65a73.08,73.08,0,0,0,11.31-3.1,70,70,0,0,0,47.3,55A91.88,91.88,0,0,1,138.94-15Zm0,0" transform="translate(141.96 143.68)"/><path class="cls-1" d="M216.22,83.64a6,6,0,0,0-7.55,3.88c-15.5,48.18-39.13,102.64-70.23,161.87a10.31,10.31,0,0,1-9.16,5.52H-27.43a10.3,10.3,0,0,1-9.15-5.52C-67.76,190-91.43,135.47-106.92,87.21a6,6,0,0,0-7.55-3.88,6,6,0,0,0-3.88,7.55C-102.65,139.8-78.71,195-47.22,255a22.28,22.28,0,0,0,19.79,11.95H129.27A22.29,22.29,0,0,0,149.06,255c31.43-59.84,55.33-114.94,71-163.78a6,6,0,0,0-3.88-7.56Zm0,0" transform="translate(141.96 143.68)"/></svg>