<svg id="Layer_1" data-name="Layer 1" xmlns="http://www.w3.org/2000/svg" viewBox="0 0 411.6 352.67"><defs><style>.cls-1{fill:none;stroke:#231f20;stroke-miterlimit:10;stroke-width:2px;}</style></defs><title>041-ticket</title><path class="cls-1" d="M164.65,94.37h0a6,6,0,0,0-6,6l-.05,24.49a6,6,0,0,0,6,6h0a6,6,0,0,0,6-6l.05-24.49a6,6,0,0,0-6-6Zm0,0" transform="translate(154 114.13)"/><path class="cls-1" d="M164.54,146.93h0a6,6,0,0,0-6,6l-.05,24.52a6,6,0,0,0,6,6h0a6,6,0,0,0,6-6l.05-24.52a6,6,0,0,0-6-6Zm0,0" transform="translate(154 114.13)"/><path class="cls-1" d="M131.75,1.3l-12-21.62a6,6,0,0,0-8.2-2.35,6,6,0,0,0-2.35,8.2l12,21.62A6,6,0,0,0,131.75,1.3Zm0,0" transform="translate(154 114.13)"/><path class="cls-1" d="M153.91-111.67l.11-.07-.11.07Zm0,0" transform="translate(154 114.13)"/><path class="cls-1" d="M252.8,42.7,228.65-.88a6,6,0,0,0-2-2.14,6,6,0,0,0-6.2-.21A29.26,29.26,0,0,1,198-.68a29.27,29.27,0,0,1-17.65-14,29.5,29.5,0,0,1,11.5-40.05c.18-.1.35-.21.51-.32s.25-.19.38-.29l.09-.07c.14-.12.28-.25.41-.38l0,0c.13-.13.25-.27.37-.41l0,0a5.18,5.18,0,0,0,.3-.43l0-.05c.09-.14.16-.27.24-.41l.06-.1c.07-.13.13-.27.18-.41l.06-.13a5.62,5.62,0,0,0,.18-.53v-.06c.05-.18.09-.35.13-.53l0-.18c0-.13,0-.27.05-.41s0-.1,0-.15,0-.3,0-.45a.92.92,0,0,0,0-.11c0-.16,0-.32,0-.49a.59.59,0,0,0,0-.07c0-.17,0-.34-.08-.5s0-.05,0-.08-.08-.33-.13-.49l-.07-.18c0-.13-.09-.25-.14-.37s-.17-.36-.27-.54l-4.89-8.82-19.56-35.3a11.71,11.71,0,0,0-15.89-4.57L-147,55a11.71,11.71,0,0,0-4.57,15.89L-127.09,115a6,6,0,0,0,8.19,2.35,29.5,29.5,0,0,1,40.06,11.5,29.28,29.28,0,0,1,3.41,10.25s0,0,0,.07a29.5,29.5,0,0,1-29.46,29.4H-105a6,6,0,0,0-4.25,1.76,6,6,0,0,0-1.77,4.26l-.11,50.45a11.61,11.61,0,0,0,3.41,8.28,11.63,11.63,0,0,0,8.26,3.44l343.94.79h0a11.7,11.7,0,0,0,11.69-11.67l.11-50.45a6,6,0,0,0-6-6,29.47,29.47,0,0,1,.06-58.93h.07a6,6,0,0,0,6-6l.11-53.26a.94.94,0,0,0,0-.11V48.31a6,6,0,0,0-3.8-5.61Zm-362.51,5.7-.19.45c-.09.21-.17.43-.24.66s-.11.36-.16.55-.12.41-.16.62-.09.47-.13.71-.06.33-.07.5a11.13,11.13,0,0,0-.07,1.26V54l-.09,48a41.13,41.13,0,0,0-8.41,2.19l-21.56-38.91L-109.56,48c-.06.12-.1.24-.15.36ZM84.35-59.36l11.1,20a6,6,0,0,0,8.2,2.35,6,6,0,0,0,2.35-8.2l-11.09-20,64.53-35.74L181-62a41.61,41.61,0,0,0-16.3,31.55c0,1.22,0,2.44,0,3.66a41,41,0,0,0,1,7.31,41.43,41.43,0,0,0,4.1,10.62c.43.77.88,1.52,1.35,2.25l.35.53c.43.65.87,1.28,1.33,1.9L173-4a41.21,41.21,0,0,0,21.68,14.89,41.24,41.24,0,0,0,26.1-1l17.94,32.38-84.43-.19L145.27,25.7a6,6,0,0,0-10.55,5.84L140.52,42,87.25,41.9a58.53,58.53,0,0,0-6.95-22.36A44.73,44.73,0,0,0,19.5,2.08,44.45,44.45,0,0,0-1.36,27.36a44.46,44.46,0,0,0-32.49,4.29,44.34,44.34,0,0,0-12.21,10l-51.66-.12ZM75.11,41.87-27,41.64A32.5,32.5,0,0,1,.6,40.7a6,6,0,0,0,8.3-4.6A32.68,32.68,0,0,1,69.76,25.38a46.23,46.23,0,0,1,5.35,16.49ZM244.43,98.8a41.53,41.53,0,0,0-.18,82.18l-.09,44.49-73.76-.17,0-19.75a6,6,0,0,0-6-6h0a6,6,0,0,0-6,6l0,19.74-257.39-.59.1-44.48A41.24,41.24,0,0,0-75.6,168.52a41.25,41.25,0,0,0,12.22-29.34c0-.17,0-.34,0-.5s0-.17,0-.26c-.31-19.78-14.57-34.14-35.39-36.5l.1-48.4,257.39.59,0,18.16a6,6,0,0,0,6,6h0a6,6,0,0,0,6-6l0-18.15,73.76.17Zm0,0" transform="translate(154 114.13)"/><path class="cls-1" d="M103.75,89.43a44.43,44.43,0,0,0-31.6-13.17h-.1A44.43,44.43,0,0,0,41.63,88.19,44.43,44.43,0,0,0,11.16,76.13h-.1a44.78,44.78,0,0,0-44.73,44.64c-.05,21.87,12.71,43,36.9,61a172.41,172.41,0,0,0,36,20.47,6,6,0,0,0,2.21.42,6.09,6.09,0,0,0,2.18-.41,172.66,172.66,0,0,0,36-20.32c24.27-17.94,37.12-39,37.17-60.85a44.44,44.44,0,0,0-13-31.66ZM41.41,190.09c-11.39-5-63.1-29.95-63-69.3a32.71,32.71,0,0,1,32.67-32.6h.07A32.49,32.49,0,0,1,36.85,100.8a6,6,0,0,0,4.74,2.32h0a6,6,0,0,0,4.74-2.31,32.51,32.51,0,0,1,25.71-12.5h.07a32.67,32.67,0,0,1,32.61,32.75c-.09,39.28-51.93,64.05-63.32,69Zm0,0" transform="translate(154 114.13)"/></svg>