<svg id="Layer_1" data-name="Layer 1" xmlns="http://www.w3.org/2000/svg" viewBox="0 0 325.87 411.6"><defs><style>.cls-1{fill:none;stroke:#231f20;stroke-miterlimit:10;stroke-width:2px;}</style></defs><title>042-wedding-suit</title><path class="cls-1" d="M20.56,180h-39a9.09,9.09,0,0,0-9.08,9.07V205.9A9.09,9.09,0,0,0-18.43,215h39a9.09,9.09,0,0,0,9.08-9.08V189.12A9.09,9.09,0,0,0,20.56,180ZM17.61,203H-15.48V192.07H17.61Zm0,0" transform="translate(111 144)"/><path class="cls-1" d="M122.11,180h-39A9.09,9.09,0,0,0,74,189.12V205.9A9.09,9.09,0,0,0,83.12,215h39a9.09,9.09,0,0,0,9.08-9.08V189.12a9.09,9.09,0,0,0-9.08-9.07ZM119.16,203H86.07V192.07h33.09Zm0,0" transform="translate(111 144)"/><path class="cls-1" d="M212.31,53.28c0-47.58-28.73-115.54-29.95-118.41a6,6,0,0,0-4-3.46c-5.44-1.94-57.46-20.49-78.62-29.18l-.05,0c-1.86-1.14-5.53-8.84-7.9-18.16l-.51-15.83A11.52,11.52,0,0,0,79.72-143H26.48a11.52,11.52,0,0,0-11.57,11.2L14.41-116c-.71,2.79-1.53,5.43-2.38,7.79l-.18.5-.31.84-.35.88c-.06.15-.12.3-.18.44-.12.31-.25.59-.37.89l-.18.42-.32.72-.25.55-.23.47c-.12.24-.23.48-.35.7l-.12.24c-.15.28-.29.55-.43.8l0,.06a17.7,17.7,0,0,1-.95,1.53h0c-.15.21-.29.4-.43.57l0,0a4.87,4.87,0,0,1-.37.4,2.47,2.47,0,0,1-.37.29l-.09.05L6-97.6c-21.41,8.77-72.77,27.08-78.19,29a6,6,0,0,0-4,3.46c-1.23,2.87-29.95,70.86-29.95,118.41,0,36.8-2.71,148.46-3.89,194.76a17.94,17.94,0,0,0,5.14,13.09,18,18,0,0,0,13,5.47H195.76a18.11,18.11,0,0,0,18.11-18.29c-.47-46.34-1.56-158.11-1.56-195ZM87.57-93.89l.06.09c.27.43.55.85.84,1.26l.16.23c.27.38.55.73.83,1.09l.32.4c.27.33.55.64.84.94l.11.13L87.56-72.69,64.94-88.43a83.57,83.57,0,0,0,18.53-13.89,50.28,50.28,0,0,0,4.11,8.44ZM85.16-59.71,76.46-12.77,70.87-58.6l3.93-8.32ZM26.92-131H79.28l.46,14.39c-7.8,11.23-21.39,18.27-26.65,20.69-5.26-2.41-18.81-9.41-26.64-20.69ZM64.79-73.89,61-65.83H45.23l-3.81-8.06L53.1-82Zm-49.19-16c.29-.3.57-.62.84-.95l.32-.39c.28-.35.56-.71.83-1.09l.16-.23c.29-.41.57-.83.84-1.26l.06-.09a50.58,50.58,0,0,0,4.1-8.44A83.6,83.6,0,0,0,41.27-88.43L18.65-72.69l-1-5.35L15.48-89.77l.11-.12ZM35.34-58.6l-5.6,45.83L21-59.71l10.36-7.21ZM-63.22,254.57H-91.89a6,6,0,0,1-4.36-1.84A6,6,0,0,1-98,248.34C-96.8,202-94.08,90.22-94.08,53.28c0-31.74,13.76-73.71,22.33-96.78,5.23,20.33,13.83,55.18,20.24,88.35C-59.94,70-62.49,195-63.22,254.57Zm110.31,0h-98l.43-7.42c2.21-22.77,6.07-41.53,9.81-59.66,5.27-25.57,10.24-49.72,9.53-80.73,0-1.51-.1-3.11-.19-4.76,0-.13,0-.27,0-.4,0-.66-.08-1.34-.12-2,0-.3,0-.61-.06-.92,0-.6-.09-1.2-.13-1.82,0-.46-.07-.91-.11-1.37s-.09-1-.13-1.55c-.07-.75-.14-1.51-.21-2.29,0-.26,0-.52-.07-.78C-37.16,41.34-57.63-37.51-63.35-59-55.72-61.69-40.9-67-25.81-72.58c-2.35,4.41-4.9,9.35-7.7,14.87a6,6,0,0,0-.09,5.25,6,6,0,0,0,4.08,3.32l15.84,3.73-6.59,8.14a6,6,0,0,0-.95,5.93l7.86,20.58A6,6,0,0,0-5.59-7.28a6,6,0,0,0,3.47-7.77L-8.74-32.39,1.69-45.29a6,6,0,0,0,1-5.73A6,6,0,0,0-1.6-54.93l-17.69-4.16c4.14-8,7.68-14.56,10.72-19.85C-3.7-80.8.61-82.48,4.33-84L35.17,82.63,7.87,11.11A6,6,0,0,0-3.37,15.4L47.09,147.58Zm-96.55-84.28c1.18-38.2,2.71-66.52,4.37-86.38,1.08,8.57,1.77,16.43,1.93,23.12q.06,2.7.06,5.32c0,.18,0,.37,0,.55,0,1.53,0,3,0,4.55,0,.28,0,.57,0,.85q-.05,2.26-.15,4.48c0,.15,0,.31,0,.46-.15,3.38-.37,6.68-.64,9.92,0,.09,0,.18,0,.28q-.19,2.24-.42,4.45c0,.2,0,.39-.06.59-.16,1.48-.32,3-.5,4.42l0,.19c-.59,4.79-1.29,9.47-2.06,14.11l0,.09c-.73,4.36-1.53,8.67-2.37,13ZM37,26.65,46.87-53.8H59.33l9.83,80.45L53.1,113.43ZM59.12,254.57v-107L109.58,15.4a6,6,0,0,0-11.24-4.29L71,82.64,101.87-84q5.58,2.21,12.91,5c3,5.29,6.58,11.84,10.72,19.85l-17.69,4.16A6,6,0,0,0,103.49-51a6,6,0,0,0,1,5.73l10.44,12.89L108.33-15a6,6,0,0,0,3.47,7.76,6,6,0,0,0,7.77-3.47l7.86-20.58a6,6,0,0,0-.94-5.93l-6.59-8.14,15.84-3.72a6,6,0,0,0,4.08-3.32,6,6,0,0,0-.09-5.25c-2.8-5.52-5.35-10.45-7.7-14.86C147.1-67,161.92-61.69,169.56-59c-6,22.44-28.11,107.66-31.74,156.43,0,.19,0,.37,0,.55-.05.81-.11,1.61-.16,2.39l0,.74c0,.74-.07,1.46-.11,2.18,0,.24,0,.48,0,.72,0,.92-.07,1.82-.09,2.71-.13,5.82-.07,11.39.16,16.77,1,23.34,5.09,43.18,9.36,64,3.74,18.14,7.6,36.89,9.81,59.66l.43,7.41Zm96.56-84.25c-.24-1.24-.48-2.48-.72-3.72l-.07-.38q-.36-1.92-.71-3.84c-.08-.45-.16-.91-.24-1.36-.17-1-.34-2-.51-3-.09-.5-.17-1-.25-1.51q-.25-1.5-.48-3l-.21-1.35c-.22-1.44-.43-2.89-.64-4.34,0-.07,0-.15,0-.23q-.29-2.06-.54-4.14l-.16-1.39q-.18-1.54-.35-3.1l-.16-1.57c-.1-1-.21-2.1-.3-3.17,0-.47-.09-.94-.12-1.41q-.19-2.28-.35-4.61s0-.09,0-.13c-.09-1.5-.18-3-.25-4.55,0-.5,0-1-.06-1.49,0-1.1-.08-2.21-.11-3.34,0-.57,0-1.14,0-1.71q0-1.69,0-3.42c0-.52,0-1,0-1.55,0-1.66,0-3.33.06-5,0-.8,0-1.61.08-2.45,0-.18,0-.36,0-.54,0-.66.06-1.33.1-2,0-.25,0-.5,0-.75,0-.63.08-1.26.12-1.91l.07-.9c0-.62.09-1.23.14-1.87,0-.35.07-.71.1-1.07.05-.59.1-1.18.16-1.78,0-.42.09-.85.13-1.27s.11-1.1.16-1.66l.17-1.5.16-1.49.21-1.77c0-.41.1-.82.15-1.24l.12-.92c1.66,19.87,3.2,48.19,4.38,86.42Zm44.41,82.45a6,6,0,0,1-4.32,1.8H169.43c-.74-59.57-3.28-184.65-11.71-209.73,6.41-33.17,15-68,20.24-88.35,8.57,23.06,22.33,65,22.33,96.79,0,37,1.09,148.8,1.55,195.16a6,6,0,0,1-1.75,4.33Zm0,0" transform="translate(111 144)"/></svg>