<svg id="Layer_1" data-name="Layer 1" xmlns="http://www.w3.org/2000/svg" viewBox="0 0 355.2 411.6"><defs><style>.cls-1{fill:none;stroke:#231f20;stroke-miterlimit:10;stroke-width:2px;}</style></defs><title>043-pastor</title><path class="cls-1" d="M11.93-8.39A6.21,6.21,0,0,0,5.73-2.18V9.57a6.2,6.2,0,0,0,12.41,0V-2.18a6.2,6.2,0,0,0-6.2-6.21Zm0,0" transform="translate(126 144)"/><path class="cls-1" d="M91.27-8.39a6.2,6.2,0,0,0-6.2,6.21V9.57a6.21,6.21,0,0,0,12.41,0V-2.18a6.21,6.21,0,0,0-6.21-6.21Zm0,0" transform="translate(126 144)"/><path class="cls-1" d="M77.09,49.43a6.21,6.21,0,0,0-8.66,1.41c-3.16,4.39-9.77,7.23-16.82,7.23s-13.67-2.84-16.83-7.23A6.21,6.21,0,0,0,24.7,58.09c5.5,7.64,15.81,12.39,26.9,12.39S73,65.73,78.5,58.09a6.21,6.21,0,0,0-1.41-8.66Zm0,0" transform="translate(126 144)"/><path class="cls-1" d="M203,156a78,78,0,0,0-37.27-18.8h-.05l-47.61-9.3a17.78,17.78,0,0,0-17.4-14.22h-6.3a9.27,9.27,0,0,1-4.64-8V97.27a98.53,98.53,0,0,0,56.5-64.53h4.1A20.77,20.77,0,0,0,171.05,12V-4.3a20.57,20.57,0,0,0-1.88-8.62V-41.09A102,102,0,0,0,67.26-143H35.94a102.17,102.17,0,0,0-63.87,22.5,6,6,0,0,0-.91,8.48,6,6,0,0,0,8.48.91,88.85,88.85,0,0,1,56.3-19.83H67.26A89.94,89.94,0,0,1,157.1-41.09v17.2a20.38,20.38,0,0,0-3.25-.84l-.11,0c-.52-.09-1-.15-1.57-.2l-.25,0c-.53,0-1.06-.07-1.6-.07h-1.08c0-.05,0-.1,0-.16-.06-.51-.13-1-.2-1.56,0,0,0-.08,0-.12-.08-.55-.16-1.11-.24-1.68l-.05-.36c-.09-.56-.18-1.13-.27-1.71,0-.07,0-.14,0-.2l-.27-1.59c0-.13,0-.26-.07-.39-.1-.56-.2-1.12-.3-1.69l-.08-.45c-.09-.5-.18-1-.28-1.5l-.06-.31c-.11-.56-.21-1.11-.32-1.67l-.1-.54c-.11-.54-.21-1.07-.32-1.59l-.1-.49c-.08-.41-.17-.82-.25-1.23,0-.19-.08-.38-.12-.57l-.3-1.44-.14-.63L145.43-46c-.05-.25-.11-.49-.16-.73L145-47.82l-.13-.6-.27-1.19-.13-.54-.19-.85-.11-.45L144-52.53l-.09-.36-.25-1a35.42,35.42,0,0,0-16.38-22.4,35.37,35.37,0,0,0-27.43-3.91c-3.23.85-6.51,1.78-10,2.76C82-75.27,73.8-73,65.08-71.19a67.08,67.08,0,0,1-27,0c-8.73-1.78-16.88-4.08-24.75-6.3-3.48-1-6.76-1.91-10-2.76a35.36,35.36,0,0,0-27.42,3.91,35.42,35.42,0,0,0-16.38,22.4l-.26,1.11,0,.21L-41-51.36l0,.14-.31,1.34s0,.08,0,.12c-.1.48-.22,1-.33,1.47,0,.09,0,.19-.06.29q-.35,1.55-.71,3.24c0,.1,0,.2-.07.31-.12.55-.24,1.12-.36,1.69,0,.08,0,.16-.05.24-.11.56-.23,1.11-.35,1.68,0,.06,0,.11,0,.17-.12.59-.24,1.19-.36,1.78l-.07.33-.35,1.83v.08c-.11.59-.22,1.18-.33,1.77,0,.1,0,.21-.06.32-.11.59-.21,1.19-.32,1.78,0,.1,0,.2-.05.3-.1.56-.19,1.13-.28,1.68,0,.05,0,.11,0,.16-.1.59-.19,1.16-.27,1.74l0,.32c-.09.57-.17,1.14-.25,1.7a1,1,0,0,0,0,.12c-.08.53-.14,1-.2,1.56l0,.16h-1.08c-.53,0-1.07,0-1.6.07L-49-25c-.53,0-1.05.12-1.57.2l-.11,0a20.49,20.49,0,0,0-3.25.84v-17.2A89.35,89.35,0,0,1-38.56-91.32a6,6,0,0,0-1.62-8.38,6,6,0,0,0-8.38,1.62A101.41,101.41,0,0,0-66-41.09v28.17A20.63,20.63,0,0,0-67.85-4.3V12A20.76,20.76,0,0,0-47.11,32.74H-43A98.51,98.51,0,0,0,11.66,96.47V106a9.23,9.23,0,0,1-4,7.66H2.54a17.78,17.78,0,0,0-17.4,14.22l-47.67,9.31A78,78,0,0,0-99.79,156,78.36,78.36,0,0,0-125,213.46v40.12a13,13,0,0,0,13,13H215.18a13,13,0,0,0,13-13V213.46A78.39,78.39,0,0,0,203,156ZM148.74,20.36c.14-1,.26-2,.37-3,0,0,0-.09,0-.14q.16-1.61.28-3.24c0-.18,0-.36,0-.54.06-.87.1-1.74.14-2.61,0-.26,0-.53,0-.79,0-1,.05-2.08.05-3.13V-13h.64a8.65,8.65,0,0,1,1.06.07l.26,0c.29,0,.57.1.84.17l.2.05a8.57,8.57,0,0,1,2,.84l.11.07a9.34,9.34,0,0,1,.8.55l.1.08a8.58,8.58,0,0,1,1.52,1.54l.1.13a8.29,8.29,0,0,1,.59.91A8.62,8.62,0,0,1,159-4.3V12a8.68,8.68,0,0,1-8.67,8.67H148.7c0-.1,0-.21,0-.31Zm-195.85.31A8.68,8.68,0,0,1-55.78,12V-4.3a8.6,8.6,0,0,1,1.11-4.24,8.78,8.78,0,0,1,.59-.89l.11-.14a8.51,8.51,0,0,1,1.51-1.53l.11-.08a8.13,8.13,0,0,1,.79-.54l.12-.08a8.8,8.8,0,0,1,2-.84l.2-.05a8.31,8.31,0,0,1,.84-.17l.26,0A8.66,8.66,0,0,1-47.11-13h.64V6.91c0,1,0,2.09.05,3.12,0,.27,0,.53,0,.79q.05,1.31.14,2.62l0,.53q.12,1.64.29,3.25v.1c.11,1,.24,2,.38,3.06,0,.09,0,.19,0,.29Zm14.57,4-.21-1c-.07-.35-.14-.71-.21-1.07s-.15-.85-.22-1.27-.1-.58-.14-.87c-.08-.5-.15-1-.22-1.5,0-.23-.07-.47-.1-.7-.07-.55-.14-1.11-.2-1.66,0-.19,0-.38-.07-.58-.06-.59-.12-1.17-.17-1.76l0-.51c0-.6-.09-1.2-.12-1.8,0-.16,0-.33,0-.49q0-.91-.07-1.83c0-.16,0-.31,0-.47,0-.76,0-1.53,0-2.29V-19c0-4.94,2.19-17.26,5.71-32.15a23.39,23.39,0,0,1,7.92-12.77c.3-.25.61-.5.93-.73q1-.71,2-1.33.63-.37,1.27-.71l.38-.19,1-.46.37-.16c.44-.18.88-.36,1.32-.51l.18-.06c.39-.14.79-.26,1.18-.37l.42-.11,1-.25.36-.08c.46-.09.92-.17,1.38-.24l.27,0,1.15-.12.43,0c.37,0,.74,0,1.12,0h.32c.46,0,.91,0,1.37,0l.29,0,1.09.11.45.06,1,.16.42.08c.45.09.91.19,1.36.31,3.13.82,6.37,1.74,9.8,2.71,6.75,1.9,14.29,4,22.2,5.78l3.42.73q3,.6,5.94,1a78.91,78.91,0,0,0,17.91.23q4-.4,7.93-1.21c5.73-1.17,11.29-2.57,16.54-4,3.15-.85,6.19-1.71,9.08-2.52,3.43-1,6.67-1.88,9.8-2.7A23.39,23.39,0,0,1,121-66a23.45,23.45,0,0,1,10.85,14.83c3.52,14.88,5.7,27.2,5.71,32.15V6.91c0,.76,0,1.53,0,2.29,0,.16,0,.32,0,.48,0,.61,0,1.22-.07,1.82,0,.17,0,.34,0,.5,0,.6-.07,1.19-.12,1.79l0,.53c-.05.58-.1,1.16-.16,1.74l-.07.61c-.06.54-.12,1.09-.2,1.63,0,.24-.07.49-.1.73-.07.48-.14,1-.22,1.46,0,.3-.1.61-.15.91s-.14.82-.22,1.23-.14.75-.21,1.12-.13.63-.2.95A86.32,86.32,0,0,1,80.05,88.06l-1.16.4L77.23,89c-.75.23-1.51.46-2.27.68l-1.48.4q-1.18.31-2.37.59l-1.35.3c-.74.16-1.47.31-2.21.44l-1.3.24c-.86.15-1.72.29-2.58.41l-.93.13c-1,.13-2,.25-3.06.34l-.82.07c-1.07.09-2.14.16-3.22.21l-.58,0c-1.16,0-2.32.07-3.48.07-.72,0-1.44,0-2.15,0l-.51,0-1.66-.06-.48,0-1.71-.11-.34,0-1.87-.16-.17,0A86.19,86.19,0,0,1-32.54,24.72Zm59.29,88.94H22.32a21.45,21.45,0,0,0,1.4-7.66v-5c1.8.53,3.62,1,5.44,1.43l.41.1,2,.44.87.18c1,.2,2.05.39,3.08.56l1.31.21,1.56.22,1.63.2,1.34.15q1.42.15,2.85.26l.93.06c.77.05,1.55.09,2.33.12l1,0c1,0,2.09.06,3.15.06s2,0,3,0l1,0,2.06-.1,1.07-.07,2.16-.18,1.15-.11,2.35-.28,1.39-.2,1.43-.21,1.53-.25,1.19-.22q1.65-.31,3.28-.68l.66-.15,1.89-.46.74-.19,1.22-.32v4.16a21.31,21.31,0,0,0,1.56,8ZM69,125.72,67.43,133H35.77l-1.56-7.3ZM-8.63,154.77v99.76H-54.32v-31.1a6.2,6.2,0,0,0-6.2-6.2,6.2,6.2,0,0,0-6.21,6.2v31.1H-112a1,1,0,0,1-1-.95V213.46a66.27,66.27,0,0,1,21.32-48.6A65.86,65.86,0,0,1-60.16,149L-8,138.83a6,6,0,0,0,4.88-5.92v-1.5a5.69,5.69,0,0,1,5.69-5.69H21.87l2.64,12.37a8.73,8.73,0,0,0,.72,2.06H6A14.65,14.65,0,0,0-8.63,154.77Zm224.77,98.81h0a1,1,0,0,1-.95,1H169.93v-31.1a6.21,6.21,0,1,0-12.41,0v31.1H111.83v-28a6,6,0,1,0-12.07,0v27.79H3.44V154.77A2.56,2.56,0,0,1,6,152.22H97.2a2.56,2.56,0,0,1,2.56,2.56v42.89a6,6,0,0,0,12.07,0V154.77A14.65,14.65,0,0,0,97.2,140.15H78a8.82,8.82,0,0,0,.72-2.06l2.64-12.37h19.33a5.69,5.69,0,0,1,5.69,5.69v1.5a6,6,0,0,0,4.88,5.92L163.33,149a65.35,65.35,0,0,1,52.8,64.45v40.12Zm0,0" transform="translate(126 144)"/><path class="cls-1" d="M73.11,183H57.63V172.89a6,6,0,1,0-12.07,0V183H30.09a6,6,0,0,0,0,12.07H45.57V238.9a6,6,0,1,0,12.07,0V195.08H73.11a6,6,0,1,0,0-12.07Zm0,0" transform="translate(126 144)"/></svg>