<svg id="Layer_1" data-name="Layer 1" xmlns="http://www.w3.org/2000/svg" viewBox="0 0 358.23 411.6"><defs><style>.cls-1{fill:none;stroke:#231f20;stroke-miterlimit:10;stroke-width:2px;}</style></defs><title>044-groom</title><path class="cls-1" d="M12.08-7.26A6.26,6.26,0,0,0,5.82-1V10.86a6.26,6.26,0,1,0,12.53,0V-1a6.26,6.26,0,0,0-6.26-6.26Zm0,0" transform="translate(127 144)"/><path class="cls-1" d="M92.15-7.26A6.26,6.26,0,0,0,85.89-1V10.86a6.26,6.26,0,1,0,12.53,0V-1a6.26,6.26,0,0,0-6.27-6.26Zm0,0" transform="translate(127 144)"/><path class="cls-1" d="M77.84,51.09a6.27,6.27,0,0,0-8.74,1.42c-3.19,4.43-9.85,7.3-17,7.3s-13.8-2.86-17-7.3A6.26,6.26,0,0,0,25,59.83c5.55,7.71,16,12.5,27.15,12.5s21.6-4.79,27.15-12.5a6.27,6.27,0,0,0-1.43-8.74Zm0,0" transform="translate(127 144)"/><path class="cls-1" d="M179.21,139.4a6,6,0,1,0-4.2,11.18,67.07,67.07,0,0,1,43.28,62.51v40.49a1.08,1.08,0,0,1-1.08,1.08H171.54V223.15a6.26,6.26,0,0,0-12.53,0v31.51H82.75l53.75-70.13a16.59,16.59,0,0,0,1.27-18.29l-18.22-32.18,27.7,8.15a6,6,0,1,0,3.37-11.45l-41.76-12.3-.18-.05-.06,0-.34-.08-10.18-2A9.53,9.53,0,0,1,90.46,107V99.29a99.31,99.31,0,0,0,57-65.17h4.23a20.84,20.84,0,0,0,20.81-20.81V-3.14a20.72,20.72,0,0,0-1.9-8.68V-40.27A102.85,102.85,0,0,0,67.92-143H36.31a102.23,102.23,0,0,0-71.14,28.62,6,6,0,0,0-.17,8.44,6,6,0,0,0,8.44.17,90.37,90.37,0,0,1,62.88-25.3H67.92a90.89,90.89,0,0,1,90.79,90.79v17.52a20.83,20.83,0,0,0-3.34-.88l-.13,0c-.53-.09-1.08-.16-1.62-.21l-.23,0c-.55,0-1.1-.07-1.66-.07h-1c0-.2,0-.41,0-.61v-.2c0-.08,0-.16,0-.23,0-.66-.1-1.31-.16-2a.41.41,0,0,1,0-.07l-.06-.65c0-.12,0-.25,0-.37-.07-.71-.15-1.41-.24-2.12,0-.19,0-.37-.07-.55q-.21-1.58-.46-3.14l-.05-.31,0-.2c-.11-.65-.22-1.3-.34-1.95v0l-.14-.75c0-.09,0-.17-.05-.25q-.18-.9-.37-1.79c0-.09,0-.19-.06-.29l-.1-.47c0-.06,0-.12,0-.18-.21-.9-.42-1.8-.65-2.69A6,6,0,0,0,142-47.26h-.24a6,6,0,0,0-3,.84,64.61,64.61,0,0,1-11.56,5.33c-9.67,3.39-21.05,5.12-34,5.12-18.72,0-37.32-5.83-55.3-11.47C33-49,28.05-50.52,23.11-52c-19.69-5.69-39.77-9.59-59.77-3.92A6,6,0,0,0-40-53.46a6,6,0,0,0-.64,1.26c-.35.93-.68,1.9-1,2.91l-.27.82,0,.11-.12.36c-.24.74-.46,1.5-.69,2.25-.1.33-.19.67-.29,1l-.15.53-.11.41c-.13.47-.24.93-.36,1.39s-.19.75-.28,1.12-.23,1-.34,1.42l0,.17c-.06.27-.11.53-.17.79s-.15.67-.22,1c-.16.76-.3,1.51-.44,2.25,0,0,0,.05,0,.08l-.11.63-.07.42c-.15.89-.29,1.83-.43,2.84-.05.39-.1.79-.16,1.18q-.13,1.06-.25,2.16c0,.41-.09.82-.12,1.23l-.05.55q-.09,1.12-.16,2.2c0,.14,0,.29,0,.43h-.95c-.56,0-1.11,0-1.66.07l-.23,0c-.55,0-1.09.12-1.62.21l-.13,0a20.76,20.76,0,0,0-3.34.88V-40.27A90.88,90.88,0,0,1-43.28-84a6,6,0,0,0-2.35-8.11,6,6,0,0,0-8.11,2.35A102.87,102.87,0,0,0-66.42-40.27v28.46a20.64,20.64,0,0,0-1.9,8.67V13.3A20.84,20.84,0,0,0-47.51,34.12h4.23a99.28,99.28,0,0,0,55.2,64.36v8.85a9.53,9.53,0,0,1-7.63,9.32L-4,118.32l-.34.08-.06,0-.18,0-64.89,19.11a78.13,78.13,0,0,0-40.8,28.36A78.15,78.15,0,0,0-126,213.09v40.49a13,13,0,0,0,13,13H217.21a13,13,0,0,0,13-13V213.09a79.07,79.07,0,0,0-51-73.69ZM150,21.86q.21-1.48.37-3c0-.09,0-.18,0-.27.12-1.09.21-2.18.29-3.28,0-.17,0-.34,0-.51.06-.89.1-1.79.14-2.69,0-.27,0-.53,0-.8,0-1.05.06-2.11.06-3.18V-12h.77a9.18,9.18,0,0,1,1.09.07l.27,0a8,8,0,0,1,.86.18l.2.05a8.84,8.84,0,0,1,2,.85l.13.07a8.85,8.85,0,0,1,.81.55l.11.09a8.77,8.77,0,0,1,1.55,1.57l.11.14a9,9,0,0,1,.59.91,8.79,8.79,0,0,1,1.14,4.34V13.3a8.89,8.89,0,0,1-8.88,8.88H150c0-.11,0-.21,0-.32Zm-197.52.32a8.88,8.88,0,0,1-8.87-8.88V-3.14a8.84,8.84,0,0,1,1.14-4.34,8.54,8.54,0,0,1,.6-.91l.11-.14A8.93,8.93,0,0,1-53-10.11l.11-.09a8.71,8.71,0,0,1,.81-.55l.13-.07a8.92,8.92,0,0,1,2-.85l.21-.05a8,8,0,0,1,.86-.18l.27,0A8.29,8.29,0,0,1-47.51-12h.77V8.17q0,1.59.05,3.18c0,.27,0,.53,0,.8,0,.9.08,1.8.14,2.69l0,.51q.12,1.65.29,3.28c0,.09,0,.18,0,.27.11,1,.23,2,.37,3,0,.1,0,.21,0,.32Zm154,127.54,2.64-9.91,18.3,32.3a4.67,4.67,0,0,1-.36,5.15L84.16,233.21l18.59-69.64Zm-7.77-17.17-5.54,20.74L68.56,140.46ZM86.3,123.46l-34.19,9-29.56-7.77-5.72-1.5a21.46,21.46,0,0,0,7-15.85v-4.4l1.19.33.14,0q2.19.62,4.4,1.14l.29.07,2,.44.91.18q1.49.3,3,.55l1.4.23,1.56.22,1.66.21,1.35.15q1.44.15,2.89.26l.91.06q1.19.08,2.39.13l1,0c1.06,0,2.13.05,3.19.05s2,0,3-.05l1,0,2.1-.11,1.06-.07,2.29-.19,1.25-.12,2.19-.26,1.41-.2,1.44-.22,1.55-.26,1.18-.22q1.61-.3,3.21-.66l.77-.17,1.91-.46.71-.19,1.35-.35V107a21.47,21.47,0,0,0,7.78,16.51ZM-32.93,26.15c-.07-.33-.14-.65-.2-1s-.15-.74-.21-1.11-.15-.83-.22-1.25-.11-.6-.15-.91c-.08-.49-.15-1-.22-1.47,0-.25-.07-.5-.1-.75-.07-.54-.14-1.09-.2-1.63,0-.21-.05-.42-.07-.62-.06-.58-.12-1.16-.17-1.75l0-.55c0-.6-.09-1.2-.12-1.8l0-.52c0-.61-.05-1.22-.07-1.83,0-.16,0-.33,0-.5,0-.77,0-1.54,0-2.31V-17.89s0-.07,0-.1h0c0-1,0-2,.06-3l0-.62v-.12c0-.84.09-1.69.15-2.53,0-.36.05-.72.09-1.09.07-.85.16-1.7.25-2.54l.12-1c.11-.84.22-1.68.36-2.52,0-.2.06-.4.09-.59.15-.93.32-1.84.5-2.76l.13-.65c.2-1,.41-1.92.64-2.87,0-.16.07-.31.11-.47q.33-1.33.7-2.65l.25-.86c.26-.88.52-1.75.81-2.62l.08-.25,1.51-.32.43-.09,1.22-.22.73-.13,1.17-.17.78-.11.92-.1,1-.12.51,0,1.45-.12h.28C-2.84-47.7,15.31-42,34.31-36.05c18.84,5.91,38.32,12,58.87,12a123.85,123.85,0,0,0,29.64-3.31l.2-.05,2.45-.64c1.52-.42,3-.88,4.46-1.37l.66-.21q3.75-1.29,7.23-2.87c0,.09,0,.17,0,.25.18,1.07.34,2.15.47,3.23,0,.19,0,.38.07.57q.16,1.38.29,2.77c0,.32.05.64.08,1q.09,1.21.15,2.43c0,.33,0,.66,0,1,0,1.1.07,2.2.07,3.3,0,0,0,0,0,0V8.17c0,.77,0,1.54,0,2.31,0,.17,0,.33,0,.5,0,.61,0,1.22-.07,1.83l0,.52c0,.6-.08,1.2-.12,1.8l0,.55c-.05.58-.11,1.16-.17,1.74,0,.21,0,.42-.07.62-.06.55-.13,1.09-.2,1.64,0,.25-.07.5-.1.75-.07.49-.14,1-.22,1.47l-.15.91c-.07.42-.14.83-.22,1.25s-.14.74-.21,1.11-.13.66-.2,1A87.23,87.23,0,0,1,80.77,90.23l-1,.36L78,91.15c-.75.23-1.5.46-2.26.67l-1.52.41c-.77.2-1.54.4-2.31.58l-1.44.32-2.2.45-1.34.24c-.86.15-1.72.28-2.59.41l-.94.13c-1,.13-2.06.25-3.09.34l-.83.07q-1.62.14-3.25.22l-.59,0c-1.17,0-2.34.08-3.52.08-.73,0-1.45,0-2.17,0l-.51,0L47.75,95l-.48,0-1.73-.11-.35,0-1.88-.17-.18,0A87.12,87.12,0,0,1-32.93,26.15Zm68.6,114.31L11.09,153.29,5.55,132.55Zm-37.89,9.26,3.7,13.85,18.59,69.63L-22.8,177.27a4.67,4.67,0,0,1-.36-5.15l18.3-32.3ZM-54.78,254.66V223.15A6.26,6.26,0,0,0-61,216.89a6.26,6.26,0,0,0-6.27,6.26v31.51H-113a1.08,1.08,0,0,1-1.08-1.08V213.09a66.3,66.3,0,0,1,13.31-40A66.31,66.31,0,0,1-66.15,149l50.82-15-18.22,32.18a16.59,16.59,0,0,0,1.27,18.29l53.75,70.13Zm85.46-28L14.25,165.11l10.21-5.33L34.72,182.5Zm9.43,27.9,6.14-67.11H58l6.14,67.11Zm19.46-79H44.66l-9.6-21.26,17.05-8.9,17.05,8.9Zm9.94,7,10.25-22.72L90,165.11,73.55,226.66Zm0,0" transform="translate(127 144)"/></svg>