<svg id="Layer_1" data-name="Layer 1" xmlns="http://www.w3.org/2000/svg" viewBox="0 0 354.02 411.6"><defs><style>.cls-1{fill:none;stroke:#231f20;stroke-miterlimit:10;stroke-width:2px;}</style></defs><title>045-bride</title><path class="cls-1" d="M14.88,18.8a6,6,0,0,0-6,6v11a6,6,0,1,0,12,0v-11a6,6,0,0,0-6-6Zm0,0" transform="translate(125 144)"/><path class="cls-1" d="M89.14,18.8a6,6,0,0,0-6,6v11a6,6,0,0,0,12,0v-11a6,6,0,0,0-6-6Zm0,0" transform="translate(125 144)"/><path class="cls-1" d="M76,73a6,6,0,0,0-8.37,1.37C64.68,78.38,58.56,81,52,81s-12.67-2.62-15.59-6.68a6,6,0,1,0-9.74,7C31.85,88.54,41.56,93,52,93s20.15-4.47,25.34-11.68A6,6,0,0,0,76,73Zm0,0" transform="translate(125 144)"/><path class="cls-1" d="M205.12,139.48l-17.62,5.58a6,6,0,0,0,3.62,11.44l17.63-5.59A27.61,27.61,0,0,0,228,123c-1.46-25.34-7.63-76.68-32.5-135.79-31-73.66-75.38-101.23-108-111.31A42.86,42.86,0,0,0,52-143,42.86,42.86,0,0,0,16.5-124.12c-32.57,10.07-77,37.65-107.95,111.31-24.88,59.1-31,110.44-32.5,135.78a27.61,27.61,0,0,0,19.23,28l17.48,5.54a6,6,0,0,0,7.53-3.91A6,6,0,0,0-83.62,145l-17.49-5.54A15.62,15.62,0,0,1-112,123.66c1.42-24.57,7.41-74.37,31.59-131.82,26.1-62,61.72-89.21,90.47-100.94v.08c-.13.6-.24,1.21-.34,1.82,0,.12,0,.24-.07.36-.1.63-.18,1.26-.25,1.89,0,.11,0,.22,0,.33-.06.63-.11,1.26-.15,1.9,0,.11,0,.23,0,.34,0,.75-.06,1.49-.06,2.25s0,1.53.07,2.29c0,.26,0,.51.06.77,0,.45.06.89.11,1.34A107.14,107.14,0,0,0-35.87-58.85a106.47,106.47,0,0,0-17.2,39.74l-.07.35c-.15.73-.29,1.46-.42,2.19-.08.46-.16.92-.24,1.38-.15.88-.29,1.76-.41,2.65s-.21,1.48-.3,2.21c-.06.48-.11,1-.16,1.44Q-54.84-7.43-55-6c0,.25,0,.51-.06.77-.08,1.11-.14,2.21-.19,3.33,0,.33,0,.66,0,1,0,1.22-.07,2.44-.07,3.66V4.09a10.67,10.67,0,0,0,.07,1.18c0,.13,0,.25.06.38s.07.52.13.77.07.29.11.44.12.45.19.67.11.29.16.44.16.41.25.62l.08.19,0,0-.36.37-.3.31-.35.4-.28.32-.34.42-.26.33-.32.44-.24.34-.31.46-.21.34-.28.49c-.07.11-.14.22-.2.34s-.17.34-.26.5-.12.23-.18.35-.16.34-.24.52-.11.23-.16.36-.14.36-.21.54-.1.24-.14.36-.13.37-.19.55-.09.24-.12.37-.11.38-.16.56l-.11.38c0,.19-.09.38-.13.57s-.06.26-.09.4-.07.4-.11.6,0,.25-.07.38-.06.43-.08.65,0,.23,0,.34,0,.45-.05.68,0,.22,0,.33c0,.34,0,.68,0,1V38.07A19.79,19.79,0,0,0-40.39,57.84h3.56c0,.16.09.32.14.48l.22.75c.15.53.31,1.06.47,1.59l.06.18q1.31,4.18,3,8.22l.05.12a92.3,92.3,0,0,0,48.87,49v8a7.58,7.58,0,0,1-6.07,7.41l-7.31,1.47a6.27,6.27,0,0,0-.68.18L-54.86,152A69.29,69.29,0,0,0-91,177.12a69.29,69.29,0,0,0-13.9,41.8v34.93A12.77,12.77,0,0,0-92.18,266.6H196.19a12.77,12.77,0,0,0,12.75-12.75V218.92A69.78,69.78,0,0,0,158.87,152l-56.79-16.72a5.42,5.42,0,0,0-.68-.18l-8.93-1.79a7.59,7.59,0,0,1-6.08-7.42v-7a91.16,91.16,0,0,0,13.14-6.59l.35-.21,1.45-.91.73-.47,1.16-.76,1.23-.84.68-.47a92.74,92.74,0,0,0,31.23-38.18l0-.05q.48-1.09.93-2.2l.16-.38q.39-1,.75-1.92l.2-.54q.35-1,.69-1.92l.17-.49c.26-.75.5-1.51.74-2.27.12-.38.23-.76.34-1.15s.24-.8.35-1.2l.12-.42h3.56a19.79,19.79,0,0,0,19.77-19.77V22.81c0-.34,0-.68,0-1,0-.11,0-.22,0-.33s0-.45-.05-.68l0-.34c0-.22-.05-.43-.08-.65s0-.25-.07-.38-.07-.4-.11-.6-.06-.27-.09-.4-.08-.38-.13-.57-.07-.25-.11-.38-.1-.38-.16-.56-.08-.25-.13-.37S163,16.18,163,16l-.14-.36c-.07-.18-.14-.36-.21-.54l-.16-.36c-.08-.17-.15-.35-.23-.52l-.18-.35-.26-.5-.2-.34-.29-.49-.21-.34-.3-.47-.23-.33-.32-.44-.26-.33c-.11-.14-.22-.29-.34-.42l-.27-.32-.35-.4-.3-.31-.36-.37,0,0,.08-.19c.09-.2.17-.41.25-.62s.11-.29.16-.44.13-.44.19-.67.08-.29.11-.43.09-.51.13-.77,0-.25.06-.38a10.66,10.66,0,0,0,.07-1.18V2.78c0-1.23,0-2.45-.07-3.66l0-1C159.18-3,159.12-4.1,159-5.2c0-.26,0-.51-.06-.77q-.12-1.47-.28-2.92c-.05-.48-.11-1-.16-1.43-.09-.74-.19-1.48-.3-2.21s-.27-1.77-.41-2.65c-.08-.46-.16-.92-.24-1.38-.13-.73-.27-1.46-.42-2.19l-.07-.35a106.44,106.44,0,0,0-17.2-39.74A107.14,107.14,0,0,0,94.65-95.74c0-.44.07-.89.11-1.34,0-.25,0-.51.06-.77,0-.76.07-1.53.07-2.29s0-1.5-.06-2.25c0-.11,0-.21,0-.32,0-.64-.09-1.29-.16-1.93,0-.1,0-.19,0-.29-.07-.64-.16-1.29-.25-1.93l-.06-.34c-.1-.61-.22-1.23-.34-1.83v-.08C122.68-97.37,158.3-70.19,184.41-8.16,208.58,49.29,214.57,99.09,216,123.66a15.62,15.62,0,0,1-10.87,15.82ZM21.2-102c0-.17,0-.34,0-.51,0-.49.09-1,.15-1.46l.06-.46a30,30,0,0,1,.76-3.71c0-.15.08-.29.13-.44q.2-.7.43-1.38l.17-.5c.2-.56.41-1.11.64-1.66.07-.17.15-.33.23-.5.17-.37.34-.75.52-1.12s.25-.5.39-.75l.47-.85A30.89,30.89,0,0,1,52-131a30.88,30.88,0,0,1,26.82,15.62q.25.43.48.87t.38.74q.28.57.54,1.15l.21.47c.24.55.45,1.11.65,1.67.06.16.11.32.16.48.16.46.3.93.44,1.4l.12.43a30.76,30.76,0,0,1,.76,3.72c0,.15,0,.3.06.46.06.49.11,1,.15,1.46,0,.17,0,.34,0,.51,0,.63.06,1.26.06,1.9,0,0,0,.06,0,.09l-1.07-.3-1.3-.37c-.9-.25-1.8-.48-2.71-.71l-1.8-.43-1.67-.36-1.73-.35-1.52-.29q-1.48-.26-3-.49l-1.34-.19-2.19-.28L63.34-104c-1.08-.11-2.17-.21-3.26-.3l-.83-.05q-1.37-.09-2.75-.15l-1,0c-1.16,0-2.32-.06-3.5-.06s-2.33,0-3.5.06l-1,0c-.92,0-1.84.09-2.75.15l-.83.05c-1.09.08-2.18.18-3.25.3l-1.23.14-2.19.28-1.34.19q-1.49.22-3,.49l-1.51.29-1.74.35-1.67.36-1.8.43c-.91.22-1.81.46-2.71.71l-1.3.37-1.07.3v-.09c0-.64,0-1.27.06-1.9ZM-40.39,45.84a7.78,7.78,0,0,1-7.77-7.77V22.82A7.78,7.78,0,0,1-40.4,15h.25V33.31c0,1,0,1.91.05,2.86,0,.25,0,.5,0,.75q0,1.14.12,2.29c0,.21,0,.41,0,.62.14,2,.34,3.91.59,5.84l0,.19ZM-46.18,254.6V226.2a7.25,7.25,0,0,1,1.4-4.31,50.17,50.17,0,0,1,40.66-20.5,50.47,50.47,0,0,1,38.89,18.25,22.35,22.35,0,0,0,34.46,0,50.58,50.58,0,0,1,79.56,2.25,7.29,7.29,0,0,1,1.4,4.31V254.6ZM90.1,145l8.65,1.74,56.73,16.7a57.78,57.78,0,0,1,41.46,55.44v34.93a.75.75,0,0,1-.75.75h-34V226.2a19.34,19.34,0,0,0-3.76-11.46A62.57,62.57,0,0,0,60,212a10.36,10.36,0,0,1-16,0A62.43,62.43,0,0,0-4.12,189.39a62.89,62.89,0,0,0-50.3,25.35,19.36,19.36,0,0,0-3.77,11.46V254.6h-34a.75.75,0,0,1-.75-.75V218.92A57.38,57.38,0,0,1-81.42,184.3a57.38,57.38,0,0,1,30-20.82l56.73-16.7,7-1.41A19.62,19.62,0,0,0,28,126.18v-3.89l.86.21.54.14q2.8.71,5.64,1.24l1.08.2,1.45.24,1.32.19,1.3.18q1.24.16,2.48.29l1,.09,1.82.15,1,.07,1.87.09.9,0c.91,0,1.84,0,2.76,0s1.76,0,2.63,0l.87,0,1.75-.08,1-.07,1.58-.12L61,125l1.56-.17,1.06-.12,1.89-.26,1.68-.26,1.34-.23,1.38-.26,1.08-.21,1.48-.33.9-.21,1.07-.25v3.15a19.29,19.29,0,0,0,.12,2,19.52,19.52,0,0,0,1.06,4.63c.08.21.18.42.26.63s.23.61.38.91c0,.07.07.13.09.19A19.6,19.6,0,0,0,90.1,145Zm42-109.59c0,.14,0,.29,0,.43q0,.86-.07,1.71c0,.15,0,.3,0,.45,0,.56-.07,1.13-.11,1.68,0,.16,0,.32,0,.48,0,.55-.1,1.1-.16,1.64l-.06.54c-.06.52-.12,1-.19,1.55,0,.22-.06.43-.09.65-.07.46-.13.93-.21,1.4,0,.27-.09.53-.14.8L130.81,48l-.19,1c-.06.31-.13.63-.2.94s-.16.75-.24,1.12-.19.8-.28,1.19-.21.86-.32,1.29c-.15.59-.31,1.16-.47,1.74-.11.39-.23.78-.35,1.17l-.32,1c-.12.37-.23.74-.36,1.11s-.27.8-.41,1.2l-.32.91q-.38,1-.79,2.08l-.13.31c-.26.65-.53,1.29-.8,1.93l-.18.39c-.3.69-.62,1.38-.94,2.07l0,0A81,81,0,0,1,101,96.68l-.5.39L99.25,98l-.73.53-1,.71q-1,.71-2.06,1.38l-.33.22-1.49.93-.19.11a79.71,79.71,0,0,1-15.71,7.33c-.65.22-1.3.44-2,.64l-1.35.4-1.6.45-1.58.41-1.86.44-1,.23c-.84.17-1.67.33-2.52.48l-.91.15c-.89.14-1.79.28-2.68.39l-.46.06q-1.29.16-2.6.27l-.66.06q-1.43.11-2.87.18l-.62,0c-1,0-2,.06-3,.06s-2.16,0-3.24-.07l-.55,0q-1.5-.07-3-.2l-.77-.07q-1.42-.13-2.84-.32l-.87-.12c-.79-.11-1.59-.24-2.37-.37l-1.25-.23-2-.41-1.3-.29c-.73-.17-1.45-.35-2.16-.54l-1.41-.38c-.7-.2-1.39-.4-2.08-.62l-1.59-.52L25.6,109a79.3,79.3,0,0,1-11.73-5.2l-.09,0-1.57-.88-.59-.35-1.32-.79q-.91-.56-1.8-1.14l-.17-.11A81.3,81.3,0,0,1-23.47,60.3l-.09-.26c-.22-.6-.42-1.21-.62-1.82-.08-.23-.16-.46-.23-.69-.15-.48-.29-1-.44-1.43-.08-.28-.17-.56-.25-.84q-.28-1-.54-2c-.09-.36-.18-.73-.27-1.1s-.19-.76-.27-1.14l-.25-1.12-.19-.94-.19-1c-.07-.39-.14-.79-.21-1.19s-.09-.54-.14-.8c-.07-.47-.14-.93-.21-1.4,0-.21-.06-.43-.09-.65-.07-.51-.13-1-.19-1.55l-.06-.54c-.06-.55-.11-1.1-.16-1.64,0-.16,0-.32,0-.48,0-.56-.08-1.12-.11-1.68,0-.15,0-.3,0-.45q0-.85-.07-1.71c0-.14,0-.29,0-.43,0-.71,0-1.43,0-2.14V14.7h0l.12,0c.28-.06.55-.13.82-.21l.32-.1.6-.21.34-.13.59-.25.31-.14.69-.36.17-.09c.28-.16.55-.32.82-.5l.24-.16.56-.4.28-.21.5-.41.26-.23.52-.48.19-.18q.34-.35.66-.71l.13-.15c.17-.2.33-.41.49-.61l.19-.27.38-.55.19-.3c.12-.19.23-.39.34-.59l.15-.27c.16-.3.3-.59.44-.9a5.76,5.76,0,0,0,.31-.88l7.25-27.21a7.51,7.51,0,0,1,1.19-2.5,7.23,7.23,0,0,1,3.69-2.61,7.51,7.51,0,0,1,1.84-.34,7.2,7.2,0,0,1,5.1,1.74c1,.88,2.11,1.76,3.2,2.65l.82.68q1.31,1.06,2.66,2.13L10-18.71l.7.54A196.44,196.44,0,0,0,44.21,3.09l.15.07,2.12,1,1.13.52,1.22.55,2,.89.25.11a106,106,0,0,0,31,8.4l.69.07,1.46.12q1.18.09,2.32.14l.65,0c.93,0,1.85.05,2.73.05h42.23V33.31h0c0,.71,0,1.42,0,2.14Zm20-12.63V38.07a7.78,7.78,0,0,1-7.77,7.77h-1.1c0-.06,0-.12,0-.19q.39-2.89.6-5.84c0-.2,0-.41,0-.62q.07-1.14.12-2.29c0-.25,0-.5,0-.75,0-.95,0-1.9,0-2.86V15h.26a7.78,7.78,0,0,1,7.76,7.77Zm-6.8-39.35,0,.16c.14.66.26,1.33.38,2,.07.37.13.75.19,1.13.14.82.27,1.65.39,2.48.09.63.18,1.27.25,1.9.05.43.1.87.15,1.3.09.85.18,1.7.25,2.56l.06.72c.07,1,.13,2,.16,2.94,0,.29,0,.58,0,.88,0,1.08.06,2.17.06,3.25v.27H89.92C58.66,3.05,26-20.61,9.28-34.71c-.4-.34-.81-.65-1.23-.95L7.7-35.9c-.33-.23-.68-.45-1-.66l-.3-.18c-.44-.25-.88-.48-1.33-.7l-.3-.14c-.37-.17-.73-.32-1.11-.46l-.4-.15c-.44-.16-.89-.3-1.35-.43l-.08,0c-.48-.13-1-.24-1.45-.32L-.08-39c-.38-.06-.77-.11-1.15-.15l-.37,0c-.49,0-1-.06-1.48-.07h-.08l-.33,0c-.31,0-.62,0-.93,0l-.51,0-.87.1-.51.07-.91.18-.44.09c-.44.1-.89.23-1.34.36A19.23,19.23,0,0,0-21.88-24.93L-29,1.71a2.74,2.74,0,0,1-2.36,1.34h-12V2.78c0-1.09,0-2.17.06-3.25q0-.44,0-.88.06-1.47.17-2.94c0-.24,0-.48.05-.72.07-.86.15-1.71.25-2.56,0-.43.09-.87.15-1.3.08-.63.16-1.27.25-1.89q.18-1.25.39-2.48c.06-.37.13-.75.2-1.12q.18-1,.38-2l0-.16A95.57,95.57,0,0,1,39.77-91.77l.31,0L42-92l.52-.05,1.75-.16.65-.05,1.66-.11.72,0L49-92.5l.67,0q1.17,0,2.34,0t2.34,0l.67,0,1.68.06.72,0,1.66.11.65.05,1.76.16L62-92l1.95.22.3,0a95.56,95.56,0,0,1,81.12,75.23Zm0,0" transform="translate(125 144)"/></svg>