<svg id="Layer_1" data-name="Layer 1" xmlns="http://www.w3.org/2000/svg" viewBox="0 0 403.88 411.6"><defs><style>.cls-1{fill:none;stroke:#231f20;stroke-miterlimit:10;stroke-width:2px;}</style></defs><title>046-wedding</title><path class="cls-1" d="M242.79,231.89V220.36a15.54,15.54,0,0,0-15.52-15.52h-2.64V14.64A125.9,125.9,0,0,0,191-71.11a126,126,0,0,0-77.08-39.64,37.59,37.59,0,0,0-37.06-32.14h-.08A37.29,37.29,0,0,0,52-133.57,37.28,37.28,0,0,0,27.19-143h-.09A37.59,37.59,0,0,0-10-110.75,126,126,0,0,0-87.12-71.12a125.92,125.92,0,0,0-33.63,85.76V210a14.22,14.22,0,0,0-13.83,14.2v6.73A15.53,15.53,0,0,0-149,246.41v14.17a6,6,0,0,0,6,6h83.43a6,6,0,0,0,6-6V246.41a15.53,15.53,0,0,0-14.42-15.46v-6.73A14.22,14.22,0,0,0-81.78,210V14.64c0-46.68,37.17-85.22,83.46-87.31A94,94,0,0,0,20.07-55,141.73,141.73,0,0,0,49.6-38.16a6.06,6.06,0,0,0,2.21.42A6,6,0,0,0,54-38.16,141.84,141.84,0,0,0,83.59-54.84a93.62,93.62,0,0,0,18.62-17.82C148.5-70.57,185.66-32,185.66,14.64V204.83H183a15.54,15.54,0,0,0-15.52,15.52v11.53a15.53,15.53,0,0,0-10.09,14.52v14.17a6,6,0,0,0,6,6h83.43a6,6,0,0,0,6-6V246.41a15.54,15.54,0,0,0-10.09-14.52Zm-311.84,11a3.48,3.48,0,0,1,3.48,3.48v8.15H-137v-8.15a3.48,3.48,0,0,1,3.48-3.48ZM-80,224.21v6.68h-42.54v-6.68a2.18,2.18,0,0,1,2.18-2.18h38.19A2.18,2.18,0,0,1-80,224.21Zm15-279.5A98.82,98.82,0,0,0-93.82,14.65V210H-108.7V14.64A113.92,113.92,0,0,1-78.28-62.94,114.07,114.07,0,0,1-9.93-98.63,50.54,50.54,0,0,0-5.5-84.19,98.79,98.79,0,0,0-65-55.29Zm167.24-48.55a1.07,1.07,0,0,0,0,.11c0,.45-.05.91-.09,1.36a.38.38,0,0,1,0,.06q-.06.7-.15,1.41h0a41.84,41.84,0,0,1-7.62,18.66l0,.07C82-64.63,59-53.48,51.81-50.31A133.62,133.62,0,0,1,27.27-64.63,79.86,79.86,0,0,1,9.86-81.73c-.1-.17-.19-.34-.31-.5-5.24-7.48-7.91-15.25-7.94-23.08a.33.33,0,0,0,0-.05v-.15A25.52,25.52,0,0,1,27.11-131h.05a25.36,25.36,0,0,1,20.07,9.84A6,6,0,0,0,52-118.79a6,6,0,0,0,4.75-2.3,25.36,25.36,0,0,1,20.06-9.75h.06a25.52,25.52,0,0,1,25.44,25.55c0,.49,0,1,0,1.46ZM168.9-55.28a98.81,98.81,0,0,0-59.5-28.9,50.49,50.49,0,0,0,4.42-14.44,114,114,0,0,1,68.33,35.69,113.9,113.9,0,0,1,30.42,77.57V204.83H197.7V14.64a98.82,98.82,0,0,0-28.8-69.93Zm10.64,275.64a3.48,3.48,0,0,1,3.48-3.48h44.25a3.48,3.48,0,0,1,3.48,3.48v10.53H179.54Zm61.3,34.2H169.45v-8.15a3.48,3.48,0,0,1,3.48-3.48h64.43a3.48,3.48,0,0,1,3.48,3.48Zm0,0" transform="translate(150 144)"/><path class="cls-1" d="M113.52,115.88H-9.64A22.68,22.68,0,0,0-32.3,138.53,22.68,22.68,0,0,0-9.64,161.19a23.11,23.11,0,0,0,4.46-.44A20,20,0,0,0,14,175.27h5v85.31a6,6,0,0,0,6,6H78.85a6,6,0,0,0,6-6V175.27h5a19.94,19.94,0,0,0,19.16-14.52,23.1,23.1,0,0,0,4.46.44,22.65,22.65,0,1,0,0-45.31ZM72.83,254.56H31.05V175.27H72.83ZM89.9,163.22H14a7.88,7.88,0,0,1-7.87-7.87v-.55a22.4,22.4,0,0,0,3.3-4h85a22.45,22.45,0,0,0,3.3,4v.55a7.88,7.88,0,0,1-7.87,7.87Zm23.62-14.08a10.59,10.59,0,0,1-6-1.87l-.17-.14a10.73,10.73,0,0,1-3-3.3h0c-.12-.21-.23-.42-.34-.63s-.19-.4-.27-.61l0-.09a6,6,0,0,0-4.68-3.7,6.34,6.34,0,0,0-.91-.07H5.77a5.8,5.8,0,0,0-.91.07,6,6,0,0,0-4.68,3.7l0,.09c-.09.21-.18.41-.27.61s-.22.42-.34.63h0a10.73,10.73,0,0,1-3,3.3l-.17.14a10.57,10.57,0,0,1-6,1.88,10.62,10.62,0,0,1-10.61-10.61A10.62,10.62,0,0,1-9.64,127.92H113.52a10.61,10.61,0,0,1,0,21.22Zm0,0" transform="translate(150 144)"/></svg>