<svg id="Layer_1" data-name="Layer 1" xmlns="http://www.w3.org/2000/svg" viewBox="0 0 411.6 347.41"><defs><style>.cls-1{fill:none;stroke:#231f20;stroke-miterlimit:10;stroke-width:2px;}</style></defs><title>047-wedding-invitation</title><path class="cls-1" d="M109.1,105.14a6,6,0,0,0-6.88-5l-93.44,15a6,6,0,0,0,.95,11.95,6.19,6.19,0,0,0,1-.08l93.43-15a6,6,0,0,0,5-6.89Zm0,0" transform="translate(154 112)"/><path class="cls-1" d="M-11.95,124.55a6,6,0,0,0-6.89-5L-30,121.37a6,6,0,0,0-5,6.88,6,6,0,0,0,5.93,5.06,5.73,5.73,0,0,0,1-.08l11.19-1.79a6,6,0,0,0,5-6.89Zm0,0" transform="translate(154 112)"/><path class="cls-1" d="M112.35,138.72a6,6,0,0,0-6.89-5l-9.25,1.48a6,6,0,0,0,.94,11.95,5.74,5.74,0,0,0,1-.08l9.25-1.48a6,6,0,0,0,5-6.88Zm0,0" transform="translate(154 112)"/><path class="cls-1" d="M75.48,144.63a6,6,0,0,0-6.88-5l-95.38,15.3a6,6,0,0,0-5,6.89,6,6,0,0,0,5.93,5.05,6.18,6.18,0,0,0,1-.07l95.38-15.3a6,6,0,0,0,5-6.89Zm0,0" transform="translate(154 112)"/><path class="cls-1" d="M95.34-29.43A40.86,40.86,0,0,0,63.56-39.64a48.22,48.22,0,0,0-30,14.72,41.11,41.11,0,0,0-30.41-9c-24.21,2.31-44,23.83-44,48,0,21.9,12.79,41.74,37.13,57.39a153.75,153.75,0,0,0,36,16.81,6.08,6.08,0,0,0,1.69.24,6,6,0,0,0,2.64-.61A194.3,194.3,0,0,0,72.1,64.31c23.84-20,36.41-42,36.36-63.48A40.37,40.37,0,0,0,95.34-29.43ZM33.39,76C22,72.17-29,52.67-28.88,14.13c0-18.13,14.9-34.3,33.13-36,9.92-.95,19.07,2.59,25.11,9.71a6,6,0,0,0,4.8,2.11,6,6,0,0,0,4.63-2.46A36.66,36.66,0,0,1,64.7-27.67a29,29,0,0,1,22.56,7.14A28.51,28.51,0,0,1,96.45.86C96.53,40.06,44.58,70,33.39,76Zm0,0" transform="translate(154 112)"/><path class="cls-1" d="M241-55.78H213.71V-95.35a15.62,15.62,0,0,0-5.5-11.91,15.63,15.63,0,0,0-12.63-3.54L-147.94-55.7A6,6,0,0,0-153-49.77V228.4c0,.05,0,.11,0,.16s0,.21,0,.32v.1c0,.08,0,.16,0,.24s0,.26.06.39,0,.14.05.22.07.27.11.39,0,.13.06.19.11.27.16.41l.07.16c.07.15.15.3.23.45l.05.09c.11.17.22.35.35.51l0,.05c.11.14.22.28.34.41l.14.14.3.29.07.07.13.09.21.17.22.15.23.15.23.13.25.13.22.1.27.11.23.08.29.09.24.06.29.06.3,0,.24,0a5.35,5.35,0,0,0,.55,0H241a15.67,15.67,0,0,0,15.65-15.64V-40.13A15.67,15.67,0,0,0,241-55.78ZM-141-44.65,197.48-98.93a3.59,3.59,0,0,1,2.93.82,3.59,3.59,0,0,1,1.27,2.76V163.3a3.62,3.62,0,0,1-3.05,3.58L-141,221.35ZM244.58,218.76a3.63,3.63,0,0,1-3.63,3.63H-71.58l272.11-43.64a15.58,15.58,0,0,0,12.61-11.26,15.8,15.8,0,0,0,.56-4.19V-43.76H241a3.63,3.63,0,0,1,3.63,3.63Zm0,0" transform="translate(154 112)"/></svg>