<svg id="Layer_1" data-name="Layer 1" xmlns="http://www.w3.org/2000/svg" viewBox="0 0 411.6 377.19"><defs><style>.cls-1{fill:none;stroke:#231f20;stroke-miterlimit:10;stroke-width:2px;}</style></defs><title>048-just-married</title><path class="cls-1" d="M-10,44.78H-24.15c-2.34,0-3.31,2.34-3.31,4.52,0,2.5,1.21,4.68,3.31,4.68h8.23V85.76c0,6.29-3.07,9.28-8.55,9.28-6.54,0-8.15-4.6-8.31-8.63C-33,83.82-35.28,83.1-38,83.1c-3.55,0-5.25,1-5.25,5.08,0,10,8.07,16.05,19.28,16.05,10.16,0,18.55-5,18.55-18.47V48.09c0-2.18-2.26-3.31-4.6-3.31Zm0,0" transform="translate(154 126.39)"/><path class="cls-1" d="M37.23,44.78c-2.66,0-5.24,1-5.24,3.23V85.76c0,6.29-3.3,9.28-8.87,9.28s-8.87-3-8.87-9.28V48c0-2.26-2.66-3.23-5.24-3.23s-5.24,1-5.24,3.23V85.76c0,13.47,8.47,18.47,19.36,18.47s19.36-5,19.36-18.47V48c0-2.26-2.66-3.23-5.25-3.23Zm0,0" transform="translate(154 126.39)"/><path class="cls-1" d="M61,59.54c0-3.87,3.3-6.21,9.11-6.21,6.77,0,8.63,3.07,11.13,3.07,2.9,0,4.19-3.71,4.19-5.57,0-5.32-10.57-6.45-15.32-6.45-9.28,0-19.6,4.11-19.6,16.13,0,19.12,25.89,15.41,25.89,27.51,0,4.84-4.2,7-9,7-8.23,0-10.41-6.21-13.71-6.21-2.5,0-4.6,3.39-4.6,5.65,0,4.67,8.07,10,18.63,10,11.13,0,19.2-6,19.2-17.5C86.85,66.08,61,69.55,61,59.54Zm0,0" transform="translate(154 126.39)"/><path class="cls-1" d="M127.59,44.78H93.46c-2.26,0-3.31,2.42-3.31,4.68,0,2.58,1.21,4.76,3.31,4.76h11.86v46.22c0,2.18,2.58,3.31,5.25,3.31s5.24-1.13,5.24-3.31V54.22h11.78c2.1,0,3.31-2.26,3.31-4.76,0-2.26-1.05-4.68-3.31-4.68Zm0,0" transform="translate(154 126.39)"/><path class="cls-1" d="M-54.12,141.59c-3.79,0-5.57.81-8.23,5.57l-9.92,18.07-9.92-18.07c-2.66-4.76-4.36-5.57-8.15-5.57-2.66,0-5.24,1.37-5.24,5.24v50.41c0,2.18,2.58,3.31,5.24,3.31s5.25-1.13,5.25-3.31V161.91l9.27,17.42a3.73,3.73,0,0,0,3.47,2.1,3.83,3.83,0,0,0,3.55-2.1l9.44-16.78v34.68c0,2.18,2.58,3.31,5.24,3.31s5.24-1.13,5.24-3.31V146.83c0-3.87-2.58-5.24-5.24-5.24Zm0,0" transform="translate(154 126.39)"/><path class="cls-1" d="M1.46,195.39l-15.57-50.74c-.73-2.42-3.71-3.55-6.78-3.55s-6,1.13-6.7,3.55l-15.57,50.74a4.57,4.57,0,0,0-.16.81c0,2.58,3.79,4.36,6.61,4.36,1.77,0,3.15-.57,3.55-2.1l3.07-10.73h18.47l3.07,10.73c.4,1.53,1.77,2.1,3.55,2.1,2.82,0,6.62-1.86,6.62-4.36a3.52,3.52,0,0,0-.16-.81ZM-27.9,179.5l7-24.76,7,24.76Zm0,0" transform="translate(154 126.39)"/><path class="cls-1" d="M45.67,194.18,35.1,174.57c6-1.85,10.57-6.85,10.57-16.13,0-12.83-8.55-16.86-19.12-16.86h-16a3.27,3.27,0,0,0-3.39,3.23v52.43c0,2.18,2.66,3.31,5.24,3.31s5.24-1.13,5.24-3.31V176.19h6.78l11.45,22.26a4.13,4.13,0,0,0,3.63,2.5c3.07,0,6.54-2.82,6.54-5.48a2.21,2.21,0,0,0-.4-1.29ZM26.55,168H17.68V150.78h8.88c5.24,0,8.63,2.26,8.63,8.63S31.79,168,26.55,168Zm0,0" transform="translate(154 126.39)"/><path class="cls-1" d="M91.65,194.18l-10.57-19.6c6-1.85,10.57-6.85,10.57-16.13,0-12.83-8.55-16.86-19.12-16.86h-16a3.27,3.27,0,0,0-3.39,3.23v52.43c0,2.18,2.66,3.31,5.24,3.31s5.24-1.13,5.24-3.31V176.19h6.78l11.45,22.26a4.13,4.13,0,0,0,3.63,2.5c3.07,0,6.53-2.82,6.53-5.48a2.18,2.18,0,0,0-.4-1.29ZM72.53,168H63.66V150.78h8.87c5.24,0,8.63,2.26,8.63,8.63S77.77,168,72.53,168Zm0,0" transform="translate(154 126.39)"/><path class="cls-1" d="M104.39,141.59c-2.66,0-5.24,1-5.24,3.23v52.43c0,2.18,2.58,3.31,5.24,3.31s5.24-1.13,5.24-3.31V144.81c0-2.26-2.66-3.23-5.24-3.23Zm0,0" transform="translate(154 126.39)"/><path class="cls-1" d="M152.63,191.35H129.8V175.14h12.26c2.26,0,3.31-2.18,3.31-4,0-2.18-1.21-4.2-3.31-4.2H129.8V150.78h22.83c2.1,0,3.31-2.18,3.31-4.68,0-2.18-1.05-4.52-3.31-4.52H123.92c-2.34,0-4.6,1.13-4.6,3.31v52.35c0,2.18,2.26,3.31,4.6,3.31h28.71c2.26,0,3.31-2.34,3.31-4.52,0-2.5-1.21-4.68-3.31-4.68Zm0,0" transform="translate(154 126.39)"/><path class="cls-1" d="M180.95,141.59H166.67c-2.74,0-4.6,1.53-4.6,3.23v52.51c0,1.7,1.86,3.23,4.6,3.23h14.28c10.65,0,19-5,19-18.47v-22c0-13.47-8.31-18.47-19-18.47Zm8.47,40.49c0,6.29-3.14,9.28-8.47,9.28h-8.39V150.78h8.39c5.32,0,8.47,3,8.47,9.28Zm0,0" transform="translate(154 126.39)"/><path class="cls-1" d="M250.59,134.76a6,6,0,0,0-6,6v69.66a27.39,27.39,0,0,1-27.35,27.36H-113.64A27.39,27.39,0,0,1-141,210.43V141.59a6,6,0,0,0-6-6,6,6,0,0,0-6,6v68.84a39.41,39.41,0,0,0,39.36,39.36H217.24a39.41,39.41,0,0,0,39.36-39.36V140.77a6,6,0,0,0-6-6Zm0,0" transform="translate(154 126.39)"/><path class="cls-1" d="M217.24,3.8H170.3L75-97a23.71,23.71,0,0,0-6.46-21.44,23.73,23.73,0,0,0-33.52,0,23.55,23.55,0,0,0-6.94,16.76A23.94,23.94,0,0,0,28.56-97L-66.7,3.8h-46.94A39.41,39.41,0,0,0-153,43.17v68.69a6,6,0,0,0,6,6,6,6,0,0,0,6-6V43.17a27.39,27.39,0,0,1,27.35-27.36H217.24a27.39,27.39,0,0,1,27.36,27.36v69a6,6,0,1,0,12,0v-69A39.41,39.41,0,0,0,217.24,3.8ZM43.53-110a11.65,11.65,0,0,1,8.27-3.42A11.66,11.66,0,0,1,60.07-110a11.71,11.71,0,0,1,0,16.54A11.63,11.63,0,0,1,51.8-90a11.62,11.62,0,0,1-8.27-3.43,11.62,11.62,0,0,1-3.43-8.27A11.61,11.61,0,0,1,43.53-110ZM-50.18,3.8,34.35-85.66c.22.24.45.48.68.72A23.55,23.55,0,0,0,51.8-78a23.55,23.55,0,0,0,16.76-6.94c.24-.23.46-.48.68-.72L153.77,3.8Zm0,0" transform="translate(154 126.39)"/><path class="cls-1" d="M-58.47,56.12A21.36,21.36,0,0,0-69.94,44.31a21.37,21.37,0,0,0-16.46-.24,21.41,21.41,0,0,0-10,8,21.45,21.45,0,0,0-12.75,1,21.53,21.53,0,0,0-12,27.93c8.48,21.35,40.25,21.74,42.49,21.74h.08a6,6,0,0,0,4.07-1.62c1-.94,24.66-23.36,16-45ZM-73.61,81A62.28,62.28,0,0,1-81,90.65c-6.52-.44-24.45-2.68-29-14.06a9.51,9.51,0,0,1,5.32-12.34,9.52,9.52,0,0,1,3.52-.68,9.49,9.49,0,0,1,4.79,1.31,6,6,0,0,0,5.25.39,6,6,0,0,0,3.55-3.89A9.44,9.44,0,0,1-82,55.23a9.44,9.44,0,0,1,7.27.11,9.42,9.42,0,0,1,5.07,5.21c2.22,5.59.88,12.47-4,20.42Zm0,0" transform="translate(154 126.39)"/><path class="cls-1" d="M212.71,53.09a21.35,21.35,0,0,0-12.75-1,21.52,21.52,0,0,0-37.89,4c-8.61,21.67,15,44.09,16.05,45a6,6,0,0,0,4.07,1.61h.08c2.25,0,34-.39,42.5-21.74a21.53,21.53,0,0,0-12.05-27.93Zm.89,23.5c-2.22,5.59-7.91,9.67-16.91,12.12a62.45,62.45,0,0,1-12,1.95c-4.44-4.79-15.94-18.73-11.43-30.11a9.52,9.52,0,0,1,8.84-6,9.4,9.4,0,0,1,3.5.67h0a9.45,9.45,0,0,1,5.61,6.16A6,6,0,0,0,200,64.88,9.5,9.5,0,0,1,213.6,76.59Zm0,0" transform="translate(154 126.39)"/></svg>