<svg id="Layer_1" data-name="Layer 1" xmlns="http://www.w3.org/2000/svg" viewBox="0 0 411.6 336.84"><defs><style>.cls-1{fill:none;stroke:#231f20;stroke-miterlimit:10;stroke-width:2px;}</style></defs><title>049-love</title><path class="cls-1" d="M234.19,1.47c-.28-3.91-.72-7.86-1.32-11.74A111,111,0,0,0,188.5-83.36a111,111,0,0,0-83.05-20.31A111,111,0,0,0,28.77-54.11a111,111,0,0,0-88-24.18,111,111,0,0,0-73.09,44.37,111,111,0,0,0-20.31,83.05C-137.95,144.72-33.3,195.28,27.77,216.91a6,6,0,1,0,4-11.23C-104.68,157.35-135,85.71-140.9,47.31A99.91,99.91,0,0,1-57.46-66.52,99.25,99.25,0,0,1,26.11-40.59a6,6,0,0,0,5,1.54,6,6,0,0,0,4.29-3,99.26,99.26,0,0,1,71.88-49.87,99.14,99.14,0,0,1,74.2,18.14A99.14,99.14,0,0,1,221.09-8.46c.55,3.56,1,7.19,1.21,10.77a6,6,0,1,0,11.88-.85Zm0,0" transform="translate(155 106)"/><path class="cls-1" d="M192.17,8.15a84.32,84.32,0,0,0-67,10.51,84.87,84.87,0,0,0-117.65-33A84.31,84.31,0,0,0-31.68,37.4c-6,23.07-4.4,47.61,4.84,72.91,7.27,19.93,19.26,40.38,35.64,60.77A344.89,344.89,0,0,0,68.08,228.7a6,6,0,0,0,3.5,1.14,6.13,6.13,0,0,0,.7,0,344.41,344.41,0,0,0,79.88-21.27c24.26-9.78,44.72-21.76,60.8-35.59,20.43-17.56,33.84-38.17,39.87-61.24A85,85,0,0,0,192.17,8.15Zm49.14,100.54c-5.39,20.65-17.5,39.19-36,55.13-15.06,13-34.36,24.27-57.36,33.57a343.37,343.37,0,0,1-74.74,20.27,343.54,343.54,0,0,1-55.29-54.22C2.41,144.07-8.91,124.79-15.7,106.11c-8.35-22.94-9.84-45-4.45-65.69A73,73,0,0,1,50.3-14.13a73.28,73.28,0,0,1,18.55,2.4,72.54,72.54,0,0,1,48.54,41.64,6,6,0,0,0,9.08,2.37,72.95,72.95,0,0,1,114.85,76.41Zm0,0" transform="translate(155 106)"/></svg>