<svg id="Layer_1" data-name="Layer 1" xmlns="http://www.w3.org/2000/svg" viewBox="0 0 411.6 390.7"><defs><style>.cls-1{fill:none;stroke:#231f20;stroke-miterlimit:10;stroke-width:2px;}</style></defs><title>050-wedding-couple</title><path class="cls-1" d="M125.42,49.87a6,6,0,0,0-6,6v6.94a6,6,0,0,0,12,0V55.88a6,6,0,0,0-6-6Zm0,0" transform="translate(155 133)"/><path class="cls-1" d="M172.27,49.87a6,6,0,0,0-6,6v6.94a6,6,0,0,0,12,0V55.88a6,6,0,0,0-6-6Zm0,0" transform="translate(155 133)"/><path class="cls-1" d="M165.27,84.46a6,6,0,0,0-8.39,1.37c-1.18,1.64-4.12,3.29-8,3.29s-6.86-1.66-8-3.29a6,6,0,1,0-9.75,7c3.74,5.2,10.39,8.29,17.79,8.29s14.05-3.1,17.79-8.29a6,6,0,0,0-1.37-8.39Zm0,0" transform="translate(155 133)"/><path class="cls-1" d="M-66.81,59a6,6,0,0,0-6,6V71.7a6,6,0,0,0,6,6,6,6,0,0,0,6-6V65a6,6,0,0,0-6-6Zm0,0" transform="translate(155 133)"/><path class="cls-1" d="M-28.11,92.49a6,6,0,0,0-8.39,1.37C-37.61,95.41-40.4,97-44.12,97s-6.51-1.56-7.62-3.11a6,6,0,0,0-8.39-1.37,6,6,0,0,0-1.37,8.39C-57.85,106-51.35,109-44.12,109s13.73-3,17.38-8.11a6,6,0,0,0-1.37-8.39Zm0,0" transform="translate(155 133)"/><path class="cls-1" d="M82.38,181.05a6,6,0,0,0-6,6v11.72a6,6,0,0,0,12,0V187.06a6,6,0,0,0-6-6Zm0,0" transform="translate(155 133)"/><path class="cls-1" d="M76.95-132a39,39,0,0,0-26.17,10A39,39,0,0,0,24.6-132,39.27,39.27,0,0,0-14.63-92.77c0,19,11.11,37.36,32.12,53A148.87,148.87,0,0,0,48.58-22.2a6,6,0,0,0,2.19.41A6,6,0,0,0,53-22.2,148.87,148.87,0,0,0,84.05-39.81c21-15.61,32.12-33.92,32.12-53A39.27,39.27,0,0,0,76.95-132ZM50.77-34.32C40.46-38.89-2.61-59.94-2.61-92.77A27.24,27.24,0,0,1,24.6-120,27.06,27.06,0,0,1,46-109.52a6,6,0,0,0,4.73,2.3,6,6,0,0,0,4.73-2.3A27.07,27.07,0,0,1,76.95-120a27.24,27.24,0,0,1,27.21,27.21c0,32.84-43.09,53.89-53.39,58.45Zm0,0" transform="translate(155 133)"/><path class="cls-1" d="M220.74,134.57l-38-11.18-.55-.14-6-1.19a3.06,3.06,0,0,1-2.45-3v-2.87a60.65,60.65,0,0,0,32.76-37.25h4.59a14.71,14.71,0,0,0,14.7-14.7V54.62a14.71,14.71,0,0,0-5.12-11.13V32.9A62.71,62.71,0,0,0,158.1-29.75H139.6A62.71,62.71,0,0,0,77,32.9V43.49a14.73,14.73,0,0,0-5.12,11.13v9.63a14.71,14.71,0,0,0,14.7,14.7h4.59a60.66,60.66,0,0,0,31.68,36.76v3.57a3.05,3.05,0,0,1-2.45,3l-4.79,1h-.09l-.55.14L77,134.57a48.78,48.78,0,0,0-29.79,25.12A45.59,45.59,0,0,0,37.7,148.9l14.64-4.64a19.21,19.21,0,0,0,13.38-19.44c-.9-15.63-4.71-47.3-20-83.73C26.64-4.18-.67-21.51-21-28A28.52,28.52,0,0,0-44.12-39.89,28.52,28.52,0,0,0-67.27-28c-20.31,6.49-47.61,23.83-66.66,69.09-15.33,36.43-19.14,68.1-20,83.73a19.21,19.21,0,0,0,13.38,19.44l14.64,4.64a45.22,45.22,0,0,0-16.4,34.68v67.12a6,6,0,0,0,6,6l385.93,0a6,6,0,0,0,6-6V181.18a48.86,48.86,0,0,0-34.86-46.61ZM34.61,45.75c14.64,34.77,18.26,64.9,19.12,79.76a7.21,7.21,0,0,1-5,7.3l-25.46,8.06c-.48-.16-1-.31-1.43-.44L-13,130.17l-.51-.12-5.46-1.1a2.28,2.28,0,0,1-1.83-2.23V124l.68-.32c.63-.28,1.25-.57,1.87-.88l.91-.46q.93-.48,1.84-1l.78-.45c.66-.38,1.32-.78,2-1.2l.56-.36c.75-.49,1.49-1,2.22-1.52l.22-.15A58.82,58.82,0,0,0,11.9,87.5h4.43A14.44,14.44,0,0,0,30.76,73.08V63.76c0-.44,0-.88-.07-1.31,0-.11,0-.21,0-.31-.05-.43-.11-.85-.2-1.27a.59.59,0,0,0,0-.08c-.08-.39-.18-.78-.3-1.16l-.09-.28c-.12-.4-.27-.79-.43-1.17l-.05-.12q-.23-.52-.49-1l-.14-.25c-.2-.35-.41-.71-.63-1l-.1-.14c-.21-.3-.43-.59-.66-.87l-.17-.21c-.26-.31-.53-.61-.82-.9l-.15-.14c-.26-.25-.52-.49-.8-.72l-.2-.17c-.32-.25-.64-.5-1-.73l-.19-.12-.47-.3c0-1,0-2-.08-3,0-.36,0-.72-.06-1.07,0-.62-.09-1.23-.14-1.85s-.08-.94-.13-1.41l-.06-.49A67.81,67.81,0,0,0,.55.43h0Q-1.18-1.09-3-2.49l-.18-.14c-.37-.29-.75-.56-1.14-.83s-.9-.65-1.35-1l-.93-.64q-1-.67-2-1.31L-9-6.59c-.87-.53-1.75-1-2.64-1.52l-.41-.22q-1.16-.62-2.33-1.2l-.55-.27-.67-.32c0-.41,0-.82,0-1.23s0-1.06,0-1.57V-13C.75-5.23,20.09,11.24,34.61,45.75Zm-56,32a6,6,0,0,0,6-6V65a6,6,0,0,0-1.22-3.62H2.5v8.82c0,.83,0,1.66-.07,2.5,0,.06,0,.11,0,.16,0,.79-.11,1.58-.19,2.36,0,0,0,0,0,.06-.09.81-.2,1.63-.33,2.43a1.09,1.09,0,0,0,0,.12c-.13.77-.27,1.53-.44,2.29-.07.33-.15.66-.23,1S1,82,.84,82.5s-.18.65-.27,1-.19.64-.3,1-.23.69-.35,1c-.18.51-.36,1-.56,1.52l-.25.63q-.77,1.91-1.71,3.74l0,.1A47.22,47.22,0,0,1-15.6,107l-.17.13-1,.75-.56.4q-.66.47-1.34.91l-.93.6-.73.44c-.43.25-.86.5-1.29.74l-.53.29c-.5.27-1,.52-1.5.77l-.54.26c-.58.27-1.17.54-1.76.8l-.2.08q-.81.34-1.64.65l-.61.22-1.11.38-1,.33-1,.29c-.59.16-1.17.32-1.76.46-.4.09-.79.19-1.19.27l-1,.19-1.17.21-1,.14-1.25.16-.89.09-1.42.11-.75,0c-.73,0-1.46.05-2.2.05s-1.51,0-2.26-.05l-.69,0-1.57-.12-.76-.08c-.5-.06-1-.12-1.49-.19l-.74-.12c-.5-.08-1-.17-1.5-.27l-.68-.14c-.53-.11-1.05-.24-1.57-.36l-.57-.14c-.59-.16-1.17-.32-1.75-.5l-.35-.11a45.91,45.91,0,0,1-8.16-3.45l-.25-.13q-.87-.47-1.71-1l-.42-.27c-.38-.23-.76-.48-1.13-.73l-.87-.59-.31-.22a47.31,47.31,0,0,1-16.58-21l-.06-.16Q-88,86-88.38,84.81l-.13-.39c-.11-.34-.21-.67-.31-1l-.27-.92c-.11-.42-.22-.84-.33-1.27s-.18-.75-.26-1.12c-.16-.75-.3-1.5-.43-2.25l0-.16q-.19-1.2-.33-2.39a.8.8,0,0,0,0-.1c-.08-.77-.14-1.55-.19-2.33v-.19q-.07-1.25-.07-2.5V60.51l.16-.08.65-.3.25-.13c.29-.16.57-.32.84-.49h0c.27-.17.52-.36.77-.56l.22-.18c.19-.15.37-.31.54-.48l.21-.2A11.33,11.33,0,0,0-85.8,56.6l.16-.24c.14-.2.27-.41.39-.62l.15-.25c.16-.29.31-.59.45-.9a5.68,5.68,0,0,0,.31-.88l4.43-16.63a2.08,2.08,0,0,1,1.42-1.49,2.1,2.1,0,0,1,2,.41C-55,54.16-37.78,59.88-26,61.09A6,6,0,0,0-27.44,65v6.72a6,6,0,0,0,6,6Zm35.71-2.22c0-.36.05-.73.08-1.09s.08-.95.1-1.42c0-.93.08-1.87.08-2.8V61.36h1.81a2.41,2.41,0,0,1,2.4,2.4v9.32a2.41,2.41,0,0,1-2.4,2.4Zm-74.6-90c.09-.42.18-.84.3-1.25L-60-16c.1-.34.22-.68.34-1l.13-.34q.19-.49.41-1l.12-.25a16.53,16.53,0,0,1,14.84-9.28A16.53,16.53,0,0,1-29.28-18.6l.12.25c.14.31.28.63.41.95l.13.34c.12.33.23.67.34,1l.07.25c.12.41.21.83.3,1.25a1,1,0,0,1,0,.11c-.77-.19-1.55-.36-2.32-.52l-.61-.12c-.93-.18-1.86-.35-2.79-.5l-.22,0c-1-.15-2-.27-3-.38l-.59-.06c-1-.1-2-.18-3-.23l-.54,0c-1.05,0-2.1-.08-3.16-.08s-2.11,0-3.16.08l-.54,0c-1,.05-2,.13-3,.23l-.59.06c-1,.11-2,.23-3,.38l-.22,0q-1.4.22-2.79.5L-58-15c-.78.16-1.55.34-2.32.52,0,0,0-.07,0-.11ZM-70.42,2.21l.35-.19Q-67.86.86-65.54-.11L-65-.32c.54-.22,1.09-.43,1.64-.63l1.11-.39,1.33-.44,1.18-.36,1.33-.37,1.19-.3,1.38-.31,1.17-.24,1.47-.26,1.12-.18c.52-.07,1.05-.14,1.58-.2l1-.12c.59-.06,1.19-.1,1.79-.13l.88-.06c.89,0,1.79-.07,2.68-.07s1.8,0,2.69.07l.88.06c.59,0,1.19.08,1.78.13l1,.12,1.58.2,1.13.18,1.46.26,1.17.24,1.38.31,1.2.3,1.32.37,1.19.36,1.32.44,1.11.39,1.64.63.52.21q2.33,1,4.54,2.13l.35.19q.9.48,1.79,1l.54.32c.52.31,1,.64,1.56,1l.58.38c.55.37,1.1.75,1.65,1.14s.86.63,1.28,1l.71.54c.45.36.9.71,1.33,1.08l.28.23A56.37,56.37,0,0,1,11.41,45.28c0,.28.07.55.09.83s.07.78.1,1.18.07,1,.09,1.5l0,.56H-21c-18.35,0-37.8-14.11-47.75-22.52-.29-.25-.59-.47-.9-.69l-.26-.18c-.25-.17-.5-.32-.75-.48l-.22-.13c-.32-.18-.64-.35-1-.51l-.22-.1c-.27-.12-.54-.24-.81-.34l-.3-.11c-.32-.11-.65-.22-1-.31l-.06,0q-.53-.14-1.06-.24l-.31-.05-.84-.11-.27,0c-.36,0-.72,0-1.08,0h-.29l-.7,0-.36,0-.65.07-.36.05-.68.13-.31.07c-.33.08-.66.17-1,.27A14.08,14.08,0,0,0-91.53,34l-4.09,15.36H-100l0-.56c0-.5.06-1,.09-1.5s.06-.79.1-1.18.06-.56.09-.84A56.38,56.38,0,0,1-80.14,8.82l.28-.23c.44-.37.88-.73,1.33-1.08l.7-.53c.43-.33.86-.65,1.3-1s1.08-.76,1.63-1.13l.59-.38c.51-.33,1-.65,1.55-1l.55-.32q.89-.52,1.79-1ZM-137,132.81a7.21,7.21,0,0,1-5-7.3c.86-14.86,4.48-45,19.12-79.76C-108.33,11.24-89-5.23-72.61-13a.47.47,0,0,1,0,.08c0,.52,0,1,0,1.57s0,.82,0,1.23l-.67.32-.55.27Q-75-9-76.17-8.34l-.43.23c-.89.49-1.77,1-2.64,1.52l-.38.24q-1,.63-2,1.3l-.94.64-1.34,1-1.14.84-.12.1a67.91,67.91,0,0,0-26.37,46.15c0,.16,0,.32-.06.49-.05.47-.09.94-.13,1.41s-.1,1.23-.14,1.85c0,.36,0,.71-.06,1.07,0,1-.07,2-.08,3l-.46.3-.19.13c-.34.23-.66.47-1,.73l-.2.17c-.27.23-.54.47-.79.72l-.15.14c-.29.29-.56.59-.82.9l-.17.21c-.23.28-.44.57-.65.88l-.1.14c-.23.34-.44.68-.64,1l-.14.25q-.26.5-.49,1l-.05.12c-.16.38-.3.77-.43,1.16l-.09.29c-.11.38-.21.77-.3,1.16a.44.44,0,0,1,0,.08c-.09.41-.15.84-.19,1.26,0,.11,0,.21,0,.31,0,.43-.07.87-.07,1.31v9.32A14.44,14.44,0,0,0-104.58,87.5h4.43v0c.12.38.25.74.38,1.11A58.24,58.24,0,0,0-69.65,123l.23.11c.32.15.64.32,1,.47v3.38a2.29,2.29,0,0,1-1.84,2.24l-4.46.9-.51.12-34.8,10.25h0l-1.39.44ZM-102.69,73c0,.46.06.92.09,1.38s0,.75.08,1.13h-2.06a2.41,2.41,0,0,1-2.4-2.41V63.76a2.41,2.41,0,0,1,2.4-2.4h1.81v8.82c0,.93,0,1.87.08,2.81ZM42.09,244.68H25.54V188a14.17,14.17,0,0,0-2.76-8.39A40.76,40.76,0,0,0-9.83,163.19,40.49,40.49,0,0,0-41,177.82a4,4,0,0,1-3.09,1.47,4,4,0,0,1-3.09-1.47,40.48,40.48,0,0,0-31.2-14.64A40.76,40.76,0,0,0-111,179.62a14.17,14.17,0,0,0-2.76,8.39v10.76a6,6,0,0,0,6,6,6,6,0,0,0,6-6V188a2.08,2.08,0,0,1,.4-1.24,28.32,28.32,0,0,1,23-11.58,28.48,28.48,0,0,1,22,10.31,16,16,0,0,0,12.33,5.8,16,16,0,0,0,12.32-5.8,28.5,28.5,0,0,1,22-10.31,28.34,28.34,0,0,1,23,11.58,2.09,2.09,0,0,1,.39,1.24v56.67H-101.77V226.74a6,6,0,0,0-6-6,6,6,0,0,0-6,6v17.95h-16.55V183.57a33.17,33.17,0,0,1,22.09-31.12l.28-.1.5-.16.79-.25,34.54-10.17,4.21-.84c.41-.08.81-.18,1.21-.3l.4-.13c.26-.09.51-.17.76-.27l.46-.2c.22-.09.44-.18.66-.29l.46-.25.59-.32c.16-.09.31-.2.46-.3s.37-.23.54-.36l.44-.34.5-.4c.15-.12.28-.25.42-.38l.45-.43c.13-.13.26-.28.39-.42s.28-.3.41-.46l.36-.45c.13-.16.25-.32.37-.49s.21-.32.32-.48.22-.34.32-.52l.28-.51c.1-.18.19-.36.28-.55s.16-.35.24-.53.16-.37.23-.57.13-.37.19-.55.13-.4.19-.59.1-.37.15-.57.1-.41.14-.61.07-.39.1-.58.06-.42.08-.63,0-.4.05-.6,0-.23,0-.34l.32.06,1.31.25c.52.1,1,.2,1.56.28s1,.15,1.55.21.9.13,1.35.17,1.18.11,1.77.15l1.18.09c.62,0,1.24,0,1.86.06l1.13,0h.32c.53,0,1.06,0,1.59,0l1.07,0c.66,0,1.32-.08,2-.13l1-.08c.68-.07,1.34-.15,2-.24l.95-.12c.7-.11,1.4-.23,2.1-.36l.68-.12c0,.05,0,.1,0,.15s0,.36.06.53.05.45.09.68.07.36.11.53.09.43.14.65.1.35.15.52.13.42.2.62l.19.51.25.6.23.49c.1.19.19.38.3.57l.27.47.34.54.31.45c.12.17.25.34.38.51l.34.42.43.48c.12.13.24.27.37.39l.46.44.4.36.51.41.43.32c.18.13.36.25.55.37l.44.28c.19.12.39.22.59.33l.45.24.66.29.45.19c.25.1.5.18.76.26l.39.13c.39.11.79.22,1.2.29l5.2,1,34.55,10.17,1.29.41.14.05a33.16,33.16,0,0,1,22.22,31.16Zm140.61-100.4,8.19,14.46-23.8,36.87Zm-30.53,18.24h-6.63l-2.35-4.07,5.66-5.17,5.66,5.17Zm1.53,35.82L151,207.07l-2.2,7.22L144,198.35l3.29-23.81h3.07Zm-20.87-58.75A63,63,0,0,0,144,141.46l-12.46,11.38a6,6,0,0,0-1,1.21l-5-16.36Zm-.21-12.48a15,15,0,0,0,2.2-7.15l1.73.39.52.1c.74.15,1.47.28,2.21.4l.54.09c.8.12,1.59.21,2.39.3l.79.09q1.16.11,2.33.18l.84,0c.79,0,1.58.06,2.38.06h.77c.82,0,1.64,0,2.47-.06l.58,0c.79,0,1.58-.1,2.37-.18l.38,0c.89-.09,1.77-.21,2.66-.34l.41-.06c.89-.14,1.77-.3,2.65-.47l.34-.07.67-.14a15.05,15.05,0,0,0,2.44,7.11l-2.45.64a51.2,51.2,0,0,1-25.94,0Zm21.1,14.35a63,63,0,0,0,11.16-1.87l7.27-1.91-5,16.36a6.19,6.19,0,0,0-1-1.2ZM209,65.91c0-.57.09-1.15.12-1.73.05-1,.07-2,.07-2.93v-9.3h2a2.48,2.48,0,0,1,.52.06h0c.12,0,.22.07.32.11l.2.07h0a2.68,2.68,0,0,1,1.58,2.44v9.63a2.68,2.68,0,0,1-2.68,2.68h-2.21c0-.34,0-.68.07-1Zm-122.48,1a2.68,2.68,0,0,1-2.68-2.68V54.62a2.68,2.68,0,0,1,1.58-2.44,2.82,2.82,0,0,1,.48-.16L86,52a2.45,2.45,0,0,1,.51-.06h2v9.3c0,1,0,2,.07,2.93,0,.58.08,1.15.13,1.73,0,.34,0,.68.07,1ZM96.2,21.34a5.78,5.78,0,0,0-.67.23l-.28.14-.35.17-.32.21-.26.17a3.92,3.92,0,0,0-.32.26l-.22.18c-.1.09-.2.2-.3.3s-.13.13-.19.2-.18.22-.26.34l-.16.21c-.08.12-.15.25-.23.37s-.09.15-.13.23-.12.26-.18.4-.07.14-.09.21l0,.09v.07h0v0q-.46,1.27-.87,2.56l0,.05v0A59.84,59.84,0,0,0,89,38.17V32.89a50.68,50.68,0,0,1,50.62-50.62h18.5a50.68,50.68,0,0,1,50.62,50.62v5.3c0-.32-.09-.65-.14-1v-.08l-.08-.56v0c-.13-.83-.28-1.65-.44-2.47v0l-.14-.64a.13.13,0,0,0,0,0c-.16-.75-.33-1.5-.52-2.24v-.06l-.05-.23,0-.07h0l0-.09c0-.13-.09-.25-.14-.37s-.12-.36-.2-.54-.14-.25-.21-.37-.17-.33-.28-.49-.18-.22-.27-.34-.22-.29-.34-.42-.22-.2-.34-.3-.25-.24-.38-.34-.28-.18-.42-.27-.26-.18-.39-.25-.33-.15-.5-.22-.26-.12-.39-.16a5.36,5.36,0,0,0-.55-.14l-.4-.1c-.18,0-.37,0-.55,0s-.28,0-.42,0h-.21a6,6,0,0,0-3,.84c-6.45,3.82-15,5.76-25.39,5.76-10.57,0-21.27-3.35-31.61-6.59-13.1-4.1-26.61-8.33-40.34-6l-.41.07-.14,0q-2.09.38-4.17,1Zm5.4,50.18c-.17-.78-.32-1.56-.45-2.34,0-.06,0-.11,0-.16-.14-.83-.25-1.66-.34-2.49,0,0,0-.06,0-.09-.09-.81-.15-1.62-.2-2.43,0-.06,0-.12,0-.18q-.07-1.29-.07-2.59V45.93h0c0-.48,0-.95,0-1.43,0-.22,0-.45,0-.68s0-.33,0-.5,0-.08,0-.12l0-.41c0-.51.07-1,.12-1.52h0c0-.23,0-.45.07-.68l0-.27c.05-.45.11-.9.17-1.35s.1-.66.16-1,.14-.84.23-1.27.13-.67.2-1,.18-.82.28-1.23l0-.1c.07-.3.14-.59.22-.89s.23-.82.35-1.22l0-.1.76-.11c.44-.07.88-.14,1.31-.2s1.11-.11,1.66-.15l.43,0c8.22-.5,16.82,1.7,25.75,4.42l5.26,1.63c7.7,2.41,15.59,4.89,23.8,6.2a72.37,72.37,0,0,0,11.41.95c1.91,0,3.76-.07,5.57-.19,1.33-.08,2.65-.19,3.92-.34l.29,0c.65-.08,1.29-.18,1.93-.27l1.14-.16,1.14-.21c.61-.11,1.23-.21,1.83-.34.39-.08.76-.18,1.14-.27.57-.13,1.15-.26,1.72-.4s1.08-.31,1.62-.46c.38-.11.77-.21,1.14-.32s.88-.3,1.31-.45.9-.29,1.33-.46v.09c.07.71.12,1.43.16,2.14l0,.52v0c0,.72.05,1.44.05,2.16h0V61.24c0,.86,0,1.72-.07,2.59,0,.06,0,.13,0,.19,0,.81-.11,1.62-.2,2.43v.09c-.09.83-.2,1.66-.34,2.49l0,.16c-.13.78-.28,1.56-.45,2.34a48.52,48.52,0,0,1-32.78,35.85l-.43.13c-.58.18-1.16.34-1.75.5l-.63.16c-.53.13-1.06.25-1.59.37l-.73.15c-.51.1-1,.19-1.53.27l-.79.13-1.53.2-.8.09c-.54.05-1.08.09-1.63.12l-.71.05c-.78,0-1.56.06-2.35.06s-1.6,0-2.39-.06l-.82-.06c-.52,0-1-.07-1.55-.12l-1-.12-1.32-.17-1.12-.19-1.16-.21-1.22-.27-1-.23-1.31-.35-.9-.25-1.36-.43-.84-.29-1.32-.49a48.52,48.52,0,0,1-29.9-34.84ZM115,144.28l15.61,51.33-23.8-36.87ZM220.44,244.65V187.06a6,6,0,1,0-12,0v57.58h-120V226.74a6,6,0,1,0-12,0v17.91H54.1V181.17a36.77,36.77,0,0,1,26.24-35.08l23.78-7-8.94,15.79a8.11,8.11,0,0,0,.43,8.7L143.8,238.2l0,0,.1.14.08.11.23.3.09.1.23.25h0l.15.14.13.12c.12.11.24.2.37.3l.09.07.07.05,0,0c.16.11.34.22.52.32l.11.06.11.05.17.09.2.08.28.11.14.05h0l.25.07.25.07.31.06.2,0,.18,0a6,6,0,0,0,.7,0h0a6,6,0,0,0,.7,0l.18,0,.19,0,.32-.06.25-.07.26-.07h0l.14-.05.28-.11.2-.08.18-.09.1,0,.11-.07a4.94,4.94,0,0,0,.52-.32l.05,0,.07-.06.07-.05a4.06,4.06,0,0,0,.38-.31l.14-.12.39-.4.09-.11.24-.31.07-.09.1-.15,0,0,48.18-74.62a8.11,8.11,0,0,0,.43-8.7l-8.94-15.78,23.78,7a36.78,36.78,0,0,1,26.24,35.08v63.47Zm0,0" transform="translate(155 133)"/></svg>